<?xml version="1.0" encoding="utf-8" standalone="no"?>
<!DOCTYPE svg PUBLIC "-//W3C//DTD SVG 1.1//EN"
  "http://www.w3.org/Graphics/SVG/1.1/DTD/svg11.dtd">
<svg xmlns:xlink="http://www.w3.org/1999/xlink" width="1176.235479pt" height="331.2pt" viewBox="0 0 1176.235479 331.2" xmlns="http://www.w3.org/2000/svg" version="1.1">
 <metadata>
  <rdf:RDF xmlns:dc="http://purl.org/dc/elements/1.1/" xmlns:cc="http://creativecommons.org/ns#" xmlns:rdf="http://www.w3.org/1999/02/22-rdf-syntax-ns#">
   <cc:Work>
    <dc:type rdf:resource="http://purl.org/dc/dcmitype/StillImage"/>
    <dc:date>2023-08-08T13:42:39.088028</dc:date>
    <dc:format>image/svg+xml</dc:format>
    <dc:creator>
     <cc:Agent>
      <dc:title>Matplotlib v3.6.3, https://matplotlib.org/</dc:title>
     </cc:Agent>
    </dc:creator>
   </cc:Work>
  </rdf:RDF>
 </metadata>
 <defs>
  <style type="text/css">*{stroke-linejoin: round; stroke-linecap: butt}</style>
 </defs>
 <g id="figure_1">
  <g id="patch_1">
   <path d="M 0 331.2 
L 1176.235479 331.2 
L 1176.235479 0 
L 0 0 
L 0 331.2 
z
" style="fill: none"/>
  </g>
  <g id="axes_1">
   <g id="patch_2">
    <path d="M 63.086292 276.274739 
L 412.302688 276.274739 
L 412.302688 27.036997 
L 63.086292 27.036997 
z
" style="fill: #eaeaf2"/>
   </g>
   <g id="matplotlib.axis_1">
    <g id="xtick_1">
     <g id="line2d_1">
      <path d="M 142.459622 276.274739 
L 142.459622 27.036997 
" clip-path="url(#p995736bf5d)" style="fill: none; stroke: #ffffff; stroke-width: 0.8; stroke-linecap: round"/>
     </g>
     <g id="text_1">
      <!-- $\mathdefault{2^{7}}$ -->
      <g style="fill: #262626" transform="translate(134.476345 298.411736) scale(0.2 -0.2)">
       <defs>
        <path id="CMR17-32" d="M 2669 989 
L 2554 989 
C 2490 536 2438 459 2413 420 
C 2381 369 1920 369 1830 369 
L 602 369 
C 832 619 1280 1072 1824 1597 
C 2214 1967 2669 2402 2669 3035 
C 2669 3790 2067 4224 1395 4224 
C 691 4224 262 3604 262 3030 
C 262 2780 448 2748 525 2748 
C 589 2748 781 2787 781 3010 
C 781 3207 614 3264 525 3264 
C 486 3264 448 3258 422 3245 
C 544 3790 915 4058 1306 4058 
C 1862 4058 2227 3617 2227 3035 
C 2227 2479 1901 2000 1536 1584 
L 262 146 
L 262 0 
L 2515 0 
L 2669 989 
z
" transform="scale(0.015625)"/>
        <path id="CMR17-37" d="M 2886 3941 
L 2886 4081 
L 1382 4081 
C 634 4081 621 4165 595 4288 
L 480 4288 
L 294 3094 
L 410 3094 
C 429 3215 474 3540 550 3661 
C 589 3712 1062 3712 1171 3712 
L 2579 3712 
L 1869 2661 
C 1395 1954 1069 999 1069 165 
C 1069 89 1069 -128 1299 -128 
C 1530 -128 1530 89 1530 171 
L 1530 465 
C 1530 1508 1709 2196 2003 2636 
L 2886 3941 
z
" transform="scale(0.015625)"/>
       </defs>
       <use xlink:href="#CMR17-32" transform="scale(0.996264)"/>
       <use xlink:href="#CMR17-37" transform="translate(45.690477 36.153639) scale(0.697382)"/>
      </g>
     </g>
    </g>
    <g id="xtick_2">
     <g id="line2d_2">
      <path d="M 227.126098 276.274739 
L 227.126098 27.036997 
" clip-path="url(#p995736bf5d)" style="fill: none; stroke: #ffffff; stroke-width: 0.8; stroke-linecap: round"/>
     </g>
     <g id="text_2">
      <!-- $\mathdefault{2^{11}}$ -->
      <g style="fill: #262626" transform="translate(215.728592 298.411736) scale(0.2 -0.2)">
       <defs>
        <path id="CMR17-31" d="M 1702 4058 
C 1702 4192 1696 4192 1606 4192 
C 1357 3916 979 3827 621 3827 
C 602 3827 570 3827 563 3808 
C 557 3795 557 3782 557 3648 
C 755 3648 1088 3686 1344 3839 
L 1344 461 
C 1344 236 1331 160 781 160 
L 589 160 
L 589 0 
C 896 0 1216 0 1523 0 
C 1830 0 2150 0 2458 0 
L 2458 160 
L 2266 160 
C 1715 160 1702 230 1702 458 
L 1702 4058 
z
" transform="scale(0.015625)"/>
       </defs>
       <use xlink:href="#CMR17-32" transform="scale(0.996264)"/>
       <use xlink:href="#CMR17-31" transform="translate(45.690477 36.153639) scale(0.697382)"/>
       <use xlink:href="#CMR17-31" transform="translate(77.673659 36.153639) scale(0.697382)"/>
      </g>
     </g>
    </g>
    <g id="xtick_3">
     <g id="line2d_3">
      <path d="M 311.792575 276.274739 
L 311.792575 27.036997 
" clip-path="url(#p995736bf5d)" style="fill: none; stroke: #ffffff; stroke-width: 0.8; stroke-linecap: round"/>
     </g>
     <g id="text_3">
      <!-- $\mathdefault{2^{15}}$ -->
      <g style="fill: #262626" transform="translate(300.395069 298.411736) scale(0.2 -0.2)">
       <defs>
        <path id="CMR17-35" d="M 730 3692 
C 794 3666 1056 3584 1325 3584 
C 1920 3584 2246 3911 2432 4100 
C 2432 4157 2432 4192 2394 4192 
C 2387 4192 2374 4192 2323 4163 
C 2099 4058 1837 3973 1517 3973 
C 1325 3973 1037 3999 723 4139 
C 653 4171 640 4171 634 4171 
C 602 4171 595 4164 595 4037 
L 595 2203 
C 595 2089 595 2057 659 2057 
C 691 2057 704 2070 736 2114 
C 941 2401 1222 2522 1542 2522 
C 1766 2522 2246 2382 2246 1289 
C 2246 1085 2246 715 2054 421 
C 1894 159 1645 25 1370 25 
C 947 25 518 320 403 814 
C 429 807 480 795 506 795 
C 589 795 749 840 749 1038 
C 749 1210 627 1280 506 1280 
C 358 1280 262 1190 262 1011 
C 262 454 704 -128 1382 -128 
C 2042 -128 2669 440 2669 1264 
C 2669 2030 2170 2624 1549 2624 
C 1222 2624 947 2503 730 2274 
L 730 3692 
z
" transform="scale(0.015625)"/>
       </defs>
       <use xlink:href="#CMR17-32" transform="scale(0.996264)"/>
       <use xlink:href="#CMR17-31" transform="translate(45.690477 36.153639) scale(0.697382)"/>
       <use xlink:href="#CMR17-35" transform="translate(77.673659 36.153639) scale(0.697382)"/>
      </g>
     </g>
    </g>
    <g id="xtick_4">
     <g id="line2d_4">
      <path d="M 396.459051 276.274739 
L 396.459051 27.036997 
" clip-path="url(#p995736bf5d)" style="fill: none; stroke: #ffffff; stroke-width: 0.8; stroke-linecap: round"/>
     </g>
     <g id="text_4">
      <!-- $\mathdefault{2^{19}}$ -->
      <g style="fill: #262626" transform="translate(385.061545 298.411736) scale(0.2 -0.2)">
       <defs>
        <path id="CMR17-39" d="M 2253 1864 
C 2253 464 1670 31 1190 31 
C 1043 31 685 31 538 294 
C 704 268 826 357 826 518 
C 826 692 685 749 595 749 
C 538 749 365 723 365 506 
C 365 71 742 -128 1203 -128 
C 1939 -128 2688 674 2688 2073 
C 2688 3817 1971 4179 1485 4179 
C 851 4179 243 3628 243 2778 
C 243 1991 762 1408 1414 1408 
C 1952 1408 2189 1903 2253 2112 
L 2253 1864 
z
M 1427 1510 
C 1254 1510 1011 1542 813 1922 
C 678 2169 678 2461 678 2771 
C 678 3146 678 3405 858 3684 
C 947 3817 1114 4032 1485 4032 
C 2240 4032 2240 2885 2240 2632 
C 2240 2182 2035 1510 1427 1510 
z
" transform="scale(0.015625)"/>
       </defs>
       <use xlink:href="#CMR17-32" transform="scale(0.996264)"/>
       <use xlink:href="#CMR17-31" transform="translate(45.690477 36.153639) scale(0.697382)"/>
       <use xlink:href="#CMR17-39" transform="translate(77.673659 36.153639) scale(0.697382)"/>
      </g>
     </g>
    </g>
    <g id="text_5">
     <!-- N -->
     <g style="fill: #262626" transform="translate(230.787248 320.124366) scale(0.2 -0.2)">
      <defs>
       <path id="CMR17-4e" d="M 1312 4250 
C 1267 4320 1261 4320 1139 4320 
L 326 4320 
L 326 4160 
L 448 4160 
C 704 4160 819 4129 838 4122 
L 838 610 
C 838 451 838 153 326 153 
L 326 -13 
C 474 0 742 0 902 0 
C 1062 0 1331 0 1478 -13 
L 1478 153 
C 966 153 966 451 966 610 
L 966 4033 
C 1011 3995 1011 3982 1056 3919 
L 3430 76 
C 3475 0 3494 0 3526 0 
C 3590 0 3590 19 3590 139 
L 3590 3705 
C 3590 3863 3590 4160 4102 4160 
L 4102 4326 
C 3955 4320 3686 4320 3526 4320 
C 3366 4320 3098 4320 2950 4326 
L 2950 4160 
C 3462 4160 3462 3862 3462 3703 
L 3462 763 
L 1312 4250 
z
" transform="scale(0.015625)"/>
      </defs>
      <use xlink:href="#CMR17-4e" transform="scale(0.996264)"/>
     </g>
    </g>
   </g>
   <g id="matplotlib.axis_2">
    <g id="ytick_1">
     <g id="line2d_5">
      <path d="M 63.086292 236.802218 
L 412.302688 236.802218 
" clip-path="url(#p995736bf5d)" style="fill: none; stroke: #ffffff; stroke-width: 0.8; stroke-linecap: round"/>
     </g>
     <g id="text_6">
      <!-- $\mathdefault{0.5}$ -->
      <g style="fill: #262626" transform="translate(31.090666 243.720717) scale(0.2 -0.2)">
       <defs>
        <path id="CMR17-30" d="M 2688 2025 
C 2688 2416 2682 3080 2413 3591 
C 2176 4039 1798 4198 1466 4198 
C 1158 4198 768 4058 525 3597 
C 269 3118 243 2524 243 2025 
C 243 1661 250 1106 448 619 
C 723 -39 1216 -128 1466 -128 
C 1760 -128 2208 -7 2470 600 
C 2662 1042 2688 1559 2688 2025 
z
M 1466 -26 
C 1056 -26 813 325 723 812 
C 653 1188 653 1738 653 2096 
C 653 2588 653 2997 736 3387 
C 858 3929 1216 4096 1466 4096 
C 1728 4096 2067 3923 2189 3400 
C 2272 3036 2278 2607 2278 2096 
C 2278 1680 2278 1169 2202 792 
C 2067 95 1690 -26 1466 -26 
z
" transform="scale(0.015625)"/>
        <path id="CMMI12-3a" d="M 1178 307 
C 1178 492 1024 619 870 619 
C 685 619 557 466 557 313 
C 557 128 710 0 864 0 
C 1050 0 1178 153 1178 307 
z
" transform="scale(0.015625)"/>
       </defs>
       <use xlink:href="#CMR17-30" transform="scale(0.996264)"/>
       <use xlink:href="#CMMI12-3a" transform="translate(45.690477 0) scale(0.996264)"/>
       <use xlink:href="#CMR17-35" transform="translate(72.787654 0) scale(0.996264)"/>
      </g>
     </g>
    </g>
    <g id="ytick_2">
     <g id="line2d_6">
      <path d="M 63.086292 194.927869 
L 412.302688 194.927869 
" clip-path="url(#p995736bf5d)" style="fill: none; stroke: #ffffff; stroke-width: 0.8; stroke-linecap: round"/>
     </g>
     <g id="text_7">
      <!-- $\mathdefault{1.0}$ -->
      <g style="fill: #262626" transform="translate(31.090666 201.846367) scale(0.2 -0.2)">
       <use xlink:href="#CMR17-31" transform="scale(0.996264)"/>
       <use xlink:href="#CMMI12-3a" transform="translate(45.690477 0) scale(0.996264)"/>
       <use xlink:href="#CMR17-30" transform="translate(72.787654 0) scale(0.996264)"/>
      </g>
     </g>
    </g>
    <g id="ytick_3">
     <g id="line2d_7">
      <path d="M 63.086292 153.053519 
L 412.302688 153.053519 
" clip-path="url(#p995736bf5d)" style="fill: none; stroke: #ffffff; stroke-width: 0.8; stroke-linecap: round"/>
     </g>
     <g id="text_8">
      <!-- $\mathdefault{1.5}$ -->
      <g style="fill: #262626" transform="translate(31.090666 159.972018) scale(0.2 -0.2)">
       <use xlink:href="#CMR17-31" transform="scale(0.996264)"/>
       <use xlink:href="#CMMI12-3a" transform="translate(45.690477 0) scale(0.996264)"/>
       <use xlink:href="#CMR17-35" transform="translate(72.787654 0) scale(0.996264)"/>
      </g>
     </g>
    </g>
    <g id="ytick_4">
     <g id="line2d_8">
      <path d="M 63.086292 111.17917 
L 412.302688 111.17917 
" clip-path="url(#p995736bf5d)" style="fill: none; stroke: #ffffff; stroke-width: 0.8; stroke-linecap: round"/>
     </g>
     <g id="text_9">
      <!-- $\mathdefault{2.0}$ -->
      <g style="fill: #262626" transform="translate(31.090666 118.097668) scale(0.2 -0.2)">
       <use xlink:href="#CMR17-32" transform="scale(0.996264)"/>
       <use xlink:href="#CMMI12-3a" transform="translate(45.690477 0) scale(0.996264)"/>
       <use xlink:href="#CMR17-30" transform="translate(72.787654 0) scale(0.996264)"/>
      </g>
     </g>
    </g>
    <g id="ytick_5">
     <g id="line2d_9">
      <path d="M 63.086292 69.304821 
L 412.302688 69.304821 
" clip-path="url(#p995736bf5d)" style="fill: none; stroke: #ffffff; stroke-width: 0.8; stroke-linecap: round"/>
     </g>
     <g id="text_10">
      <!-- $\mathdefault{2.5}$ -->
      <g style="fill: #262626" transform="translate(31.090666 76.223319) scale(0.2 -0.2)">
       <use xlink:href="#CMR17-32" transform="scale(0.996264)"/>
       <use xlink:href="#CMMI12-3a" transform="translate(45.690477 0) scale(0.996264)"/>
       <use xlink:href="#CMR17-35" transform="translate(72.787654 0) scale(0.996264)"/>
      </g>
     </g>
    </g>
    <g id="ytick_6">
     <g id="line2d_10">
      <path d="M 63.086292 27.430471 
L 412.302688 27.430471 
" clip-path="url(#p995736bf5d)" style="fill: none; stroke: #ffffff; stroke-width: 0.8; stroke-linecap: round"/>
     </g>
     <g id="text_11">
      <!-- $\mathdefault{3.0}$ -->
      <g style="fill: #262626" transform="translate(31.090666 34.348969) scale(0.2 -0.2)">
       <defs>
        <path id="CMR17-33" d="M 1414 2157 
C 1984 2157 2234 1662 2234 1090 
C 2234 320 1824 25 1453 25 
C 1114 25 563 194 390 693 
C 422 680 454 680 486 680 
C 640 680 755 782 755 948 
C 755 1133 614 1216 486 1216 
C 378 1216 211 1165 211 926 
C 211 335 787 -128 1466 -128 
C 2176 -128 2720 430 2720 1085 
C 2720 1707 2208 2157 1600 2227 
C 2086 2328 2554 2756 2554 3329 
C 2554 3820 2048 4179 1472 4179 
C 890 4179 378 3829 378 3329 
C 378 3110 544 3072 627 3072 
C 762 3072 877 3155 877 3321 
C 877 3486 762 3569 627 3569 
C 602 3569 570 3569 544 3557 
C 730 3959 1235 4032 1459 4032 
C 1683 4032 2106 3925 2106 3320 
C 2106 3143 2080 2828 1862 2550 
C 1670 2304 1453 2304 1242 2284 
C 1210 2284 1062 2269 1037 2269 
C 992 2263 966 2257 966 2208 
C 966 2163 973 2157 1101 2157 
L 1414 2157 
z
" transform="scale(0.015625)"/>
       </defs>
       <use xlink:href="#CMR17-33" transform="scale(0.996264)"/>
       <use xlink:href="#CMMI12-3a" transform="translate(45.690477 0) scale(0.996264)"/>
       <use xlink:href="#CMR17-30" transform="translate(72.787654 0) scale(0.996264)"/>
      </g>
     </g>
    </g>
    <g id="text_12">
     <!-- Tiempo de ejecucion promedio (seg) -->
     <g style="fill: #262626" transform="translate(22.126022 296.125346) rotate(-90) scale(0.2 -0.2)">
      <defs>
       <path id="CMR17-54" d="M 3981 4326 
L 288 4326 
L 179 2918 
L 294 2918 
C 378 3976 467 4160 1453 4160 
C 1568 4160 1754 4160 1805 4154 
C 1926 4135 1926 4058 1926 3912 
L 1926 459 
C 1926 230 1907 160 1376 160 
L 1197 160 
L 1197 0 
C 1504 0 1824 0 2138 0 
C 2451 0 2771 0 3078 0 
L 3078 160 
L 2899 160 
C 2368 160 2349 230 2349 459 
L 2349 3912 
C 2349 4052 2349 4129 2464 4154 
C 2515 4160 2701 4160 2816 4160 
C 3795 4160 3891 3976 3974 2918 
L 4090 2918 
L 3981 4326 
z
" transform="scale(0.015625)"/>
       <path id="CMR17-69" d="M 992 3909 
C 992 4049 877 4170 730 4170 
C 589 4170 467 4056 467 3909 
C 467 3769 582 3648 730 3648 
C 870 3648 992 3763 992 3909 
z
M 243 2706 
L 243 2541 
C 602 2541 653 2502 653 2197 
L 653 427 
C 653 184 627 153 218 153 
L 218 -13 
C 371 0 646 0 806 0 
C 960 0 1222 0 1370 -13 
L 1370 153 
C 992 153 979 191 979 420 
L 979 2776 
L 243 2706 
z
" transform="scale(0.015625)"/>
       <path id="CMR17-65" d="M 2438 1472 
C 2464 1498 2464 1511 2464 1576 
C 2464 2238 2118 2816 1389 2816 
C 710 2816 173 2169 173 1383 
C 173 551 781 -64 1459 -64 
C 2176 -64 2458 607 2458 740 
C 2458 784 2419 784 2406 784 
C 2362 784 2355 771 2330 696 
C 2189 265 1837 51 1504 51 
C 1229 51 954 203 781 480 
C 582 803 582 1176 582 1472 
L 2438 1472 
z
M 589 1568 
C 634 2505 1126 2714 1382 2714 
C 1818 2714 2112 2297 2118 1568 
L 589 1568 
z
" transform="scale(0.015625)"/>
       <path id="CMR17-6d" d="M 4326 1933 
C 4326 2252 4269 2790 3507 2790 
C 3072 2790 2771 2496 2656 2151 
L 2650 2151 
C 2573 2676 2195 2790 1837 2790 
C 1331 2790 1069 2400 973 2144 
L 966 2144 
L 966 2790 
L 211 2720 
L 211 2554 
C 589 2554 646 2515 646 2208 
L 646 428 
C 646 184 621 153 211 153 
L 211 -13 
C 365 0 646 0 813 0 
C 979 0 1267 0 1421 -13 
L 1421 153 
C 1011 153 986 178 986 428 
L 986 1658 
C 986 2247 1344 2688 1792 2688 
C 2266 2688 2317 2266 2317 1958 
L 2317 428 
C 2317 184 2291 153 1882 153 
L 1882 -13 
C 2035 0 2317 0 2483 0 
C 2650 0 2938 0 3091 -13 
L 3091 153 
C 2682 153 2656 178 2656 428 
L 2656 1658 
C 2656 2247 3014 2688 3462 2688 
C 3936 2688 3987 2266 3987 1958 
L 3987 428 
C 3987 184 3962 153 3552 153 
L 3552 -13 
C 3706 0 3987 0 4154 0 
C 4320 0 4608 0 4762 -13 
L 4762 153 
C 4352 153 4326 178 4326 428 
L 4326 1933 
z
" transform="scale(0.015625)"/>
       <path id="CMR17-70" d="M 1408 -1063 
C 998 -1063 973 -1037 973 -789 
L 973 402 
C 1158 134 1427 -38 1766 -38 
C 2406 -38 3053 523 3053 1388 
C 3053 2191 2496 2802 1837 2802 
C 1453 2802 1139 2592 960 2338 
L 960 2802 
L 198 2732 
L 198 2567 
C 576 2567 634 2528 634 2223 
L 634 -789 
C 634 -1031 608 -1063 198 -1063 
L 198 -1228 
C 352 -1216 634 -1216 800 -1216 
C 966 -1216 1254 -1216 1408 -1228 
L 1408 -1063 
z
M 973 2012 
C 973 2102 973 2235 1222 2471 
C 1254 2497 1472 2688 1792 2688 
C 2259 2688 2643 2108 2643 1382 
C 2643 656 2234 64 1728 64 
C 1498 64 1248 172 1056 472 
C 973 612 973 650 973 752 
L 973 2012 
z
" transform="scale(0.015625)"/>
       <path id="CMR17-6f" d="M 2758 1356 
C 2758 2176 2163 2816 1466 2816 
C 768 2816 173 2176 173 1356 
C 173 551 768 -64 1466 -64 
C 2163 -64 2758 551 2758 1356 
z
M 1466 51 
C 1165 51 909 230 762 480 
C 602 767 582 1126 582 1408 
C 582 1677 595 2010 762 2298 
C 890 2509 1139 2714 1466 2714 
C 1754 2714 1997 2554 2150 2330 
C 2349 2029 2349 1607 2349 1408 
C 2349 1158 2336 775 2163 467 
C 1984 173 1709 51 1466 51 
z
" transform="scale(0.015625)"/>
       <path id="CMR17-64" d="M 1869 4326 
L 1869 4160 
C 2246 4160 2304 4122 2304 3820 
L 2304 2345 
C 2278 2377 2016 2790 1498 2790 
C 845 2790 211 2208 211 1364 
C 211 525 806 -64 1434 -64 
C 1978 -64 2259 337 2291 380 
L 2291 -63 
L 3066 -63 
L 3066 128 
C 2688 128 2630 166 2630 473 
L 2630 4396 
L 1869 4326 
z
M 2291 755 
C 2291 563 2176 390 2029 262 
C 1811 70 1594 38 1472 38 
C 1286 38 621 134 621 1356 
C 621 2612 1363 2688 1530 2688 
C 1824 2688 2061 2522 2208 2291 
C 2291 2157 2291 2138 2291 2023 
L 2291 755 
z
" transform="scale(0.015625)"/>
       <path id="CMR17-6a" d="M 1165 3963 
C 1165 4103 1050 4224 902 4224 
C 762 4224 640 4110 640 3963 
C 640 3823 755 3702 902 3702 
C 1043 3702 1165 3817 1165 3963 
z
M 365 2754 
L 365 2588 
C 787 2588 838 2543 838 2235 
L 838 -359 
C 838 -678 781 -1178 403 -1178 
C 358 -1178 186 -1178 45 -1082 
C 90 -1075 250 -1031 250 -851 
C 250 -729 166 -621 19 -621 
C -122 -621 -211 -717 -211 -858 
C -211 -1114 70 -1280 397 -1280 
C 838 -1280 1165 -877 1165 -332 
L 1165 2825 
L 365 2754 
z
" transform="scale(0.015625)"/>
       <path id="CMR17-63" d="M 2234 2240 
C 2112 2240 1933 2240 1933 2017 
C 1933 1838 2080 1787 2163 1787 
C 2208 1787 2394 1807 2394 2024 
C 2394 2467 1958 2803 1466 2803 
C 787 2803 211 2178 211 1363 
C 211 516 813 -64 1466 -64 
C 2259 -64 2458 677 2458 748 
C 2458 774 2451 793 2406 793 
C 2362 793 2355 787 2330 703 
C 2163 180 1798 51 1523 51 
C 1114 51 621 427 621 1369 
C 621 2338 1094 2688 1472 2688 
C 1722 2688 2093 2573 2234 2240 
z
" transform="scale(0.015625)"/>
       <path id="CMR17-75" d="M 1882 2693 
L 1882 2528 
C 2259 2528 2317 2489 2317 2186 
L 2317 1032 
C 2317 500 2029 38 1555 38 
C 1030 38 986 348 986 678 
L 986 2763 
L 211 2693 
L 211 2528 
C 467 2528 640 2528 646 2274 
L 646 1058 
C 646 633 646 361 813 183 
C 896 101 1056 -64 1517 -64 
C 2061 -64 2272 377 2323 506 
L 2330 506 
L 2330 -63 
L 3091 -63 
L 3091 128 
C 2714 128 2656 166 2656 473 
L 2656 2763 
L 1882 2693 
z
" transform="scale(0.015625)"/>
       <path id="CMR17-6e" d="M 2656 1933 
C 2656 2259 2592 2790 1837 2790 
C 1331 2790 1069 2400 973 2144 
L 966 2144 
L 966 2790 
L 211 2720 
L 211 2554 
C 589 2554 646 2515 646 2208 
L 646 428 
C 646 184 621 153 211 153 
L 211 -13 
C 365 0 646 0 813 0 
C 979 0 1267 0 1421 -13 
L 1421 153 
C 1011 153 986 178 986 428 
L 986 1658 
C 986 2247 1344 2688 1792 2688 
C 2266 2688 2317 2266 2317 1958 
L 2317 428 
C 2317 184 2291 153 1882 153 
L 1882 -13 
C 2035 0 2317 0 2483 0 
C 2650 0 2938 0 3091 -13 
L 3091 153 
C 2682 153 2656 178 2656 428 
L 2656 1933 
z
" transform="scale(0.015625)"/>
       <path id="CMR17-72" d="M 960 1497 
C 960 2112 1222 2688 1702 2688 
C 1747 2688 1792 2682 1837 2662 
C 1837 2662 1696 2617 1696 2452 
C 1696 2298 1818 2234 1914 2234 
C 1990 2234 2131 2279 2131 2458 
C 2131 2663 1926 2790 1709 2790 
C 1222 2790 1011 2317 947 2093 
L 941 2093 
L 941 2790 
L 198 2720 
L 198 2554 
C 576 2554 634 2515 634 2208 
L 634 428 
C 634 184 608 153 198 153 
L 198 -13 
C 352 0 646 0 813 0 
C 998 0 1325 0 1498 -13 
L 1498 153 
C 1037 153 960 153 960 440 
L 960 1497 
z
" transform="scale(0.015625)"/>
       <path id="CMR17-28" d="M 1958 -1561 
C 1958 -1555 1958 -1542 1939 -1523 
C 1645 -1224 858 -407 858 1581 
C 858 3569 1632 4379 1946 4697 
C 1946 4704 1958 4717 1958 4736 
C 1958 4755 1939 4768 1914 4768 
C 1843 4768 1299 4296 986 3594 
C 666 2887 576 2199 576 1588 
C 576 1128 621 351 1005 -471 
C 1312 -1135 1837 -1600 1914 -1600 
C 1946 -1600 1958 -1587 1958 -1561 
z
" transform="scale(0.015625)"/>
       <path id="CMR17-73" d="M 1978 2697 
C 1978 2813 1971 2819 1933 2819 
C 1907 2819 1901 2813 1824 2717 
C 1805 2691 1747 2626 1728 2601 
C 1523 2819 1235 2819 1126 2819 
C 416 2819 160 2447 160 2076 
C 160 1498 813 1365 998 1325 
C 1402 1243 1542 1217 1677 1101 
C 1760 1025 1901 884 1901 654 
C 1901 384 1747 38 1158 38 
C 602 38 403 460 288 1021 
C 269 1110 269 1117 218 1117 
C 166 1117 160 1110 160 983 
L 160 63 
C 160 -51 166 -58 205 -58 
C 237 -58 243 -51 275 0 
C 314 57 410 211 448 276 
C 576 103 800 -64 1158 -64 
C 1792 -64 2131 283 2131 784 
C 2131 1112 1958 1285 1875 1362 
C 1683 1561 1459 1606 1190 1657 
C 838 1735 390 1825 390 2217 
C 390 2383 480 2737 1126 2737 
C 1811 2737 1850 2094 1862 1888 
C 1869 1856 1901 1849 1920 1849 
C 1978 1849 1978 1869 1978 1978 
L 1978 2697 
z
" transform="scale(0.015625)"/>
       <path id="CMR17-67" d="M 710 1164 
C 832 1068 1043 960 1299 960 
C 1805 960 2240 1357 2240 1888 
C 2240 2054 2189 2310 1997 2509 
C 2176 2692 2438 2752 2586 2752 
C 2611 2752 2650 2752 2682 2734 
C 2656 2728 2598 2703 2598 2605 
C 2598 2527 2656 2471 2739 2471 
C 2835 2471 2886 2533 2886 2614 
C 2886 2731 2790 2854 2586 2854 
C 2330 2854 2106 2738 1926 2580 
C 1734 2753 1504 2816 1299 2816 
C 794 2816 358 2419 358 1888 
C 358 1522 570 1292 634 1228 
C 442 1004 442 743 442 711 
C 442 545 506 302 723 168 
C 390 85 128 -169 128 -486 
C 128 -943 736 -1280 1466 -1280 
C 2170 -1280 2803 -956 2803 -479 
C 2803 384 1856 384 1363 384 
C 1216 384 954 384 922 391 
C 723 423 589 602 589 826 
C 589 883 589 1024 710 1164 
z
M 1299 1068 
C 736 1068 736 1760 736 1889 
C 736 2016 736 2708 1299 2708 
C 1862 2708 1862 2016 1862 1889 
C 1862 1760 1862 1068 1299 1068 
z
M 1466 -1171 
C 826 -1171 384 -835 384 -486 
C 384 -289 493 -105 634 -4 
C 794 104 858 104 1293 104 
C 1818 104 2547 104 2547 -486 
C 2547 -835 2106 -1171 1466 -1171 
z
" transform="scale(0.015625)"/>
       <path id="CMR17-29" d="M 1683 1581 
C 1683 2040 1638 2817 1254 3639 
C 947 4303 422 4768 346 4768 
C 326 4768 301 4761 301 4729 
C 301 4717 307 4710 314 4697 
C 621 4378 1402 3568 1402 1584 
C 1402 -407 627 -1217 314 -1537 
C 307 -1549 301 -1556 301 -1568 
C 301 -1600 326 -1600 346 -1600 
C 416 -1600 960 -1128 1274 -426 
C 1594 281 1683 969 1683 1581 
z
" transform="scale(0.015625)"/>
      </defs>
      <use xlink:href="#CMR17-54" transform="scale(0.996264)"/>
      <use xlink:href="#CMR17-69" transform="translate(66.509881 0) scale(0.996264)"/>
      <use xlink:href="#CMR17-65" transform="translate(91.380939 0) scale(0.996264)"/>
      <use xlink:href="#CMR17-6d" transform="translate(131.866599 0) scale(0.996264)"/>
      <use xlink:href="#CMR17-70" transform="translate(208.786189 0) scale(0.996264)"/>
      <use xlink:href="#CMR17-6f" transform="translate(262.283998 0) scale(0.996264)"/>
      <use xlink:href="#CMR17-64" transform="translate(338.050441 0) scale(0.996264)"/>
      <use xlink:href="#CMR17-65" transform="translate(388.945811 0) scale(0.996264)"/>
      <use xlink:href="#CMR17-65" transform="translate(459.507438 0) scale(0.996264)"/>
      <use xlink:href="#CMR17-6a" transform="translate(499.993098 0) scale(0.996264)"/>
      <use xlink:href="#CMR17-65" transform="translate(527.466611 0) scale(0.996264)"/>
      <use xlink:href="#CMR17-63" transform="translate(567.952271 0) scale(0.996264)"/>
      <use xlink:href="#CMR17-75" transform="translate(608.437932 0) scale(0.996264)"/>
      <use xlink:href="#CMR17-63" transform="translate(659.333302 0) scale(0.996264)"/>
      <use xlink:href="#CMR17-69" transform="translate(699.818962 0) scale(0.996264)"/>
      <use xlink:href="#CMR17-6f" transform="translate(724.69002 0) scale(0.996264)"/>
      <use xlink:href="#CMR17-6e" transform="translate(770.380498 0) scale(0.996264)"/>
      <use xlink:href="#CMR17-70" transform="translate(851.351834 0) scale(0.996264)"/>
      <use xlink:href="#CMR17-72" transform="translate(902.247203 0) scale(0.996264)"/>
      <use xlink:href="#CMR17-6f" transform="translate(937.527971 0) scale(0.996264)"/>
      <use xlink:href="#CMR17-6d" transform="translate(983.218448 0) scale(0.996264)"/>
      <use xlink:href="#CMR17-65" transform="translate(1060.138038 0) scale(0.996264)"/>
      <use xlink:href="#CMR17-64" transform="translate(1100.623699 0) scale(0.996264)"/>
      <use xlink:href="#CMR17-69" transform="translate(1151.519069 0) scale(0.996264)"/>
      <use xlink:href="#CMR17-6f" transform="translate(1176.390127 0) scale(0.996264)"/>
      <use xlink:href="#CMR17-28" transform="translate(1252.15657 0) scale(0.996264)"/>
      <use xlink:href="#CMR17-73" transform="translate(1287.437338 0) scale(0.996264)"/>
      <use xlink:href="#CMR17-65" transform="translate(1323.238676 0) scale(0.996264)"/>
      <use xlink:href="#CMR17-67" transform="translate(1363.724336 0) scale(0.996264)"/>
      <use xlink:href="#CMR17-29" transform="translate(1409.414813 0) scale(0.996264)"/>
     </g>
    </g>
    <g id="text_13">
     <!-- $\times\mathdefault{10^{−7}}\mathdefault{}$ -->
     <g style="fill: #262626" transform="translate(63.086292 24.036997) scale(0.2 -0.2)">
      <defs>
       <path id="CMSY10-2" d="M 2490 1785 
L 1210 3059 
C 1133 3136 1120 3148 1069 3148 
C 1005 3148 941 3091 941 3020 
C 941 2976 954 2963 1024 2892 
L 2304 1606 
L 1024 320 
C 954 249 941 236 941 192 
C 941 121 1005 64 1069 64 
C 1120 64 1133 76 1210 153 
L 2483 1427 
L 3808 102 
C 3821 96 3866 64 3904 64 
C 3981 64 4032 121 4032 192 
C 4032 204 4032 230 4013 262 
C 4006 275 2989 1280 2669 1606 
L 3840 2777 
C 3872 2816 3968 2899 4000 2937 
C 4006 2950 4032 2976 4032 3020 
C 4032 3091 3981 3148 3904 3148 
C 3853 3148 3827 3123 3757 3052 
L 2490 1785 
z
" transform="scale(0.015625)"/>
       <path id="CMSY10-0" d="M 4218 1472 
C 4326 1472 4442 1472 4442 1600 
C 4442 1728 4326 1728 4218 1728 
L 755 1728 
C 646 1728 531 1728 531 1600 
C 531 1472 646 1472 755 1472 
L 4218 1472 
z
" transform="scale(0.015625)"/>
      </defs>
      <use xlink:href="#CMSY10-2" transform="scale(0.996264)"/>
      <use xlink:href="#CMR17-31" transform="translate(77.487468 0) scale(0.996264)"/>
      <use xlink:href="#CMR17-30" transform="translate(123.177945 0) scale(0.996264)"/>
      <use xlink:href="#CMSY10-0" transform="translate(168.868422 36.153639) scale(0.697382)"/>
      <use xlink:href="#CMR17-37" transform="translate(223.109415 36.153639) scale(0.697382)"/>
     </g>
    </g>
   </g>
   <g id="line2d_11">
    <path d="M 78.959765 264.125477 
L 100.126384 249.480087 
L 121.293003 234.151703 
L 142.459622 218.783735 
L 163.626241 203.770022 
L 184.79286 188.921762 
L 205.959479 174.696302 
L 227.126098 160.47906 
L 248.292717 146.313671 
L 269.459336 131.873768 
L 290.625956 117.342428 
L 311.792575 102.89406 
L 332.959194 88.468469 
L 354.125813 73.725345 
L 375.292432 59.071531 
L 396.429215 43.772222 
" clip-path="url(#p995736bf5d)" style="fill: none; stroke: #ff7f0e; stroke-width: 1.2; stroke-linecap: round"/>
   </g>
   <g id="LineCollection_1">
    <path d="M 78.959765 264.528005 
L 78.959765 263.556703 
" clip-path="url(#p995736bf5d)" style="fill: none; stroke: #ff7f0e; stroke-width: 1.2; stroke-linecap: round"/>
    <path d="M 100.126384 250.438909 
L 100.126384 247.881583 
" clip-path="url(#p995736bf5d)" style="fill: none; stroke: #ff7f0e; stroke-width: 1.2; stroke-linecap: round"/>
    <path d="M 121.293003 236.002234 
L 121.293003 231.854435 
" clip-path="url(#p995736bf5d)" style="fill: none; stroke: #ff7f0e; stroke-width: 1.2; stroke-linecap: round"/>
    <path d="M 142.459622 221.629191 
L 142.459622 215.133303 
" clip-path="url(#p995736bf5d)" style="fill: none; stroke: #ff7f0e; stroke-width: 1.2; stroke-linecap: round"/>
    <path d="M 163.626241 207.117998 
L 163.626241 199.53092 
" clip-path="url(#p995736bf5d)" style="fill: none; stroke: #ff7f0e; stroke-width: 1.2; stroke-linecap: round"/>
    <path d="M 184.79286 192.926474 
L 184.79286 184.234408 
" clip-path="url(#p995736bf5d)" style="fill: none; stroke: #ff7f0e; stroke-width: 1.2; stroke-linecap: round"/>
    <path d="M 205.959479 178.824447 
L 205.959479 169.485849 
" clip-path="url(#p995736bf5d)" style="fill: none; stroke: #ff7f0e; stroke-width: 1.2; stroke-linecap: round"/>
    <path d="M 227.126098 164.618741 
L 227.126098 155.209353 
" clip-path="url(#p995736bf5d)" style="fill: none; stroke: #ff7f0e; stroke-width: 1.2; stroke-linecap: round"/>
    <path d="M 248.292717 150.368461 
L 248.292717 141.550159 
" clip-path="url(#p995736bf5d)" style="fill: none; stroke: #ff7f0e; stroke-width: 1.2; stroke-linecap: round"/>
    <path d="M 269.459336 135.795442 
L 269.459336 127.231444 
" clip-path="url(#p995736bf5d)" style="fill: none; stroke: #ff7f0e; stroke-width: 1.2; stroke-linecap: round"/>
    <path d="M 290.625956 121.385835 
L 290.625956 112.641738 
" clip-path="url(#p995736bf5d)" style="fill: none; stroke: #ff7f0e; stroke-width: 1.2; stroke-linecap: round"/>
    <path d="M 311.792575 107.459884 
L 311.792575 98.021071 
" clip-path="url(#p995736bf5d)" style="fill: none; stroke: #ff7f0e; stroke-width: 1.2; stroke-linecap: round"/>
    <path d="M 332.959194 93.11148 
L 332.959194 83.177296 
" clip-path="url(#p995736bf5d)" style="fill: none; stroke: #ff7f0e; stroke-width: 1.2; stroke-linecap: round"/>
    <path d="M 354.125813 78.341976 
L 354.125813 68.522391 
" clip-path="url(#p995736bf5d)" style="fill: none; stroke: #ff7f0e; stroke-width: 1.2; stroke-linecap: round"/>
    <path d="M 375.292432 63.514241 
L 375.292432 54.432172 
" clip-path="url(#p995736bf5d)" style="fill: none; stroke: #ff7f0e; stroke-width: 1.2; stroke-linecap: round"/>
    <path d="M 396.429215 48.170776 
L 396.429215 38.365985 
" clip-path="url(#p995736bf5d)" style="fill: none; stroke: #ff7f0e; stroke-width: 1.2; stroke-linecap: round"/>
   </g>
   <g id="line2d_12">
    <path d="M 78.959765 264.591288 
L 100.126384 250.822192 
L 121.293003 236.70522 
L 142.459622 222.545147 
L 163.626241 208.644908 
L 184.79286 194.662229 
L 205.959479 180.684988 
L 227.126098 166.622036 
L 248.292717 152.413586 
L 269.459336 138.276863 
L 290.625956 123.985606 
L 311.792575 109.802346 
L 332.959194 95.573859 
L 354.125813 81.234226 
L 375.292432 67.188612 
L 396.429215 52.991367 
" clip-path="url(#p995736bf5d)" style="fill: none; stroke: #2ca02c; stroke-width: 1.2; stroke-linecap: round"/>
   </g>
   <g id="LineCollection_2">
    <path d="M 78.959765 264.835069 
L 78.959765 264.330912 
" clip-path="url(#p995736bf5d)" style="fill: none; stroke: #2ca02c; stroke-width: 1.2; stroke-linecap: round"/>
    <path d="M 100.126384 251.178581 
L 100.126384 250.499681 
" clip-path="url(#p995736bf5d)" style="fill: none; stroke: #2ca02c; stroke-width: 1.2; stroke-linecap: round"/>
    <path d="M 121.293003 237.180783 
L 121.293003 236.229929 
" clip-path="url(#p995736bf5d)" style="fill: none; stroke: #2ca02c; stroke-width: 1.2; stroke-linecap: round"/>
    <path d="M 142.459622 223.129732 
L 142.459622 221.97061 
" clip-path="url(#p995736bf5d)" style="fill: none; stroke: #2ca02c; stroke-width: 1.2; stroke-linecap: round"/>
    <path d="M 163.626241 209.320075 
L 163.626241 207.977901 
" clip-path="url(#p995736bf5d)" style="fill: none; stroke: #2ca02c; stroke-width: 1.2; stroke-linecap: round"/>
    <path d="M 184.79286 195.32573 
L 184.79286 193.982738 
" clip-path="url(#p995736bf5d)" style="fill: none; stroke: #2ca02c; stroke-width: 1.2; stroke-linecap: round"/>
    <path d="M 205.959479 181.395923 
L 205.959479 180.009433 
" clip-path="url(#p995736bf5d)" style="fill: none; stroke: #2ca02c; stroke-width: 1.2; stroke-linecap: round"/>
    <path d="M 227.126098 167.373311 
L 227.126098 165.814959 
" clip-path="url(#p995736bf5d)" style="fill: none; stroke: #2ca02c; stroke-width: 1.2; stroke-linecap: round"/>
    <path d="M 248.292717 153.270062 
L 248.292717 151.458371 
" clip-path="url(#p995736bf5d)" style="fill: none; stroke: #2ca02c; stroke-width: 1.2; stroke-linecap: round"/>
    <path d="M 269.459336 139.150964 
L 269.459336 137.362139 
" clip-path="url(#p995736bf5d)" style="fill: none; stroke: #2ca02c; stroke-width: 1.2; stroke-linecap: round"/>
    <path d="M 290.625956 125.094295 
L 290.625956 122.842381 
" clip-path="url(#p995736bf5d)" style="fill: none; stroke: #2ca02c; stroke-width: 1.2; stroke-linecap: round"/>
    <path d="M 311.792575 110.92077 
L 311.792575 108.564206 
" clip-path="url(#p995736bf5d)" style="fill: none; stroke: #2ca02c; stroke-width: 1.2; stroke-linecap: round"/>
    <path d="M 332.959194 96.724865 
L 332.959194 94.404884 
" clip-path="url(#p995736bf5d)" style="fill: none; stroke: #2ca02c; stroke-width: 1.2; stroke-linecap: round"/>
    <path d="M 354.125813 82.585195 
L 354.125813 79.967302 
" clip-path="url(#p995736bf5d)" style="fill: none; stroke: #2ca02c; stroke-width: 1.2; stroke-linecap: round"/>
    <path d="M 375.292432 68.577737 
L 375.292432 65.795962 
" clip-path="url(#p995736bf5d)" style="fill: none; stroke: #2ca02c; stroke-width: 1.2; stroke-linecap: round"/>
    <path d="M 396.429215 54.442586 
L 396.429215 51.611974 
" clip-path="url(#p995736bf5d)" style="fill: none; stroke: #2ca02c; stroke-width: 1.2; stroke-linecap: round"/>
   </g>
   <g id="line2d_13">
    <path d="M 78.959765 264.259483 
L 100.126384 250.284164 
L 121.293003 236.13501 
L 142.459622 222.051488 
L 163.626241 207.979008 
L 184.79286 193.96983 
L 205.959479 179.845947 
L 227.126098 165.871323 
L 248.292717 151.939515 
L 269.459336 137.986973 
L 290.625956 123.772145 
L 311.792575 109.868879 
L 332.959194 95.971216 
L 354.125813 82.05372 
L 375.292432 67.790351 
L 396.429215 53.586973 
" clip-path="url(#p995736bf5d)" style="fill: none; stroke: #d62728; stroke-width: 1.2; stroke-linecap: round"/>
   </g>
   <g id="LineCollection_3">
    <path d="M 78.959765 264.43686 
L 78.959765 264.093328 
" clip-path="url(#p995736bf5d)" style="fill: none; stroke: #d62728; stroke-width: 1.2; stroke-linecap: round"/>
    <path d="M 100.126384 250.591499 
L 100.126384 249.967914 
" clip-path="url(#p995736bf5d)" style="fill: none; stroke: #d62728; stroke-width: 1.2; stroke-linecap: round"/>
    <path d="M 121.293003 236.531692 
L 121.293003 235.760477 
" clip-path="url(#p995736bf5d)" style="fill: none; stroke: #d62728; stroke-width: 1.2; stroke-linecap: round"/>
    <path d="M 142.459622 222.419061 
L 142.459622 221.691652 
" clip-path="url(#p995736bf5d)" style="fill: none; stroke: #d62728; stroke-width: 1.2; stroke-linecap: round"/>
    <path d="M 163.626241 208.538841 
L 163.626241 207.436542 
" clip-path="url(#p995736bf5d)" style="fill: none; stroke: #d62728; stroke-width: 1.2; stroke-linecap: round"/>
    <path d="M 184.79286 194.509948 
L 184.79286 193.468071 
" clip-path="url(#p995736bf5d)" style="fill: none; stroke: #d62728; stroke-width: 1.2; stroke-linecap: round"/>
    <path d="M 205.959479 180.368698 
L 205.959479 179.293679 
" clip-path="url(#p995736bf5d)" style="fill: none; stroke: #d62728; stroke-width: 1.2; stroke-linecap: round"/>
    <path d="M 227.126098 166.529556 
L 227.126098 165.288581 
" clip-path="url(#p995736bf5d)" style="fill: none; stroke: #d62728; stroke-width: 1.2; stroke-linecap: round"/>
    <path d="M 248.292717 152.537327 
L 248.292717 151.323453 
" clip-path="url(#p995736bf5d)" style="fill: none; stroke: #d62728; stroke-width: 1.2; stroke-linecap: round"/>
    <path d="M 269.459336 138.618079 
L 269.459336 137.33393 
" clip-path="url(#p995736bf5d)" style="fill: none; stroke: #d62728; stroke-width: 1.2; stroke-linecap: round"/>
    <path d="M 290.625956 124.279758 
L 290.625956 123.206312 
" clip-path="url(#p995736bf5d)" style="fill: none; stroke: #d62728; stroke-width: 1.2; stroke-linecap: round"/>
    <path d="M 311.792575 110.402193 
L 311.792575 109.299994 
" clip-path="url(#p995736bf5d)" style="fill: none; stroke: #d62728; stroke-width: 1.2; stroke-linecap: round"/>
    <path d="M 332.959194 96.499589 
L 332.959194 95.392053 
" clip-path="url(#p995736bf5d)" style="fill: none; stroke: #d62728; stroke-width: 1.2; stroke-linecap: round"/>
    <path d="M 354.125813 82.709259 
L 354.125813 81.321627 
" clip-path="url(#p995736bf5d)" style="fill: none; stroke: #d62728; stroke-width: 1.2; stroke-linecap: round"/>
    <path d="M 375.292432 68.473205 
L 375.292432 67.034362 
" clip-path="url(#p995736bf5d)" style="fill: none; stroke: #d62728; stroke-width: 1.2; stroke-linecap: round"/>
    <path d="M 396.429215 54.344386 
L 396.429215 52.874519 
" clip-path="url(#p995736bf5d)" style="fill: none; stroke: #d62728; stroke-width: 1.2; stroke-linecap: round"/>
   </g>
   <g id="line2d_14">
    <path d="M 78.959765 264.545284 
L 100.126384 250.202215 
L 121.293003 236.1135 
L 142.459622 221.913843 
L 163.626241 207.588317 
L 184.79286 193.014244 
L 205.959479 178.625825 
L 227.126098 164.291916 
L 248.292717 150.172204 
L 269.459336 136.175294 
L 290.625956 121.992853 
L 311.792575 108.118171 
L 332.959194 94.115209 
L 354.125813 79.964173 
L 375.292432 65.815428 
L 396.429215 51.138836 
" clip-path="url(#p995736bf5d)" style="fill: none; stroke: #9467bd; stroke-width: 1.2; stroke-linecap: round"/>
   </g>
   <g id="LineCollection_4">
    <path d="M 78.959765 264.784853 
L 78.959765 264.303058 
" clip-path="url(#p995736bf5d)" style="fill: none; stroke: #9467bd; stroke-width: 1.2; stroke-linecap: round"/>
    <path d="M 100.126384 250.525516 
L 100.126384 249.868959 
" clip-path="url(#p995736bf5d)" style="fill: none; stroke: #9467bd; stroke-width: 1.2; stroke-linecap: round"/>
    <path d="M 121.293003 236.554994 
L 121.293003 235.634683 
" clip-path="url(#p995736bf5d)" style="fill: none; stroke: #9467bd; stroke-width: 1.2; stroke-linecap: round"/>
    <path d="M 142.459622 222.433765 
L 142.459622 221.397298 
" clip-path="url(#p995736bf5d)" style="fill: none; stroke: #9467bd; stroke-width: 1.2; stroke-linecap: round"/>
    <path d="M 163.626241 208.171533 
L 163.626241 206.953034 
" clip-path="url(#p995736bf5d)" style="fill: none; stroke: #9467bd; stroke-width: 1.2; stroke-linecap: round"/>
    <path d="M 184.79286 194.019377 
L 184.79286 191.971512 
" clip-path="url(#p995736bf5d)" style="fill: none; stroke: #9467bd; stroke-width: 1.2; stroke-linecap: round"/>
    <path d="M 205.959479 179.704116 
L 205.959479 177.299373 
" clip-path="url(#p995736bf5d)" style="fill: none; stroke: #9467bd; stroke-width: 1.2; stroke-linecap: round"/>
    <path d="M 227.126098 165.423844 
L 227.126098 162.841855 
" clip-path="url(#p995736bf5d)" style="fill: none; stroke: #9467bd; stroke-width: 1.2; stroke-linecap: round"/>
    <path d="M 248.292717 151.189284 
L 248.292717 148.989984 
" clip-path="url(#p995736bf5d)" style="fill: none; stroke: #9467bd; stroke-width: 1.2; stroke-linecap: round"/>
    <path d="M 269.459336 137.33366 
L 269.459336 134.931773 
" clip-path="url(#p995736bf5d)" style="fill: none; stroke: #9467bd; stroke-width: 1.2; stroke-linecap: round"/>
    <path d="M 290.625956 123.026511 
L 290.625956 120.885958 
" clip-path="url(#p995736bf5d)" style="fill: none; stroke: #9467bd; stroke-width: 1.2; stroke-linecap: round"/>
    <path d="M 311.792575 109.108125 
L 311.792575 106.889134 
" clip-path="url(#p995736bf5d)" style="fill: none; stroke: #9467bd; stroke-width: 1.2; stroke-linecap: round"/>
    <path d="M 332.959194 95.124511 
L 332.959194 92.940518 
" clip-path="url(#p995736bf5d)" style="fill: none; stroke: #9467bd; stroke-width: 1.2; stroke-linecap: round"/>
    <path d="M 354.125813 80.911223 
L 354.125813 78.994362 
" clip-path="url(#p995736bf5d)" style="fill: none; stroke: #9467bd; stroke-width: 1.2; stroke-linecap: round"/>
    <path d="M 375.292432 66.838183 
L 375.292432 64.594558 
" clip-path="url(#p995736bf5d)" style="fill: none; stroke: #9467bd; stroke-width: 1.2; stroke-linecap: round"/>
    <path d="M 396.429215 52.234938 
L 396.429215 49.942223 
" clip-path="url(#p995736bf5d)" style="fill: none; stroke: #9467bd; stroke-width: 1.2; stroke-linecap: round"/>
   </g>
   <g id="line2d_15"/>
   <g id="line2d_16"/>
   <g id="line2d_17"/>
   <g id="line2d_18"/>
   <g id="line2d_19">
    <path d="M 276.273466 276.274739 
L 276.273466 27.036997 
" clip-path="url(#p995736bf5d)" style="fill: none; stroke-dasharray: 1.2,1.98; stroke-dashoffset: 0; stroke: #000000; stroke-width: 1.2"/>
   </g>
   <g id="line2d_20"/>
   <g id="line2d_21"/>
   <g id="line2d_22"/>
   <g id="line2d_23"/>
   <g id="patch_3">
    <path d="M 63.086292 276.274739 
L 63.086292 27.036997 
" style="fill: none; stroke: #ffffff; stroke-linejoin: miter; stroke-linecap: square"/>
   </g>
   <g id="patch_4">
    <path d="M 63.086292 276.274739 
L 412.302688 276.274739 
" style="fill: none; stroke: #ffffff; stroke-linejoin: miter; stroke-linecap: square"/>
   </g>
   <g id="text_14">
    <!-- union_strategy = QU -->
    <g style="fill: #262626" transform="translate(152.63433 21.036997) scale(0.2 -0.2)">
     <defs>
      <path id="CMR17-74" d="M 966 2560 
L 1862 2560 
L 1862 2725 
L 966 2725 
L 966 3904 
L 851 3904 
C 838 3245 614 2668 70 2668 
L 70 2560 
L 627 2560 
L 627 771 
C 627 650 627 -64 1370 -64 
C 1747 -64 1965 306 1965 777 
L 1965 1140 
L 1850 1140 
L 1850 783 
C 1850 344 1677 51 1408 51 
C 1222 51 966 178 966 758 
L 966 2560 
z
" transform="scale(0.015625)"/>
      <path id="CMR17-61" d="M 2304 1653 
C 2304 2072 2304 2294 2035 2543 
C 1798 2752 1523 2816 1306 2816 
C 800 2816 435 2407 435 1971 
C 435 1728 627 1728 666 1728 
C 749 1728 896 1778 896 1954 
C 896 2112 774 2181 666 2181 
C 640 2181 608 2174 589 2168 
C 723 2592 1069 2714 1293 2714 
C 1613 2714 1965 2429 1965 1885 
L 1965 1600 
C 1587 1600 1133 1549 774 1357 
C 371 1133 256 813 256 570 
C 256 77 832 -64 1171 -64 
C 1523 -64 1850 139 1990 511 
C 2003 233 2182 -18 2464 -18 
C 2598 -18 2938 70 2938 567 
L 2938 920 
L 2822 920 
L 2822 562 
C 2822 178 2650 128 2566 128 
C 2304 128 2304 458 2304 738 
L 2304 1653 
z
M 1965 870 
C 1965 317 1568 38 1216 38 
C 896 38 646 275 646 570 
C 646 761 730 1100 1101 1305 
C 1408 1478 1760 1504 1965 1504 
L 1965 870 
z
" transform="scale(0.015625)"/>
      <path id="CMR17-79" d="M 2496 2197 
C 2656 2586 2944 2586 3034 2586 
L 3034 2752 
C 2912 2752 2752 2752 2630 2752 
C 2496 2752 2285 2752 2157 2758 
L 2157 2592 
C 2400 2573 2406 2394 2406 2343 
C 2406 2280 2394 2248 2362 2171 
L 1664 449 
L 902 2306 
C 870 2382 870 2426 870 2433 
C 870 2573 1018 2586 1171 2586 
L 1171 2758 
C 1018 2752 742 2752 582 2752 
C 410 2752 205 2752 64 2758 
L 64 2586 
C 410 2586 448 2554 531 2350 
L 1485 15 
C 1197 -738 1030 -1178 627 -1178 
C 557 -1178 397 -1159 282 -1044 
C 429 -1031 493 -942 493 -833 
C 493 -725 416 -629 288 -629 
C 147 -629 77 -725 77 -840 
C 77 -1095 339 -1280 627 -1280 
C 998 -1280 1229 -922 1357 -604 
L 2496 2197 
z
" transform="scale(0.015625)"/>
      <path id="CMR17-3d" d="M 4115 2017 
C 4211 2017 4307 2017 4307 2125 
C 4307 2240 4198 2240 4090 2240 
L 512 2240 
C 403 2240 294 2240 294 2125 
C 294 2017 390 2017 486 2017 
L 4115 2017 
z
M 4090 896 
C 4198 896 4307 896 4307 1011 
C 4307 1119 4211 1119 4115 1119 
L 486 1119 
C 390 1119 294 1119 294 1011 
C 294 896 403 896 512 896 
L 4090 896 
z
" transform="scale(0.015625)"/>
      <path id="CMR17-51" d="M 3027 83 
C 3789 408 4307 1236 4307 2193 
C 4307 3499 3366 4480 2304 4480 
C 1216 4480 294 3488 294 2199 
C 294 928 1216 -64 2304 -64 
C 2451 -64 2656 -45 2899 38 
C 3008 -747 3078 -1216 3629 -1216 
C 4307 -1216 4339 -213 4339 -33 
C 4339 32 4339 76 4294 76 
C 4262 76 4256 31 4256 18 
C 4211 -603 3866 -732 3661 -732 
C 3283 -732 3149 -394 3027 83 
z
M 1958 100 
C 1293 310 768 1017 768 2199 
C 768 3711 1606 4365 2298 4365 
C 3014 4365 3834 3686 3834 2198 
C 3834 1124 3405 527 2976 254 
C 2880 579 2726 960 2310 960 
C 2003 960 1830 692 1830 450 
C 1830 304 1888 183 1958 100 
z
M 2874 192 
C 2618 57 2413 57 2304 57 
C 2016 57 1933 315 1933 454 
C 1933 650 2067 858 2310 858 
C 2720 858 2822 493 2874 192 
z
" transform="scale(0.015625)"/>
      <path id="CMR17-55" d="M 3456 1433 
C 3456 579 2899 38 2291 38 
C 1965 38 1670 210 1491 477 
C 1286 783 1261 1178 1261 1401 
L 1261 3874 
C 1261 4160 1331 4160 1773 4160 
L 1773 4320 
C 1587 4320 1248 4320 1050 4320 
C 851 4320 512 4320 326 4320 
L 326 4160 
C 768 4160 838 4160 838 3874 
L 838 1433 
C 838 516 1536 -128 2278 -128 
C 3110 -128 3590 719 3590 1344 
L 3590 3766 
C 3590 4122 3917 4160 4102 4160 
L 4102 4326 
C 3955 4320 3686 4320 3526 4320 
C 3366 4320 3091 4320 2944 4326 
L 2944 4160 
C 3456 4160 3456 3861 3456 3702 
L 3456 1433 
z
" transform="scale(0.015625)"/>
     </defs>
     <use xlink:href="#CMR17-75" transform="scale(0.996264)"/>
     <use xlink:href="#CMR17-6e" transform="translate(50.89537 0) scale(0.996264)"/>
     <use xlink:href="#CMR17-69" transform="translate(101.79074 0) scale(0.996264)"/>
     <use xlink:href="#CMR17-6f" transform="translate(126.661798 0) scale(0.996264)"/>
     <use xlink:href="#CMR17-6e" transform="translate(172.352275 0) scale(0.996264)"/>
     <use xlink:href="#CMR17-73" transform="translate(256.144864 0) scale(0.996264)"/>
     <use xlink:href="#CMR17-74" transform="translate(291.946202 0) scale(0.996264)"/>
     <use xlink:href="#CMR17-72" transform="translate(327.22697 0) scale(0.996264)"/>
     <use xlink:href="#CMR17-61" transform="translate(362.507738 0) scale(0.996264)"/>
     <use xlink:href="#CMR17-74" transform="translate(408.198215 0) scale(0.996264)"/>
     <use xlink:href="#CMR17-65" transform="translate(443.478983 0) scale(0.996264)"/>
     <use xlink:href="#CMR17-67" transform="translate(483.964643 0) scale(0.996264)"/>
     <use xlink:href="#CMR17-79" transform="translate(529.65512 0) scale(0.996264)"/>
     <use xlink:href="#CMR17-3d" transform="translate(608.024002 0) scale(0.996264)"/>
     <use xlink:href="#CMR17-51" transform="translate(709.814757 0) scale(0.996264)"/>
     <use xlink:href="#CMR17-55" transform="translate(781.529546 0) scale(0.996264)"/>
     <path d="M 228.730274 0 
L 256.144864 0 
L 256.144864 0.3985 
L 228.730274 0.3985 
L 228.730274 0 
z
"/>
    </g>
   </g>
  </g>
  <g id="axes_2">
   <g id="patch_5">
    <path d="M 433.902688 276.274739 
L 783.119083 276.274739 
L 783.119083 27.036997 
L 433.902688 27.036997 
z
" style="fill: #eaeaf2"/>
   </g>
   <g id="matplotlib.axis_3">
    <g id="xtick_5">
     <g id="line2d_24">
      <path d="M 513.276018 276.274739 
L 513.276018 27.036997 
" clip-path="url(#pec3df4dd84)" style="fill: none; stroke: #ffffff; stroke-width: 0.8; stroke-linecap: round"/>
     </g>
     <g id="text_15">
      <!-- $\mathdefault{2^{7}}$ -->
      <g style="fill: #262626" transform="translate(505.292741 298.411736) scale(0.2 -0.2)">
       <use xlink:href="#CMR17-32" transform="scale(0.996264)"/>
       <use xlink:href="#CMR17-37" transform="translate(45.690477 36.153639) scale(0.697382)"/>
      </g>
     </g>
    </g>
    <g id="xtick_6">
     <g id="line2d_25">
      <path d="M 597.942494 276.274739 
L 597.942494 27.036997 
" clip-path="url(#pec3df4dd84)" style="fill: none; stroke: #ffffff; stroke-width: 0.8; stroke-linecap: round"/>
     </g>
     <g id="text_16">
      <!-- $\mathdefault{2^{11}}$ -->
      <g style="fill: #262626" transform="translate(586.544988 298.411736) scale(0.2 -0.2)">
       <use xlink:href="#CMR17-32" transform="scale(0.996264)"/>
       <use xlink:href="#CMR17-31" transform="translate(45.690477 36.153639) scale(0.697382)"/>
       <use xlink:href="#CMR17-31" transform="translate(77.673659 36.153639) scale(0.697382)"/>
      </g>
     </g>
    </g>
    <g id="xtick_7">
     <g id="line2d_26">
      <path d="M 682.60897 276.274739 
L 682.60897 27.036997 
" clip-path="url(#pec3df4dd84)" style="fill: none; stroke: #ffffff; stroke-width: 0.8; stroke-linecap: round"/>
     </g>
     <g id="text_17">
      <!-- $\mathdefault{2^{15}}$ -->
      <g style="fill: #262626" transform="translate(671.211464 298.411736) scale(0.2 -0.2)">
       <use xlink:href="#CMR17-32" transform="scale(0.996264)"/>
       <use xlink:href="#CMR17-31" transform="translate(45.690477 36.153639) scale(0.697382)"/>
       <use xlink:href="#CMR17-35" transform="translate(77.673659 36.153639) scale(0.697382)"/>
      </g>
     </g>
    </g>
    <g id="xtick_8">
     <g id="line2d_27">
      <path d="M 767.275447 276.274739 
L 767.275447 27.036997 
" clip-path="url(#pec3df4dd84)" style="fill: none; stroke: #ffffff; stroke-width: 0.8; stroke-linecap: round"/>
     </g>
     <g id="text_18">
      <!-- $\mathdefault{2^{19}}$ -->
      <g style="fill: #262626" transform="translate(755.877941 298.411736) scale(0.2 -0.2)">
       <use xlink:href="#CMR17-32" transform="scale(0.996264)"/>
       <use xlink:href="#CMR17-31" transform="translate(45.690477 36.153639) scale(0.697382)"/>
       <use xlink:href="#CMR17-39" transform="translate(77.673659 36.153639) scale(0.697382)"/>
      </g>
     </g>
    </g>
    <g id="text_19">
     <!-- N -->
     <g style="fill: #262626" transform="translate(601.603644 320.124366) scale(0.2 -0.2)">
      <use xlink:href="#CMR17-4e" transform="scale(0.996264)"/>
     </g>
    </g>
   </g>
   <g id="matplotlib.axis_4">
    <g id="ytick_7">
     <g id="line2d_28">
      <path d="M 433.902688 236.802218 
L 783.119083 236.802218 
" clip-path="url(#pec3df4dd84)" style="fill: none; stroke: #ffffff; stroke-width: 0.8; stroke-linecap: round"/>
     </g>
    </g>
    <g id="ytick_8">
     <g id="line2d_29">
      <path d="M 433.902688 194.927869 
L 783.119083 194.927869 
" clip-path="url(#pec3df4dd84)" style="fill: none; stroke: #ffffff; stroke-width: 0.8; stroke-linecap: round"/>
     </g>
    </g>
    <g id="ytick_9">
     <g id="line2d_30">
      <path d="M 433.902688 153.053519 
L 783.119083 153.053519 
" clip-path="url(#pec3df4dd84)" style="fill: none; stroke: #ffffff; stroke-width: 0.8; stroke-linecap: round"/>
     </g>
    </g>
    <g id="ytick_10">
     <g id="line2d_31">
      <path d="M 433.902688 111.17917 
L 783.119083 111.17917 
" clip-path="url(#pec3df4dd84)" style="fill: none; stroke: #ffffff; stroke-width: 0.8; stroke-linecap: round"/>
     </g>
    </g>
    <g id="ytick_11">
     <g id="line2d_32">
      <path d="M 433.902688 69.304821 
L 783.119083 69.304821 
" clip-path="url(#pec3df4dd84)" style="fill: none; stroke: #ffffff; stroke-width: 0.8; stroke-linecap: round"/>
     </g>
    </g>
    <g id="ytick_12">
     <g id="line2d_33">
      <path d="M 433.902688 27.430471 
L 783.119083 27.430471 
" clip-path="url(#pec3df4dd84)" style="fill: none; stroke: #ffffff; stroke-width: 0.8; stroke-linecap: round"/>
     </g>
    </g>
   </g>
   <g id="line2d_34">
    <path d="M 449.77616 264.680639 
L 470.942779 250.567225 
L 492.109398 236.493395 
L 513.276018 222.011086 
L 534.442637 207.8147 
L 555.609256 193.82102 
L 576.775875 179.752916 
L 597.942494 165.582497 
L 619.109113 150.917232 
L 640.275732 136.575063 
L 661.442351 122.444311 
L 682.60897 108.287877 
L 703.775589 94.248479 
L 724.942209 79.983761 
L 746.108828 66.084789 
L 767.245611 51.834261 
" clip-path="url(#pec3df4dd84)" style="fill: none; stroke: #ff7f0e; stroke-width: 1.2; stroke-linecap: round"/>
   </g>
   <g id="LineCollection_5">
    <path d="M 449.77616 264.877888 
L 449.77616 264.469499 
" clip-path="url(#pec3df4dd84)" style="fill: none; stroke: #ff7f0e; stroke-width: 1.2; stroke-linecap: round"/>
    <path d="M 470.942779 250.878193 
L 470.942779 250.262215 
" clip-path="url(#pec3df4dd84)" style="fill: none; stroke: #ff7f0e; stroke-width: 1.2; stroke-linecap: round"/>
    <path d="M 492.109398 236.93863 
L 492.109398 236.05436 
" clip-path="url(#pec3df4dd84)" style="fill: none; stroke: #ff7f0e; stroke-width: 1.2; stroke-linecap: round"/>
    <path d="M 513.276018 222.781648 
L 513.276018 221.028336 
" clip-path="url(#pec3df4dd84)" style="fill: none; stroke: #ff7f0e; stroke-width: 1.2; stroke-linecap: round"/>
    <path d="M 534.442637 208.659446 
L 534.442637 206.688052 
" clip-path="url(#pec3df4dd84)" style="fill: none; stroke: #ff7f0e; stroke-width: 1.2; stroke-linecap: round"/>
    <path d="M 555.609256 194.736039 
L 555.609256 192.69319 
" clip-path="url(#pec3df4dd84)" style="fill: none; stroke: #ff7f0e; stroke-width: 1.2; stroke-linecap: round"/>
    <path d="M 576.775875 180.614478 
L 576.775875 178.640339 
" clip-path="url(#pec3df4dd84)" style="fill: none; stroke: #ff7f0e; stroke-width: 1.2; stroke-linecap: round"/>
    <path d="M 597.942494 166.547572 
L 597.942494 164.360124 
" clip-path="url(#pec3df4dd84)" style="fill: none; stroke: #ff7f0e; stroke-width: 1.2; stroke-linecap: round"/>
    <path d="M 619.109113 152.398324 
L 619.109113 149.107907 
" clip-path="url(#pec3df4dd84)" style="fill: none; stroke: #ff7f0e; stroke-width: 1.2; stroke-linecap: round"/>
    <path d="M 640.275732 138.002151 
L 640.275732 134.811022 
" clip-path="url(#pec3df4dd84)" style="fill: none; stroke: #ff7f0e; stroke-width: 1.2; stroke-linecap: round"/>
    <path d="M 661.442351 123.87747 
L 661.442351 120.62512 
" clip-path="url(#pec3df4dd84)" style="fill: none; stroke: #ff7f0e; stroke-width: 1.2; stroke-linecap: round"/>
    <path d="M 682.60897 109.740081 
L 682.60897 106.604766 
" clip-path="url(#pec3df4dd84)" style="fill: none; stroke: #ff7f0e; stroke-width: 1.2; stroke-linecap: round"/>
    <path d="M 703.775589 95.781721 
L 703.775589 92.467914 
" clip-path="url(#pec3df4dd84)" style="fill: none; stroke: #ff7f0e; stroke-width: 1.2; stroke-linecap: round"/>
    <path d="M 724.942209 81.386494 
L 724.942209 78.37421 
" clip-path="url(#pec3df4dd84)" style="fill: none; stroke: #ff7f0e; stroke-width: 1.2; stroke-linecap: round"/>
    <path d="M 746.108828 67.455467 
L 746.108828 64.450407 
" clip-path="url(#pec3df4dd84)" style="fill: none; stroke: #ff7f0e; stroke-width: 1.2; stroke-linecap: round"/>
    <path d="M 767.245611 53.156443 
L 767.245611 50.18079 
" clip-path="url(#pec3df4dd84)" style="fill: none; stroke: #ff7f0e; stroke-width: 1.2; stroke-linecap: round"/>
   </g>
   <g id="line2d_35">
    <path d="M 449.77616 264.58818 
L 470.942779 250.368322 
L 492.109398 236.050607 
L 513.276018 222.2389 
L 534.442637 208.010536 
L 555.609256 193.799592 
L 576.775875 179.548287 
L 597.942494 165.474171 
L 619.109113 151.199925 
L 640.275732 137.042919 
L 661.442351 122.928933 
L 682.60897 108.637348 
L 703.775589 94.800165 
L 724.942209 80.657267 
L 746.108828 66.551378 
L 767.245611 52.620141 
" clip-path="url(#pec3df4dd84)" style="fill: none; stroke: #2ca02c; stroke-width: 1.2; stroke-linecap: round"/>
   </g>
   <g id="LineCollection_6">
    <path d="M 449.77616 264.848136 
L 449.77616 264.32795 
" clip-path="url(#pec3df4dd84)" style="fill: none; stroke: #2ca02c; stroke-width: 1.2; stroke-linecap: round"/>
    <path d="M 470.942779 250.868353 
L 470.942779 249.833195 
" clip-path="url(#pec3df4dd84)" style="fill: none; stroke: #2ca02c; stroke-width: 1.2; stroke-linecap: round"/>
    <path d="M 492.109398 236.525751 
L 492.109398 235.571532 
" clip-path="url(#pec3df4dd84)" style="fill: none; stroke: #2ca02c; stroke-width: 1.2; stroke-linecap: round"/>
    <path d="M 513.276018 222.798633 
L 513.276018 221.682447 
" clip-path="url(#pec3df4dd84)" style="fill: none; stroke: #2ca02c; stroke-width: 1.2; stroke-linecap: round"/>
    <path d="M 534.442637 208.587484 
L 534.442637 207.416309 
" clip-path="url(#pec3df4dd84)" style="fill: none; stroke: #2ca02c; stroke-width: 1.2; stroke-linecap: round"/>
    <path d="M 555.609256 194.357976 
L 555.609256 193.200671 
" clip-path="url(#pec3df4dd84)" style="fill: none; stroke: #2ca02c; stroke-width: 1.2; stroke-linecap: round"/>
    <path d="M 576.775875 180.116482 
L 576.775875 178.946721 
" clip-path="url(#pec3df4dd84)" style="fill: none; stroke: #2ca02c; stroke-width: 1.2; stroke-linecap: round"/>
    <path d="M 597.942494 165.969055 
L 597.942494 164.906769 
" clip-path="url(#pec3df4dd84)" style="fill: none; stroke: #2ca02c; stroke-width: 1.2; stroke-linecap: round"/>
    <path d="M 619.109113 151.774874 
L 619.109113 150.59488 
" clip-path="url(#pec3df4dd84)" style="fill: none; stroke: #2ca02c; stroke-width: 1.2; stroke-linecap: round"/>
    <path d="M 640.275732 137.634669 
L 640.275732 136.378031 
" clip-path="url(#pec3df4dd84)" style="fill: none; stroke: #2ca02c; stroke-width: 1.2; stroke-linecap: round"/>
    <path d="M 661.442351 123.527974 
L 661.442351 122.346809 
" clip-path="url(#pec3df4dd84)" style="fill: none; stroke: #2ca02c; stroke-width: 1.2; stroke-linecap: round"/>
    <path d="M 682.60897 109.240376 
L 682.60897 108.019953 
" clip-path="url(#pec3df4dd84)" style="fill: none; stroke: #2ca02c; stroke-width: 1.2; stroke-linecap: round"/>
    <path d="M 703.775589 95.597782 
L 703.775589 94.013495 
" clip-path="url(#pec3df4dd84)" style="fill: none; stroke: #2ca02c; stroke-width: 1.2; stroke-linecap: round"/>
    <path d="M 724.942209 81.436232 
L 724.942209 79.910668 
" clip-path="url(#pec3df4dd84)" style="fill: none; stroke: #2ca02c; stroke-width: 1.2; stroke-linecap: round"/>
    <path d="M 746.108828 67.395835 
L 746.108828 65.793732 
" clip-path="url(#pec3df4dd84)" style="fill: none; stroke: #2ca02c; stroke-width: 1.2; stroke-linecap: round"/>
    <path d="M 767.245611 53.464234 
L 767.245611 51.85476 
" clip-path="url(#pec3df4dd84)" style="fill: none; stroke: #2ca02c; stroke-width: 1.2; stroke-linecap: round"/>
   </g>
   <g id="line2d_36">
    <path d="M 449.77616 264.619504 
L 470.942779 250.485603 
L 492.109398 236.240268 
L 513.276018 222.306374 
L 534.442637 207.984119 
L 555.609256 193.6992 
L 576.775875 179.662379 
L 597.942494 165.331373 
L 619.109113 151.114664 
L 640.275732 137.220926 
L 661.442351 122.621745 
L 682.60897 108.156202 
L 703.775589 93.647967 
L 724.942209 79.485644 
L 746.108828 64.908709 
L 767.245611 50.689423 
" clip-path="url(#pec3df4dd84)" style="fill: none; stroke: #d62728; stroke-width: 1.2; stroke-linecap: round"/>
   </g>
   <g id="LineCollection_7">
    <path d="M 449.77616 264.844899 
L 449.77616 264.385828 
" clip-path="url(#pec3df4dd84)" style="fill: none; stroke: #d62728; stroke-width: 1.2; stroke-linecap: round"/>
    <path d="M 470.942779 250.955187 
L 470.942779 250.016713 
" clip-path="url(#pec3df4dd84)" style="fill: none; stroke: #d62728; stroke-width: 1.2; stroke-linecap: round"/>
    <path d="M 492.109398 236.77461 
L 492.109398 235.663353 
" clip-path="url(#pec3df4dd84)" style="fill: none; stroke: #d62728; stroke-width: 1.2; stroke-linecap: round"/>
    <path d="M 513.276018 222.885873 
L 513.276018 221.745687 
" clip-path="url(#pec3df4dd84)" style="fill: none; stroke: #d62728; stroke-width: 1.2; stroke-linecap: round"/>
    <path d="M 534.442637 208.638418 
L 534.442637 207.277181 
" clip-path="url(#pec3df4dd84)" style="fill: none; stroke: #d62728; stroke-width: 1.2; stroke-linecap: round"/>
    <path d="M 555.609256 194.469273 
L 555.609256 192.934261 
" clip-path="url(#pec3df4dd84)" style="fill: none; stroke: #d62728; stroke-width: 1.2; stroke-linecap: round"/>
    <path d="M 576.775875 180.37853 
L 576.775875 178.939647 
" clip-path="url(#pec3df4dd84)" style="fill: none; stroke: #d62728; stroke-width: 1.2; stroke-linecap: round"/>
    <path d="M 597.942494 166.086367 
L 597.942494 164.55918 
" clip-path="url(#pec3df4dd84)" style="fill: none; stroke: #d62728; stroke-width: 1.2; stroke-linecap: round"/>
    <path d="M 619.109113 151.901611 
L 619.109113 150.287648 
" clip-path="url(#pec3df4dd84)" style="fill: none; stroke: #d62728; stroke-width: 1.2; stroke-linecap: round"/>
    <path d="M 640.275732 138.014534 
L 640.275732 136.45116 
" clip-path="url(#pec3df4dd84)" style="fill: none; stroke: #d62728; stroke-width: 1.2; stroke-linecap: round"/>
    <path d="M 661.442351 123.634756 
L 661.442351 121.502604 
" clip-path="url(#pec3df4dd84)" style="fill: none; stroke: #d62728; stroke-width: 1.2; stroke-linecap: round"/>
    <path d="M 682.60897 109.538141 
L 682.60897 106.714138 
" clip-path="url(#pec3df4dd84)" style="fill: none; stroke: #d62728; stroke-width: 1.2; stroke-linecap: round"/>
    <path d="M 703.775589 95.093779 
L 703.775589 92.068283 
" clip-path="url(#pec3df4dd84)" style="fill: none; stroke: #d62728; stroke-width: 1.2; stroke-linecap: round"/>
    <path d="M 724.942209 80.933415 
L 724.942209 77.839672 
" clip-path="url(#pec3df4dd84)" style="fill: none; stroke: #d62728; stroke-width: 1.2; stroke-linecap: round"/>
    <path d="M 746.108828 66.492564 
L 746.108828 63.152195 
" clip-path="url(#pec3df4dd84)" style="fill: none; stroke: #d62728; stroke-width: 1.2; stroke-linecap: round"/>
    <path d="M 767.245611 52.27505 
L 767.245611 49.061862 
" clip-path="url(#pec3df4dd84)" style="fill: none; stroke: #d62728; stroke-width: 1.2; stroke-linecap: round"/>
   </g>
   <g id="line2d_37">
    <path d="M 449.77616 264.291707 
L 470.942779 250.134864 
L 492.109398 235.841276 
L 513.276018 221.96729 
L 534.442637 207.970134 
L 555.609256 193.94145 
L 576.775875 179.55896 
L 597.942494 165.347608 
L 619.109113 151.139935 
L 640.275732 136.94633 
L 661.442351 122.555008 
L 682.60897 108.304193 
L 703.775589 94.207423 
L 724.942209 80.005271 
L 746.108828 65.714995 
L 767.245611 51.892656 
" clip-path="url(#pec3df4dd84)" style="fill: none; stroke: #9467bd; stroke-width: 1.2; stroke-linecap: round"/>
   </g>
   <g id="LineCollection_8">
    <path d="M 449.77616 264.563035 
L 449.77616 264.051977 
" clip-path="url(#pec3df4dd84)" style="fill: none; stroke: #9467bd; stroke-width: 1.2; stroke-linecap: round"/>
    <path d="M 470.942779 250.480643 
L 470.942779 249.76838 
" clip-path="url(#pec3df4dd84)" style="fill: none; stroke: #9467bd; stroke-width: 1.2; stroke-linecap: round"/>
    <path d="M 492.109398 236.299797 
L 492.109398 235.398665 
" clip-path="url(#pec3df4dd84)" style="fill: none; stroke: #9467bd; stroke-width: 1.2; stroke-linecap: round"/>
    <path d="M 513.276018 222.528566 
L 513.276018 221.404988 
" clip-path="url(#pec3df4dd84)" style="fill: none; stroke: #9467bd; stroke-width: 1.2; stroke-linecap: round"/>
    <path d="M 534.442637 208.66044 
L 534.442637 207.328722 
" clip-path="url(#pec3df4dd84)" style="fill: none; stroke: #9467bd; stroke-width: 1.2; stroke-linecap: round"/>
    <path d="M 555.609256 194.788359 
L 555.609256 193.116678 
" clip-path="url(#pec3df4dd84)" style="fill: none; stroke: #9467bd; stroke-width: 1.2; stroke-linecap: round"/>
    <path d="M 576.775875 180.734151 
L 576.775875 178.272566 
" clip-path="url(#pec3df4dd84)" style="fill: none; stroke: #9467bd; stroke-width: 1.2; stroke-linecap: round"/>
    <path d="M 597.942494 166.492203 
L 597.942494 163.941876 
" clip-path="url(#pec3df4dd84)" style="fill: none; stroke: #9467bd; stroke-width: 1.2; stroke-linecap: round"/>
    <path d="M 619.109113 152.43115 
L 619.109113 149.751278 
" clip-path="url(#pec3df4dd84)" style="fill: none; stroke: #9467bd; stroke-width: 1.2; stroke-linecap: round"/>
    <path d="M 640.275732 138.169795 
L 640.275732 135.36425 
" clip-path="url(#pec3df4dd84)" style="fill: none; stroke: #9467bd; stroke-width: 1.2; stroke-linecap: round"/>
    <path d="M 661.442351 123.857614 
L 661.442351 121.055118 
" clip-path="url(#pec3df4dd84)" style="fill: none; stroke: #9467bd; stroke-width: 1.2; stroke-linecap: round"/>
    <path d="M 682.60897 109.699083 
L 682.60897 106.678103 
" clip-path="url(#pec3df4dd84)" style="fill: none; stroke: #9467bd; stroke-width: 1.2; stroke-linecap: round"/>
    <path d="M 703.775589 95.628188 
L 703.775589 92.573853 
" clip-path="url(#pec3df4dd84)" style="fill: none; stroke: #9467bd; stroke-width: 1.2; stroke-linecap: round"/>
    <path d="M 724.942209 81.360368 
L 724.942209 78.521835 
" clip-path="url(#pec3df4dd84)" style="fill: none; stroke: #9467bd; stroke-width: 1.2; stroke-linecap: round"/>
    <path d="M 746.108828 67.053728 
L 746.108828 64.29201 
" clip-path="url(#pec3df4dd84)" style="fill: none; stroke: #9467bd; stroke-width: 1.2; stroke-linecap: round"/>
    <path d="M 767.245611 53.255089 
L 767.245611 50.525465 
" clip-path="url(#pec3df4dd84)" style="fill: none; stroke: #9467bd; stroke-width: 1.2; stroke-linecap: round"/>
   </g>
   <g id="line2d_38">
    <path d="M 647.089861 276.274739 
L 647.089861 27.036997 
" clip-path="url(#pec3df4dd84)" style="fill: none; stroke-dasharray: 1.2,1.98; stroke-dashoffset: 0; stroke: #000000; stroke-width: 1.2"/>
   </g>
   <g id="line2d_39"/>
   <g id="line2d_40"/>
   <g id="line2d_41"/>
   <g id="line2d_42"/>
   <g id="patch_6">
    <path d="M 433.902688 276.274739 
L 433.902688 27.036997 
" style="fill: none; stroke: #ffffff; stroke-linejoin: miter; stroke-linecap: square"/>
   </g>
   <g id="patch_7">
    <path d="M 433.902688 276.274739 
L 783.119083 276.274739 
" style="fill: none; stroke: #ffffff; stroke-linejoin: miter; stroke-linecap: square"/>
   </g>
   <g id="text_20">
    <!-- union_strategy = UW -->
    <g style="fill: #262626" transform="translate(521.11254 21.036997) scale(0.2 -0.2)">
     <defs>
      <path id="CMR17-57" d="M 5523 3764 
C 5581 3936 5677 4160 6048 4160 
L 6048 4326 
C 5939 4326 5715 4326 5600 4326 
C 5440 4326 5158 4326 5005 4332 
L 5005 4160 
C 5293 4160 5414 4000 5414 3847 
C 5414 3802 5408 3777 5382 3707 
L 4390 555 
L 3347 3873 
C 3328 3937 3322 3963 3322 3988 
C 3322 4160 3603 4160 3725 4160 
L 3725 4326 
C 3539 4326 3219 4326 3021 4326 
C 2861 4326 2573 4326 2426 4332 
L 2426 4160 
C 2720 4160 2797 4141 2861 4027 
C 2886 3969 2989 3638 2989 3619 
C 2989 3593 2976 3555 2970 3536 
L 2029 561 
L 986 3867 
C 954 3957 954 3969 954 3982 
C 954 4160 1235 4160 1363 4160 
L 1363 4326 
C 1178 4326 858 4326 659 4326 
C 493 4326 211 4326 58 4332 
L 58 4160 
C 442 4160 467 4122 531 3918 
L 1779 -20 
C 1811 -115 1811 -128 1869 -128 
C 1920 -128 1939 -115 1965 -26 
L 3053 3433 
L 4141 -26 
C 4166 -115 4186 -128 4237 -128 
C 4294 -128 4294 -115 4326 -20 
L 5523 3764 
z
" transform="scale(0.015625)"/>
     </defs>
     <use xlink:href="#CMR17-75" transform="scale(0.996264)"/>
     <use xlink:href="#CMR17-6e" transform="translate(50.89537 0) scale(0.996264)"/>
     <use xlink:href="#CMR17-69" transform="translate(101.79074 0) scale(0.996264)"/>
     <use xlink:href="#CMR17-6f" transform="translate(126.661798 0) scale(0.996264)"/>
     <use xlink:href="#CMR17-6e" transform="translate(172.352275 0) scale(0.996264)"/>
     <use xlink:href="#CMR17-73" transform="translate(256.144864 0) scale(0.996264)"/>
     <use xlink:href="#CMR17-74" transform="translate(291.946202 0) scale(0.996264)"/>
     <use xlink:href="#CMR17-72" transform="translate(327.22697 0) scale(0.996264)"/>
     <use xlink:href="#CMR17-61" transform="translate(362.507738 0) scale(0.996264)"/>
     <use xlink:href="#CMR17-74" transform="translate(408.198215 0) scale(0.996264)"/>
     <use xlink:href="#CMR17-65" transform="translate(443.478983 0) scale(0.996264)"/>
     <use xlink:href="#CMR17-67" transform="translate(483.964643 0) scale(0.996264)"/>
     <use xlink:href="#CMR17-79" transform="translate(529.65512 0) scale(0.996264)"/>
     <use xlink:href="#CMR17-3d" transform="translate(608.024002 0) scale(0.996264)"/>
     <use xlink:href="#CMR17-55" transform="translate(709.814757 0) scale(0.996264)"/>
     <use xlink:href="#CMR17-57" transform="translate(778.887187 0) scale(0.996264)"/>
     <path d="M 228.730274 0 
L 256.144864 0 
L 256.144864 0.3985 
L 228.730274 0.3985 
L 228.730274 0 
z
"/>
    </g>
   </g>
  </g>
  <g id="axes_3">
   <g id="patch_8">
    <path d="M 804.719083 276.274739 
L 1153.935479 276.274739 
L 1153.935479 27.036997 
L 804.719083 27.036997 
z
" style="fill: #eaeaf2"/>
   </g>
   <g id="matplotlib.axis_5">
    <g id="xtick_9">
     <g id="line2d_43">
      <path d="M 884.092413 276.274739 
L 884.092413 27.036997 
" clip-path="url(#p9b7a91d0c1)" style="fill: none; stroke: #ffffff; stroke-width: 0.8; stroke-linecap: round"/>
     </g>
     <g id="text_21">
      <!-- $\mathdefault{2^{7}}$ -->
      <g style="fill: #262626" transform="translate(876.109136 298.411736) scale(0.2 -0.2)">
       <use xlink:href="#CMR17-32" transform="scale(0.996264)"/>
       <use xlink:href="#CMR17-37" transform="translate(45.690477 36.153639) scale(0.697382)"/>
      </g>
     </g>
    </g>
    <g id="xtick_10">
     <g id="line2d_44">
      <path d="M 968.75889 276.274739 
L 968.75889 27.036997 
" clip-path="url(#p9b7a91d0c1)" style="fill: none; stroke: #ffffff; stroke-width: 0.8; stroke-linecap: round"/>
     </g>
     <g id="text_22">
      <!-- $\mathdefault{2^{11}}$ -->
      <g style="fill: #262626" transform="translate(957.361384 298.411736) scale(0.2 -0.2)">
       <use xlink:href="#CMR17-32" transform="scale(0.996264)"/>
       <use xlink:href="#CMR17-31" transform="translate(45.690477 36.153639) scale(0.697382)"/>
       <use xlink:href="#CMR17-31" transform="translate(77.673659 36.153639) scale(0.697382)"/>
      </g>
     </g>
    </g>
    <g id="xtick_11">
     <g id="line2d_45">
      <path d="M 1053.425366 276.274739 
L 1053.425366 27.036997 
" clip-path="url(#p9b7a91d0c1)" style="fill: none; stroke: #ffffff; stroke-width: 0.8; stroke-linecap: round"/>
     </g>
     <g id="text_23">
      <!-- $\mathdefault{2^{15}}$ -->
      <g style="fill: #262626" transform="translate(1042.02786 298.411736) scale(0.2 -0.2)">
       <use xlink:href="#CMR17-32" transform="scale(0.996264)"/>
       <use xlink:href="#CMR17-31" transform="translate(45.690477 36.153639) scale(0.697382)"/>
       <use xlink:href="#CMR17-35" transform="translate(77.673659 36.153639) scale(0.697382)"/>
      </g>
     </g>
    </g>
    <g id="xtick_12">
     <g id="line2d_46">
      <path d="M 1138.091842 276.274739 
L 1138.091842 27.036997 
" clip-path="url(#p9b7a91d0c1)" style="fill: none; stroke: #ffffff; stroke-width: 0.8; stroke-linecap: round"/>
     </g>
     <g id="text_24">
      <!-- $\mathdefault{2^{19}}$ -->
      <g style="fill: #262626" transform="translate(1126.694337 298.411736) scale(0.2 -0.2)">
       <use xlink:href="#CMR17-32" transform="scale(0.996264)"/>
       <use xlink:href="#CMR17-31" transform="translate(45.690477 36.153639) scale(0.697382)"/>
       <use xlink:href="#CMR17-39" transform="translate(77.673659 36.153639) scale(0.697382)"/>
      </g>
     </g>
    </g>
    <g id="text_25">
     <!-- N -->
     <g style="fill: #262626" transform="translate(972.42004 320.124366) scale(0.2 -0.2)">
      <use xlink:href="#CMR17-4e" transform="scale(0.996264)"/>
     </g>
    </g>
   </g>
   <g id="matplotlib.axis_6">
    <g id="ytick_13">
     <g id="line2d_47">
      <path d="M 804.719083 236.802218 
L 1153.935479 236.802218 
" clip-path="url(#p9b7a91d0c1)" style="fill: none; stroke: #ffffff; stroke-width: 0.8; stroke-linecap: round"/>
     </g>
    </g>
    <g id="ytick_14">
     <g id="line2d_48">
      <path d="M 804.719083 194.927869 
L 1153.935479 194.927869 
" clip-path="url(#p9b7a91d0c1)" style="fill: none; stroke: #ffffff; stroke-width: 0.8; stroke-linecap: round"/>
     </g>
    </g>
    <g id="ytick_15">
     <g id="line2d_49">
      <path d="M 804.719083 153.053519 
L 1153.935479 153.053519 
" clip-path="url(#p9b7a91d0c1)" style="fill: none; stroke: #ffffff; stroke-width: 0.8; stroke-linecap: round"/>
     </g>
    </g>
    <g id="ytick_16">
     <g id="line2d_50">
      <path d="M 804.719083 111.17917 
L 1153.935479 111.17917 
" clip-path="url(#p9b7a91d0c1)" style="fill: none; stroke: #ffffff; stroke-width: 0.8; stroke-linecap: round"/>
     </g>
    </g>
    <g id="ytick_17">
     <g id="line2d_51">
      <path d="M 804.719083 69.304821 
L 1153.935479 69.304821 
" clip-path="url(#p9b7a91d0c1)" style="fill: none; stroke: #ffffff; stroke-width: 0.8; stroke-linecap: round"/>
     </g>
    </g>
    <g id="ytick_18">
     <g id="line2d_52">
      <path d="M 804.719083 27.430471 
L 1153.935479 27.430471 
" clip-path="url(#p9b7a91d0c1)" style="fill: none; stroke: #ffffff; stroke-width: 0.8; stroke-linecap: round"/>
     </g>
    </g>
   </g>
   <g id="line2d_53">
    <path d="M 820.592556 264.6999 
L 841.759175 250.126072 
L 862.925794 235.946125 
L 884.092413 222.012067 
L 905.259032 207.789714 
L 926.425651 193.744387 
L 947.592271 179.650806 
L 968.75889 164.940396 
L 989.925509 150.74356 
L 1011.092128 136.661307 
L 1032.258747 122.573123 
L 1053.425366 107.962165 
L 1074.591985 93.75392 
L 1095.758604 79.591394 
L 1116.925223 65.382781 
L 1138.062007 51.337371 
" clip-path="url(#p9b7a91d0c1)" style="fill: none; stroke: #ff7f0e; stroke-width: 1.2; stroke-linecap: round"/>
   </g>
   <g id="LineCollection_9">
    <path d="M 820.592556 264.919584 
L 820.592556 264.483275 
" clip-path="url(#p9b7a91d0c1)" style="fill: none; stroke: #ff7f0e; stroke-width: 1.2; stroke-linecap: round"/>
    <path d="M 841.759175 250.814003 
L 841.759175 248.980302 
" clip-path="url(#p9b7a91d0c1)" style="fill: none; stroke: #ff7f0e; stroke-width: 1.2; stroke-linecap: round"/>
    <path d="M 862.925794 236.675956 
L 862.925794 234.805804 
" clip-path="url(#p9b7a91d0c1)" style="fill: none; stroke: #ff7f0e; stroke-width: 1.2; stroke-linecap: round"/>
    <path d="M 884.092413 222.716885 
L 884.092413 220.95891 
" clip-path="url(#p9b7a91d0c1)" style="fill: none; stroke: #ff7f0e; stroke-width: 1.2; stroke-linecap: round"/>
    <path d="M 905.259032 208.528024 
L 905.259032 206.705819 
" clip-path="url(#p9b7a91d0c1)" style="fill: none; stroke: #ff7f0e; stroke-width: 1.2; stroke-linecap: round"/>
    <path d="M 926.425651 194.514163 
L 926.425651 192.528891 
" clip-path="url(#p9b7a91d0c1)" style="fill: none; stroke: #ff7f0e; stroke-width: 1.2; stroke-linecap: round"/>
    <path d="M 947.592271 180.500469 
L 947.592271 178.39448 
" clip-path="url(#p9b7a91d0c1)" style="fill: none; stroke: #ff7f0e; stroke-width: 1.2; stroke-linecap: round"/>
    <path d="M 968.75889 166.092958 
L 968.75889 163.499188 
" clip-path="url(#p9b7a91d0c1)" style="fill: none; stroke: #ff7f0e; stroke-width: 1.2; stroke-linecap: round"/>
    <path d="M 989.925509 151.995752 
L 989.925509 149.181796 
" clip-path="url(#p9b7a91d0c1)" style="fill: none; stroke: #ff7f0e; stroke-width: 1.2; stroke-linecap: round"/>
    <path d="M 1011.092128 137.904694 
L 1011.092128 135.156119 
" clip-path="url(#p9b7a91d0c1)" style="fill: none; stroke: #ff7f0e; stroke-width: 1.2; stroke-linecap: round"/>
    <path d="M 1032.258747 123.937483 
L 1032.258747 120.88451 
" clip-path="url(#p9b7a91d0c1)" style="fill: none; stroke: #ff7f0e; stroke-width: 1.2; stroke-linecap: round"/>
    <path d="M 1053.425366 109.396172 
L 1053.425366 106.077526 
" clip-path="url(#p9b7a91d0c1)" style="fill: none; stroke: #ff7f0e; stroke-width: 1.2; stroke-linecap: round"/>
    <path d="M 1074.591985 95.31991 
L 1074.591985 92.000118 
" clip-path="url(#p9b7a91d0c1)" style="fill: none; stroke: #ff7f0e; stroke-width: 1.2; stroke-linecap: round"/>
    <path d="M 1095.758604 81.137698 
L 1095.758604 77.805436 
" clip-path="url(#p9b7a91d0c1)" style="fill: none; stroke: #ff7f0e; stroke-width: 1.2; stroke-linecap: round"/>
    <path d="M 1116.925223 66.9068 
L 1116.925223 63.482376 
" clip-path="url(#p9b7a91d0c1)" style="fill: none; stroke: #ff7f0e; stroke-width: 1.2; stroke-linecap: round"/>
    <path d="M 1138.062007 52.934715 
L 1138.062007 49.510699 
" clip-path="url(#p9b7a91d0c1)" style="fill: none; stroke: #ff7f0e; stroke-width: 1.2; stroke-linecap: round"/>
   </g>
   <g id="line2d_54">
    <path d="M 820.592556 264.683502 
L 841.759175 250.61417 
L 862.925794 236.53621 
L 884.092413 222.387178 
L 905.259032 208.083407 
L 926.425651 193.794154 
L 947.592271 179.479137 
L 968.75889 164.775229 
L 989.925509 150.780323 
L 1011.092128 136.733769 
L 1032.258747 122.721483 
L 1053.425366 108.779982 
L 1074.591985 94.59889 
L 1095.758604 80.22094 
L 1116.925223 66.228405 
L 1138.062007 51.441812 
" clip-path="url(#p9b7a91d0c1)" style="fill: none; stroke: #2ca02c; stroke-width: 1.2; stroke-linecap: round"/>
   </g>
   <g id="LineCollection_10">
    <path d="M 820.592556 264.945751 
L 820.592556 264.422879 
" clip-path="url(#p9b7a91d0c1)" style="fill: none; stroke: #2ca02c; stroke-width: 1.2; stroke-linecap: round"/>
    <path d="M 841.759175 250.926313 
L 841.759175 250.298943 
" clip-path="url(#p9b7a91d0c1)" style="fill: none; stroke: #2ca02c; stroke-width: 1.2; stroke-linecap: round"/>
    <path d="M 862.925794 236.911425 
L 862.925794 236.160592 
" clip-path="url(#p9b7a91d0c1)" style="fill: none; stroke: #2ca02c; stroke-width: 1.2; stroke-linecap: round"/>
    <path d="M 884.092413 222.900864 
L 884.092413 221.861542 
" clip-path="url(#p9b7a91d0c1)" style="fill: none; stroke: #2ca02c; stroke-width: 1.2; stroke-linecap: round"/>
    <path d="M 905.259032 208.684375 
L 905.259032 207.406338 
" clip-path="url(#p9b7a91d0c1)" style="fill: none; stroke: #2ca02c; stroke-width: 1.2; stroke-linecap: round"/>
    <path d="M 926.425651 194.406781 
L 926.425651 193.191617 
" clip-path="url(#p9b7a91d0c1)" style="fill: none; stroke: #2ca02c; stroke-width: 1.2; stroke-linecap: round"/>
    <path d="M 947.592271 180.098702 
L 947.592271 178.84063 
" clip-path="url(#p9b7a91d0c1)" style="fill: none; stroke: #2ca02c; stroke-width: 1.2; stroke-linecap: round"/>
    <path d="M 968.75889 165.720618 
L 968.75889 163.567262 
" clip-path="url(#p9b7a91d0c1)" style="fill: none; stroke: #2ca02c; stroke-width: 1.2; stroke-linecap: round"/>
    <path d="M 989.925509 151.671943 
L 989.925509 149.553776 
" clip-path="url(#p9b7a91d0c1)" style="fill: none; stroke: #2ca02c; stroke-width: 1.2; stroke-linecap: round"/>
    <path d="M 1011.092128 137.698542 
L 1011.092128 135.462192 
" clip-path="url(#p9b7a91d0c1)" style="fill: none; stroke: #2ca02c; stroke-width: 1.2; stroke-linecap: round"/>
    <path d="M 1032.258747 123.761662 
L 1032.258747 121.552273 
" clip-path="url(#p9b7a91d0c1)" style="fill: none; stroke: #2ca02c; stroke-width: 1.2; stroke-linecap: round"/>
    <path d="M 1053.425366 109.812576 
L 1053.425366 107.705281 
" clip-path="url(#p9b7a91d0c1)" style="fill: none; stroke: #2ca02c; stroke-width: 1.2; stroke-linecap: round"/>
    <path d="M 1074.591985 95.667105 
L 1074.591985 93.400032 
" clip-path="url(#p9b7a91d0c1)" style="fill: none; stroke: #2ca02c; stroke-width: 1.2; stroke-linecap: round"/>
    <path d="M 1095.758604 81.319099 
L 1095.758604 79.077974 
" clip-path="url(#p9b7a91d0c1)" style="fill: none; stroke: #2ca02c; stroke-width: 1.2; stroke-linecap: round"/>
    <path d="M 1116.925223 67.257518 
L 1116.925223 64.947006 
" clip-path="url(#p9b7a91d0c1)" style="fill: none; stroke: #2ca02c; stroke-width: 1.2; stroke-linecap: round"/>
    <path d="M 1138.062007 52.672965 
L 1138.062007 49.938868 
" clip-path="url(#p9b7a91d0c1)" style="fill: none; stroke: #2ca02c; stroke-width: 1.2; stroke-linecap: round"/>
   </g>
   <g id="line2d_55">
    <path d="M 820.592556 264.628787 
L 841.759175 250.523592 
L 862.925794 236.401182 
L 884.092413 222.244462 
L 905.259032 208.145278 
L 926.425651 194.043151 
L 947.592271 179.732265 
L 968.75889 165.492818 
L 989.925509 151.384679 
L 1011.092128 137.191074 
L 1032.258747 123.211625 
L 1053.425366 109.089256 
L 1074.591985 95.161291 
L 1095.758604 81.170146 
L 1116.925223 67.139254 
L 1138.062007 53.233821 
" clip-path="url(#p9b7a91d0c1)" style="fill: none; stroke: #d62728; stroke-width: 1.2; stroke-linecap: round"/>
   </g>
   <g id="LineCollection_11">
    <path d="M 820.592556 264.829264 
L 820.592556 264.419113 
" clip-path="url(#p9b7a91d0c1)" style="fill: none; stroke: #d62728; stroke-width: 1.2; stroke-linecap: round"/>
    <path d="M 841.759175 250.756645 
L 841.759175 250.279151 
" clip-path="url(#p9b7a91d0c1)" style="fill: none; stroke: #d62728; stroke-width: 1.2; stroke-linecap: round"/>
    <path d="M 862.925794 236.756995 
L 862.925794 236.021575 
" clip-path="url(#p9b7a91d0c1)" style="fill: none; stroke: #d62728; stroke-width: 1.2; stroke-linecap: round"/>
    <path d="M 884.092413 222.727992 
L 884.092413 221.759109 
" clip-path="url(#p9b7a91d0c1)" style="fill: none; stroke: #d62728; stroke-width: 1.2; stroke-linecap: round"/>
    <path d="M 905.259032 208.660509 
L 905.259032 207.685224 
" clip-path="url(#p9b7a91d0c1)" style="fill: none; stroke: #d62728; stroke-width: 1.2; stroke-linecap: round"/>
    <path d="M 926.425651 194.589573 
L 926.425651 193.500201 
" clip-path="url(#p9b7a91d0c1)" style="fill: none; stroke: #d62728; stroke-width: 1.2; stroke-linecap: round"/>
    <path d="M 947.592271 180.324245 
L 947.592271 179.127853 
" clip-path="url(#p9b7a91d0c1)" style="fill: none; stroke: #d62728; stroke-width: 1.2; stroke-linecap: round"/>
    <path d="M 968.75889 166.126468 
L 968.75889 164.82086 
" clip-path="url(#p9b7a91d0c1)" style="fill: none; stroke: #d62728; stroke-width: 1.2; stroke-linecap: round"/>
    <path d="M 989.925509 152.036089 
L 989.925509 150.676285 
" clip-path="url(#p9b7a91d0c1)" style="fill: none; stroke: #d62728; stroke-width: 1.2; stroke-linecap: round"/>
    <path d="M 1011.092128 137.927771 
L 1011.092128 136.430213 
" clip-path="url(#p9b7a91d0c1)" style="fill: none; stroke: #d62728; stroke-width: 1.2; stroke-linecap: round"/>
    <path d="M 1032.258747 123.911986 
L 1032.258747 122.362753 
" clip-path="url(#p9b7a91d0c1)" style="fill: none; stroke: #d62728; stroke-width: 1.2; stroke-linecap: round"/>
    <path d="M 1053.425366 109.898994 
L 1053.425366 108.23028 
" clip-path="url(#p9b7a91d0c1)" style="fill: none; stroke: #d62728; stroke-width: 1.2; stroke-linecap: round"/>
    <path d="M 1074.591985 96.118631 
L 1074.591985 94.253769 
" clip-path="url(#p9b7a91d0c1)" style="fill: none; stroke: #d62728; stroke-width: 1.2; stroke-linecap: round"/>
    <path d="M 1095.758604 82.05118 
L 1095.758604 80.287941 
" clip-path="url(#p9b7a91d0c1)" style="fill: none; stroke: #d62728; stroke-width: 1.2; stroke-linecap: round"/>
    <path d="M 1116.925223 68.214366 
L 1116.925223 66.04567 
" clip-path="url(#p9b7a91d0c1)" style="fill: none; stroke: #d62728; stroke-width: 1.2; stroke-linecap: round"/>
    <path d="M 1138.062007 54.271501 
L 1138.062007 52.180192 
" clip-path="url(#p9b7a91d0c1)" style="fill: none; stroke: #d62728; stroke-width: 1.2; stroke-linecap: round"/>
   </g>
   <g id="line2d_56">
    <path d="M 820.592556 264.087896 
L 841.759175 249.999631 
L 862.925794 236.019405 
L 884.092413 221.930568 
L 905.259032 207.927646 
L 926.425651 193.75322 
L 947.592271 179.336544 
L 968.75889 165.273183 
L 989.925509 151.039093 
L 1011.092128 136.676641 
L 1032.258747 122.596759 
L 1053.425366 108.602834 
L 1074.591985 94.282993 
L 1095.758604 80.177266 
L 1116.925223 65.925961 
L 1138.062007 51.723155 
" clip-path="url(#p9b7a91d0c1)" style="fill: none; stroke: #9467bd; stroke-width: 1.2; stroke-linecap: round"/>
   </g>
   <g id="LineCollection_12">
    <path d="M 820.592556 264.373644 
L 820.592556 263.822779 
" clip-path="url(#p9b7a91d0c1)" style="fill: none; stroke: #9467bd; stroke-width: 1.2; stroke-linecap: round"/>
    <path d="M 841.759175 250.303773 
L 841.759175 249.703026 
" clip-path="url(#p9b7a91d0c1)" style="fill: none; stroke: #9467bd; stroke-width: 1.2; stroke-linecap: round"/>
    <path d="M 862.925794 236.405927 
L 862.925794 235.650741 
" clip-path="url(#p9b7a91d0c1)" style="fill: none; stroke: #9467bd; stroke-width: 1.2; stroke-linecap: round"/>
    <path d="M 884.092413 222.31375 
L 884.092413 221.570133 
" clip-path="url(#p9b7a91d0c1)" style="fill: none; stroke: #9467bd; stroke-width: 1.2; stroke-linecap: round"/>
    <path d="M 905.259032 208.439507 
L 905.259032 207.378558 
" clip-path="url(#p9b7a91d0c1)" style="fill: none; stroke: #9467bd; stroke-width: 1.2; stroke-linecap: round"/>
    <path d="M 926.425651 194.264816 
L 926.425651 193.203608 
" clip-path="url(#p9b7a91d0c1)" style="fill: none; stroke: #9467bd; stroke-width: 1.2; stroke-linecap: round"/>
    <path d="M 947.592271 180.111568 
L 947.592271 178.416117 
" clip-path="url(#p9b7a91d0c1)" style="fill: none; stroke: #9467bd; stroke-width: 1.2; stroke-linecap: round"/>
    <path d="M 968.75889 166.222973 
L 968.75889 164.160188 
" clip-path="url(#p9b7a91d0c1)" style="fill: none; stroke: #9467bd; stroke-width: 1.2; stroke-linecap: round"/>
    <path d="M 989.925509 152.073463 
L 989.925509 149.836706 
" clip-path="url(#p9b7a91d0c1)" style="fill: none; stroke: #9467bd; stroke-width: 1.2; stroke-linecap: round"/>
    <path d="M 1011.092128 137.742373 
L 1011.092128 135.516718 
" clip-path="url(#p9b7a91d0c1)" style="fill: none; stroke: #9467bd; stroke-width: 1.2; stroke-linecap: round"/>
    <path d="M 1032.258747 123.584727 
L 1032.258747 121.334478 
" clip-path="url(#p9b7a91d0c1)" style="fill: none; stroke: #9467bd; stroke-width: 1.2; stroke-linecap: round"/>
    <path d="M 1053.425366 109.538577 
L 1053.425366 107.524201 
" clip-path="url(#p9b7a91d0c1)" style="fill: none; stroke: #9467bd; stroke-width: 1.2; stroke-linecap: round"/>
    <path d="M 1074.591985 95.35023 
L 1074.591985 93.174435 
" clip-path="url(#p9b7a91d0c1)" style="fill: none; stroke: #9467bd; stroke-width: 1.2; stroke-linecap: round"/>
    <path d="M 1095.758604 81.228102 
L 1095.758604 79.037886 
" clip-path="url(#p9b7a91d0c1)" style="fill: none; stroke: #9467bd; stroke-width: 1.2; stroke-linecap: round"/>
    <path d="M 1116.925223 67.049924 
L 1116.925223 64.859281 
" clip-path="url(#p9b7a91d0c1)" style="fill: none; stroke: #9467bd; stroke-width: 1.2; stroke-linecap: round"/>
    <path d="M 1138.062007 52.942328 
L 1138.062007 50.57512 
" clip-path="url(#p9b7a91d0c1)" style="fill: none; stroke: #9467bd; stroke-width: 1.2; stroke-linecap: round"/>
   </g>
   <g id="line2d_57">
    <path d="M 1017.906257 276.274739 
L 1017.906257 27.036997 
" clip-path="url(#p9b7a91d0c1)" style="fill: none; stroke-dasharray: 1.2,1.98; stroke-dashoffset: 0; stroke: #000000; stroke-width: 1.2"/>
   </g>
   <g id="line2d_58"/>
   <g id="line2d_59"/>
   <g id="line2d_60"/>
   <g id="line2d_61"/>
   <g id="patch_9">
    <path d="M 804.719083 276.274739 
L 804.719083 27.036997 
" style="fill: none; stroke: #ffffff; stroke-linejoin: miter; stroke-linecap: square"/>
   </g>
   <g id="patch_10">
    <path d="M 804.719083 276.274739 
L 1153.935479 276.274739 
" style="fill: none; stroke: #ffffff; stroke-linejoin: miter; stroke-linecap: square"/>
   </g>
   <g id="text_26">
    <!-- union_strategy = UR -->
    <g style="fill: #262626" transform="translate(894.659495 21.036997) scale(0.2 -0.2)">
     <defs>
      <path id="CMR17-52" d="M 2509 2146 
C 3117 2268 3629 2676 3629 3186 
C 3629 3785 2950 4326 2054 4326 
L 333 4326 
L 333 4160 
C 774 4160 845 4160 845 3873 
L 845 415 
C 845 128 774 128 333 128 
L 333 -26 
C 518 -26 851 -26 1050 -26 
C 1248 -26 1581 -26 1766 -26 
L 1766 128 
C 1325 128 1254 128 1254 417 
L 1254 2112 
L 2003 2112 
C 2368 2112 2573 1964 2662 1881 
C 2918 1632 2918 1459 2918 1024 
C 2918 595 2918 377 3110 160 
C 3354 -102 3680 -128 3821 -128 
C 4294 -128 4365 396 4365 503 
C 4365 540 4365 585 4307 585 
C 4256 585 4250 547 4250 522 
C 4218 112 4032 -26 3834 -26 
C 3482 -26 3443 375 3405 764 
C 3386 898 3373 993 3360 1133 
C 3322 1452 3270 1917 2509 2146 
z
M 1984 2214 
L 1254 2214 
L 1254 3913 
C 1254 4129 1267 4160 1523 4160 
L 1990 4160 
C 2522 4160 3142 3977 3142 3190 
C 3142 2372 2464 2214 1984 2214 
z
" transform="scale(0.015625)"/>
     </defs>
     <use xlink:href="#CMR17-75" transform="scale(0.996264)"/>
     <use xlink:href="#CMR17-6e" transform="translate(50.89537 0) scale(0.996264)"/>
     <use xlink:href="#CMR17-69" transform="translate(101.79074 0) scale(0.996264)"/>
     <use xlink:href="#CMR17-6f" transform="translate(126.661798 0) scale(0.996264)"/>
     <use xlink:href="#CMR17-6e" transform="translate(172.352275 0) scale(0.996264)"/>
     <use xlink:href="#CMR17-73" transform="translate(256.144864 0) scale(0.996264)"/>
     <use xlink:href="#CMR17-74" transform="translate(291.946202 0) scale(0.996264)"/>
     <use xlink:href="#CMR17-72" transform="translate(327.22697 0) scale(0.996264)"/>
     <use xlink:href="#CMR17-61" transform="translate(362.507738 0) scale(0.996264)"/>
     <use xlink:href="#CMR17-74" transform="translate(408.198215 0) scale(0.996264)"/>
     <use xlink:href="#CMR17-65" transform="translate(443.478983 0) scale(0.996264)"/>
     <use xlink:href="#CMR17-67" transform="translate(483.964643 0) scale(0.996264)"/>
     <use xlink:href="#CMR17-79" transform="translate(529.65512 0) scale(0.996264)"/>
     <use xlink:href="#CMR17-3d" transform="translate(608.024002 0) scale(0.996264)"/>
     <use xlink:href="#CMR17-55" transform="translate(709.814757 0) scale(0.996264)"/>
     <use xlink:href="#CMR17-52" transform="translate(778.887187 0) scale(0.996264)"/>
     <path d="M 228.730274 0 
L 256.144864 0 
L 256.144864 0.3985 
L 228.730274 0.3985 
L 228.730274 0 
z
"/>
    </g>
   </g>
  </g>
  <g id="legend_1">
   <g id="text_27">
    <!-- compress_strategy -->
    <g style="fill: #262626" transform="translate(1065 132.601234) scale(0.13 -0.13)">
     <use xlink:href="#CMR17-63" transform="scale(0.996264)"/>
     <use xlink:href="#CMR17-6f" transform="translate(40.48566 0) scale(0.996264)"/>
     <use xlink:href="#CMR17-6d" transform="translate(86.176138 0) scale(0.996264)"/>
     <use xlink:href="#CMR17-70" transform="translate(163.095727 0) scale(0.996264)"/>
     <use xlink:href="#CMR17-72" transform="translate(213.991097 0) scale(0.996264)"/>
     <use xlink:href="#CMR17-65" transform="translate(249.271865 0) scale(0.996264)"/>
     <use xlink:href="#CMR17-73" transform="translate(289.757525 0) scale(0.996264)"/>
     <use xlink:href="#CMR17-73" transform="translate(325.558863 0) scale(0.996264)"/>
     <use xlink:href="#CMR17-73" transform="translate(394.25742 0) scale(0.996264)"/>
     <use xlink:href="#CMR17-74" transform="translate(430.058758 0) scale(0.996264)"/>
     <use xlink:href="#CMR17-72" transform="translate(465.339526 0) scale(0.996264)"/>
     <use xlink:href="#CMR17-61" transform="translate(500.620294 0) scale(0.996264)"/>
     <use xlink:href="#CMR17-74" transform="translate(546.310771 0) scale(0.996264)"/>
     <use xlink:href="#CMR17-65" transform="translate(581.591538 0) scale(0.996264)"/>
     <use xlink:href="#CMR17-67" transform="translate(622.077199 0) scale(0.996264)"/>
     <use xlink:href="#CMR17-79" transform="translate(667.767676 0) scale(0.996264)"/>
     <path d="M 366.84283 0 
L 394.25742 0 
L 394.25742 0.3985 
L 366.84283 0.3985 
L 366.84283 0 
z
"/>
    </g>
   </g>
   <g id="line2d_62">
    <path d="M 1087.500325 146.169546 
L 1100.500325 146.169546 
L 1113.500325 146.169546 
" style="fill: none; stroke: #ff7f0e; stroke-width: 1.2; stroke-linecap: round"/>
   </g>
   <g id="text_28">
    <!-- FC -->
    <g style="fill: #262626" transform="translate(1123.900325 150.719546) scale(0.13 -0.13)">
     <defs>
      <path id="CMR17-46" d="M 3482 4325 
L 326 4325 
L 326 4160 
C 768 4160 838 4160 838 3874 
L 838 446 
C 838 160 768 160 326 160 
L 326 0 
C 512 0 870 0 1069 0 
C 1331 0 1638 0 1901 0 
L 1901 160 
L 1760 160 
C 1274 160 1261 223 1261 452 
L 1261 2075 
L 1837 2075 
C 2432 2075 2490 1865 2490 1332 
L 2605 1332 
L 2605 2987 
L 2490 2987 
C 2490 2450 2432 2240 1837 2240 
L 1261 2240 
L 1261 3911 
C 1261 4128 1274 4160 1530 4160 
L 2355 4160 
C 3322 4160 3430 3765 3520 2916 
L 3635 2916 
L 3482 4325 
z
" transform="scale(0.015625)"/>
      <path id="CMR17-43" d="M 3974 4289 
C 3974 4403 3968 4410 3930 4410 
C 3904 4410 3898 4403 3853 4327 
L 3571 3792 
C 3258 4187 2874 4416 2381 4416 
C 1286 4416 294 3456 294 2148 
C 294 826 1286 -128 2387 -128 
C 3366 -128 3974 730 3974 1461 
C 3974 1524 3974 1550 3917 1550 
C 3866 1550 3866 1531 3859 1474 
C 3808 585 3168 38 2477 38 
C 1824 38 781 495 781 2147 
C 781 3805 1843 4250 2464 4250 
C 3187 4250 3712 3628 3834 2745 
C 3846 2668 3846 2655 3904 2655 
C 3974 2655 3974 2668 3974 2783 
L 3974 4289 
z
" transform="scale(0.015625)"/>
     </defs>
     <use xlink:href="#CMR17-46" transform="scale(0.996264)"/>
     <use xlink:href="#CMR17-43" transform="translate(57.381393 0) scale(0.996264)"/>
    </g>
   </g>
   <g id="line2d_63">
    <path d="M 1087.500325 164.287858 
L 1100.500325 164.287858 
L 1113.500325 164.287858 
" style="fill: none; stroke: #2ca02c; stroke-width: 1.2; stroke-linecap: round"/>
   </g>
   <g id="text_29">
    <!-- PS -->
    <g style="fill: #262626" transform="translate(1123.900325 168.837858) scale(0.13 -0.13)">
     <defs>
      <path id="CMR17-50" d="M 1267 2042 
L 2291 2042 
C 3117 2042 3718 2578 3718 3184 
C 3718 3791 3130 4352 2291 4352 
L 333 4352 
L 333 4186 
C 774 4186 845 4186 845 3899 
L 845 446 
C 845 160 774 160 333 160 
L 333 0 
C 518 0 858 0 1056 0 
C 1254 0 1594 0 1779 0 
L 1779 160 
C 1338 160 1267 160 1267 446 
L 1267 2042 
z
M 1254 2176 
L 1254 3938 
C 1254 4155 1267 4186 1523 4186 
L 2170 4186 
C 2995 4186 3232 3714 3232 3184 
C 3232 2604 2950 2176 2170 2176 
L 1254 2176 
z
" transform="scale(0.015625)"/>
      <path id="CMR17-53" d="M 2803 4290 
C 2803 4404 2797 4411 2758 4411 
C 2720 4411 2707 4385 2682 4328 
L 2490 3907 
C 2246 4257 1875 4416 1472 4416 
C 819 4416 294 3901 294 3253 
C 294 3056 339 2776 557 2510 
C 794 2218 1018 2167 1530 2033 
C 1722 1982 2042 1899 2106 1874 
C 2470 1722 2662 1341 2662 985 
C 2662 527 2336 38 1779 38 
C 1094 38 454 419 410 1311 
C 403 1413 397 1419 352 1419 
C 301 1419 294 1413 294 1285 
L 294 -1 
C 294 -115 301 -122 339 -122 
C 384 -122 397 -90 486 108 
C 493 127 493 140 614 381 
C 934 -39 1472 -128 1779 -128 
C 2477 -128 2970 451 2970 1124 
C 2970 1454 2848 1708 2778 1823 
C 2509 2230 2221 2306 1914 2382 
C 1869 2402 1856 2402 1498 2490 
C 1152 2579 1005 2624 845 2796 
C 666 2992 602 3196 602 3399 
C 602 3812 934 4263 1478 4263 
C 2157 4263 2579 3786 2675 2993 
C 2694 2878 2701 2872 2746 2872 
C 2803 2872 2803 2891 2803 2999 
L 2803 4290 
z
" transform="scale(0.015625)"/>
     </defs>
     <use xlink:href="#CMR17-50" transform="scale(0.996264)"/>
     <use xlink:href="#CMR17-53" transform="translate(62.586301 0) scale(0.996264)"/>
    </g>
   </g>
   <g id="line2d_64">
    <path d="M 1087.500325 182.40617 
L 1100.500325 182.40617 
L 1113.500325 182.40617 
" style="fill: none; stroke: #d62728; stroke-width: 1.2; stroke-linecap: round"/>
   </g>
   <g id="text_30">
    <!-- PH -->
    <g style="fill: #262626" transform="translate(1123.900325 186.95617) scale(0.13 -0.13)">
     <defs>
      <path id="CMR17-48" d="M 3590 3905 
C 3590 4192 3661 4192 4102 4192 
L 4102 4352 
C 3917 4352 3578 4352 3379 4352 
C 3181 4352 2842 4352 2656 4352 
L 2656 4192 
C 3098 4192 3168 4192 3168 3904 
L 3168 2341 
L 1261 2341 
L 1261 3904 
C 1261 4192 1331 4192 1773 4192 
L 1773 4352 
C 1587 4352 1248 4352 1050 4352 
C 851 4352 512 4352 326 4352 
L 326 4192 
C 768 4192 838 4192 838 3905 
L 838 447 
C 838 160 768 160 326 160 
L 326 0 
C 512 0 851 0 1050 0 
C 1248 0 1587 0 1773 0 
L 1773 160 
C 1331 160 1261 160 1261 446 
L 1261 2176 
L 3168 2176 
L 3168 446 
C 3168 160 3098 160 2656 160 
L 2656 0 
C 2842 0 3181 0 3379 0 
C 3578 0 3917 0 4102 0 
L 4102 160 
C 3661 160 3590 160 3590 447 
L 3590 3905 
z
" transform="scale(0.015625)"/>
     </defs>
     <use xlink:href="#CMR17-50" transform="scale(0.996264)"/>
     <use xlink:href="#CMR17-48" transform="translate(62.586301 0) scale(0.996264)"/>
    </g>
   </g>
   <g id="line2d_65">
    <path d="M 1087.500325 200.524482 
L 1100.500325 200.524482 
L 1113.500325 200.524482 
" style="fill: none; stroke: #9467bd; stroke-width: 1.2; stroke-linecap: round"/>
   </g>
   <g id="text_31">
    <!-- R2 -->
    <g style="fill: #262626" transform="translate(1123.900325 205.074482) scale(0.13 -0.13)">
     <use xlink:href="#CMR17-52" transform="scale(0.996264)"/>
     <use xlink:href="#CMR17-32" transform="translate(67.791102 0) scale(0.996264)"/>
    </g>
   </g>
  </g>
 </g>
 <defs>
  <clipPath id="p995736bf5d">
   <rect x="63.086292" y="27.036997" width="349.216396" height="249.237742"/>
  </clipPath>
  <clipPath id="pec3df4dd84">
   <rect x="433.902688" y="27.036997" width="349.216396" height="249.237742"/>
  </clipPath>
  <clipPath id="p9b7a91d0c1">
   <rect x="804.719083" y="27.036997" width="349.216396" height="249.237742"/>
  </clipPath>
 </defs>
</svg>
