<?xml version="1.0" encoding="utf-8" standalone="no"?>
<!DOCTYPE svg PUBLIC "-//W3C//DTD SVG 1.1//EN"
  "http://www.w3.org/Graphics/SVG/1.1/DTD/svg11.dtd">
<svg xmlns:xlink="http://www.w3.org/1999/xlink" width="1197.182989pt" height="331.2pt" viewBox="0 0 1197.182989 331.2" xmlns="http://www.w3.org/2000/svg" version="1.1">
 <metadata>
  <rdf:RDF xmlns:dc="http://purl.org/dc/elements/1.1/" xmlns:cc="http://creativecommons.org/ns#" xmlns:rdf="http://www.w3.org/1999/02/22-rdf-syntax-ns#">
   <cc:Work>
    <dc:type rdf:resource="http://purl.org/dc/dcmitype/StillImage"/>
    <dc:date>2023-08-08T13:43:24.325246</dc:date>
    <dc:format>image/svg+xml</dc:format>
    <dc:creator>
     <cc:Agent>
      <dc:title>Matplotlib v3.6.3, https://matplotlib.org/</dc:title>
     </cc:Agent>
    </dc:creator>
   </cc:Work>
  </rdf:RDF>
 </metadata>
 <defs>
  <style type="text/css">*{stroke-linejoin: round; stroke-linecap: butt}</style>
 </defs>
 <g id="figure_1">
  <g id="patch_1">
   <path d="M 0 331.2 
L 1197.182989 331.2 
L 1197.182989 0 
L 0 0 
L 0 331.2 
z
" style="fill: none"/>
  </g>
  <g id="axes_1">
   <g id="patch_2">
    <path d="M 73.765012 276.274739 
L 426.404338 276.274739 
L 426.404338 27.036997 
L 73.765012 27.036997 
z
" style="fill: #eaeaf2"/>
   </g>
   <g id="matplotlib.axis_1">
    <g id="xtick_1">
     <g id="line2d_1">
      <path d="M 135.591771 276.274739 
L 135.591771 27.036997 
" clip-path="url(#pe45c1d37ea)" style="fill: none; stroke: #ffffff; stroke-width: 0.8; stroke-linecap: round"/>
     </g>
     <g id="text_1">
      <!-- $\mathdefault{2^{7}}$ -->
      <g style="fill: #262626" transform="translate(127.608495 298.411736) scale(0.2 -0.2)">
       <defs>
        <path id="CMR17-32" d="M 2669 989 
L 2554 989 
C 2490 536 2438 459 2413 420 
C 2381 369 1920 369 1830 369 
L 602 369 
C 832 619 1280 1072 1824 1597 
C 2214 1967 2669 2402 2669 3035 
C 2669 3790 2067 4224 1395 4224 
C 691 4224 262 3604 262 3030 
C 262 2780 448 2748 525 2748 
C 589 2748 781 2787 781 3010 
C 781 3207 614 3264 525 3264 
C 486 3264 448 3258 422 3245 
C 544 3790 915 4058 1306 4058 
C 1862 4058 2227 3617 2227 3035 
C 2227 2479 1901 2000 1536 1584 
L 262 146 
L 262 0 
L 2515 0 
L 2669 989 
z
" transform="scale(0.015625)"/>
        <path id="CMR17-37" d="M 2886 3941 
L 2886 4081 
L 1382 4081 
C 634 4081 621 4165 595 4288 
L 480 4288 
L 294 3094 
L 410 3094 
C 429 3215 474 3540 550 3661 
C 589 3712 1062 3712 1171 3712 
L 2579 3712 
L 1869 2661 
C 1395 1954 1069 999 1069 165 
C 1069 89 1069 -128 1299 -128 
C 1530 -128 1530 89 1530 171 
L 1530 465 
C 1530 1508 1709 2196 2003 2636 
L 2886 3941 
z
" transform="scale(0.015625)"/>
       </defs>
       <use xlink:href="#CMR17-32" transform="scale(0.996264)"/>
       <use xlink:href="#CMR17-37" transform="translate(45.690477 36.153639) scale(0.697382)"/>
      </g>
     </g>
    </g>
    <g id="xtick_2">
     <g id="line2d_2">
      <path d="M 211.92127 276.274739 
L 211.92127 27.036997 
" clip-path="url(#pe45c1d37ea)" style="fill: none; stroke: #ffffff; stroke-width: 0.8; stroke-linecap: round"/>
     </g>
     <g id="text_2">
      <!-- $\mathdefault{2^{12}}$ -->
      <g style="fill: #262626" transform="translate(200.523764 298.411736) scale(0.2 -0.2)">
       <defs>
        <path id="CMR17-31" d="M 1702 4058 
C 1702 4192 1696 4192 1606 4192 
C 1357 3916 979 3827 621 3827 
C 602 3827 570 3827 563 3808 
C 557 3795 557 3782 557 3648 
C 755 3648 1088 3686 1344 3839 
L 1344 461 
C 1344 236 1331 160 781 160 
L 589 160 
L 589 0 
C 896 0 1216 0 1523 0 
C 1830 0 2150 0 2458 0 
L 2458 160 
L 2266 160 
C 1715 160 1702 230 1702 458 
L 1702 4058 
z
" transform="scale(0.015625)"/>
       </defs>
       <use xlink:href="#CMR17-32" transform="scale(0.996264)"/>
       <use xlink:href="#CMR17-31" transform="translate(45.690477 36.153639) scale(0.697382)"/>
       <use xlink:href="#CMR17-32" transform="translate(77.673659 36.153639) scale(0.697382)"/>
      </g>
     </g>
    </g>
    <g id="xtick_3">
     <g id="line2d_3">
      <path d="M 288.250768 276.274739 
L 288.250768 27.036997 
" clip-path="url(#pe45c1d37ea)" style="fill: none; stroke: #ffffff; stroke-width: 0.8; stroke-linecap: round"/>
     </g>
     <g id="text_3">
      <!-- $\mathdefault{2^{17}}$ -->
      <g style="fill: #262626" transform="translate(276.853263 298.411736) scale(0.2 -0.2)">
       <use xlink:href="#CMR17-32" transform="scale(0.996264)"/>
       <use xlink:href="#CMR17-31" transform="translate(45.690477 36.153639) scale(0.697382)"/>
       <use xlink:href="#CMR17-37" transform="translate(77.673659 36.153639) scale(0.697382)"/>
      </g>
     </g>
    </g>
    <g id="xtick_4">
     <g id="line2d_4">
      <path d="M 364.580267 276.274739 
L 364.580267 27.036997 
" clip-path="url(#pe45c1d37ea)" style="fill: none; stroke: #ffffff; stroke-width: 0.8; stroke-linecap: round"/>
     </g>
     <g id="text_4">
      <!-- $\mathdefault{2^{22}}$ -->
      <g style="fill: #262626" transform="translate(353.182761 298.411736) scale(0.2 -0.2)">
       <use xlink:href="#CMR17-32" transform="scale(0.996264)"/>
       <use xlink:href="#CMR17-32" transform="translate(45.690477 36.153639) scale(0.697382)"/>
       <use xlink:href="#CMR17-32" transform="translate(77.673659 36.153639) scale(0.697382)"/>
      </g>
     </g>
    </g>
    <g id="text_5">
     <!-- N -->
     <g style="fill: #262626" transform="translate(243.177433 320.124366) scale(0.2 -0.2)">
      <defs>
       <path id="CMR17-4e" d="M 1312 4250 
C 1267 4320 1261 4320 1139 4320 
L 326 4320 
L 326 4160 
L 448 4160 
C 704 4160 819 4129 838 4122 
L 838 610 
C 838 451 838 153 326 153 
L 326 -13 
C 474 0 742 0 902 0 
C 1062 0 1331 0 1478 -13 
L 1478 153 
C 966 153 966 451 966 610 
L 966 4033 
C 1011 3995 1011 3982 1056 3919 
L 3430 76 
C 3475 0 3494 0 3526 0 
C 3590 0 3590 19 3590 139 
L 3590 3705 
C 3590 3863 3590 4160 4102 4160 
L 4102 4326 
C 3955 4320 3686 4320 3526 4320 
C 3366 4320 3098 4320 2950 4326 
L 2950 4160 
C 3462 4160 3462 3862 3462 3703 
L 3462 763 
L 1312 4250 
z
" transform="scale(0.015625)"/>
      </defs>
      <use xlink:href="#CMR17-4e" transform="scale(0.996264)"/>
     </g>
    </g>
   </g>
   <g id="matplotlib.axis_2">
    <g id="ytick_1">
     <g id="line2d_5">
      <path d="M 73.765012 264.973416 
L 426.404338 264.973416 
" clip-path="url(#pe45c1d37ea)" style="fill: none; stroke: #ffffff; stroke-width: 0.8; stroke-linecap: round"/>
     </g>
     <g id="text_6">
      <!-- $\mathdefault{0}$ -->
      <g style="fill: #262626" transform="translate(56.326917 271.891915) scale(0.2 -0.2)">
       <defs>
        <path id="CMR17-30" d="M 2688 2025 
C 2688 2416 2682 3080 2413 3591 
C 2176 4039 1798 4198 1466 4198 
C 1158 4198 768 4058 525 3597 
C 269 3118 243 2524 243 2025 
C 243 1661 250 1106 448 619 
C 723 -39 1216 -128 1466 -128 
C 1760 -128 2208 -7 2470 600 
C 2662 1042 2688 1559 2688 2025 
z
M 1466 -26 
C 1056 -26 813 325 723 812 
C 653 1188 653 1738 653 2096 
C 653 2588 653 2997 736 3387 
C 858 3929 1216 4096 1466 4096 
C 1728 4096 2067 3923 2189 3400 
C 2272 3036 2278 2607 2278 2096 
C 2278 1680 2278 1169 2202 792 
C 2067 95 1690 -26 1466 -26 
z
" transform="scale(0.015625)"/>
       </defs>
       <use xlink:href="#CMR17-30" transform="scale(0.996264)"/>
      </g>
     </g>
    </g>
    <g id="ytick_2">
     <g id="line2d_6">
      <path d="M 73.765012 209.642582 
L 426.404338 209.642582 
" clip-path="url(#pe45c1d37ea)" style="fill: none; stroke: #ffffff; stroke-width: 0.8; stroke-linecap: round"/>
     </g>
     <g id="text_7">
      <!-- $\mathdefault{2000}$ -->
      <g style="fill: #262626" transform="translate(28.91263 216.561081) scale(0.2 -0.2)">
       <use xlink:href="#CMR17-32" transform="scale(0.996264)"/>
       <use xlink:href="#CMR17-30" transform="translate(45.690477 0) scale(0.996264)"/>
       <use xlink:href="#CMR17-30" transform="translate(91.380954 0) scale(0.996264)"/>
       <use xlink:href="#CMR17-30" transform="translate(137.071431 0) scale(0.996264)"/>
      </g>
     </g>
    </g>
    <g id="ytick_3">
     <g id="line2d_7">
      <path d="M 73.765012 154.311748 
L 426.404338 154.311748 
" clip-path="url(#pe45c1d37ea)" style="fill: none; stroke: #ffffff; stroke-width: 0.8; stroke-linecap: round"/>
     </g>
     <g id="text_8">
      <!-- $\mathdefault{4000}$ -->
      <g style="fill: #262626" transform="translate(28.91263 161.230246) scale(0.2 -0.2)">
       <defs>
        <path id="CMR17-34" d="M 2150 4122 
C 2150 4256 2144 4256 2029 4256 
L 128 1254 
L 128 1088 
L 1779 1088 
L 1779 457 
C 1779 224 1766 160 1318 160 
L 1197 160 
L 1197 0 
C 1402 0 1747 0 1965 0 
C 2182 0 2528 0 2733 0 
L 2733 160 
L 2611 160 
C 2163 160 2150 224 2150 457 
L 2150 1088 
L 2803 1088 
L 2803 1254 
L 2150 1254 
L 2150 4122 
z
M 1798 3703 
L 1798 1254 
L 256 1254 
L 1798 3703 
z
" transform="scale(0.015625)"/>
       </defs>
       <use xlink:href="#CMR17-34" transform="scale(0.996264)"/>
       <use xlink:href="#CMR17-30" transform="translate(45.690477 0) scale(0.996264)"/>
       <use xlink:href="#CMR17-30" transform="translate(91.380954 0) scale(0.996264)"/>
       <use xlink:href="#CMR17-30" transform="translate(137.071431 0) scale(0.996264)"/>
      </g>
     </g>
    </g>
    <g id="ytick_4">
     <g id="line2d_8">
      <path d="M 73.765012 98.980914 
L 426.404338 98.980914 
" clip-path="url(#pe45c1d37ea)" style="fill: none; stroke: #ffffff; stroke-width: 0.8; stroke-linecap: round"/>
     </g>
     <g id="text_9">
      <!-- $\mathdefault{6000}$ -->
      <g style="fill: #262626" transform="translate(28.91263 105.899412) scale(0.2 -0.2)">
       <defs>
        <path id="CMR17-36" d="M 678 2176 
C 678 3690 1395 4032 1811 4032 
C 1946 4032 2272 4009 2400 3776 
C 2298 3776 2106 3776 2106 3553 
C 2106 3381 2246 3323 2336 3323 
C 2394 3323 2566 3348 2566 3560 
C 2566 3954 2246 4179 1805 4179 
C 1043 4179 243 3390 243 1984 
C 243 253 966 -128 1478 -128 
C 2099 -128 2688 427 2688 1283 
C 2688 2081 2170 2662 1517 2662 
C 1126 2662 838 2407 678 1960 
L 678 2176 
z
M 1478 25 
C 691 25 691 1200 691 1436 
C 691 1896 909 2560 1504 2560 
C 1613 2560 1926 2560 2138 2120 
C 2253 1870 2253 1609 2253 1289 
C 2253 944 2253 690 2118 434 
C 1978 171 1773 25 1478 25 
z
" transform="scale(0.015625)"/>
       </defs>
       <use xlink:href="#CMR17-36" transform="scale(0.996264)"/>
       <use xlink:href="#CMR17-30" transform="translate(45.690477 0) scale(0.996264)"/>
       <use xlink:href="#CMR17-30" transform="translate(91.380954 0) scale(0.996264)"/>
       <use xlink:href="#CMR17-30" transform="translate(137.071431 0) scale(0.996264)"/>
      </g>
     </g>
    </g>
    <g id="ytick_5">
     <g id="line2d_9">
      <path d="M 73.765012 43.65008 
L 426.404338 43.65008 
" clip-path="url(#pe45c1d37ea)" style="fill: none; stroke: #ffffff; stroke-width: 0.8; stroke-linecap: round"/>
     </g>
     <g id="text_10">
      <!-- $\mathdefault{8000}$ -->
      <g style="fill: #262626" transform="translate(28.91263 50.568578) scale(0.2 -0.2)">
       <defs>
        <path id="CMR17-38" d="M 1741 2264 
C 2144 2467 2554 2773 2554 3263 
C 2554 3841 1990 4179 1472 4179 
C 890 4179 378 3759 378 3180 
C 378 3021 416 2747 666 2505 
C 730 2442 998 2251 1171 2130 
C 883 1983 211 1634 211 934 
C 211 279 838 -128 1459 -128 
C 2144 -128 2720 362 2720 1010 
C 2720 1590 2330 1857 2074 2029 
L 1741 2264 
z
M 902 2822 
C 851 2854 595 3051 595 3351 
C 595 3739 998 4032 1459 4032 
C 1965 4032 2336 3676 2336 3262 
C 2336 2669 1670 2331 1638 2331 
C 1632 2331 1626 2331 1574 2370 
L 902 2822 
z
M 2080 1519 
C 2176 1449 2483 1240 2483 851 
C 2483 381 2010 25 1472 25 
C 890 25 448 438 448 940 
C 448 1443 838 1862 1280 2060 
L 2080 1519 
z
" transform="scale(0.015625)"/>
       </defs>
       <use xlink:href="#CMR17-38" transform="scale(0.996264)"/>
       <use xlink:href="#CMR17-30" transform="translate(45.690477 0) scale(0.996264)"/>
       <use xlink:href="#CMR17-30" transform="translate(91.380954 0) scale(0.996264)"/>
       <use xlink:href="#CMR17-30" transform="translate(137.071431 0) scale(0.996264)"/>
      </g>
     </g>
    </g>
    <g id="text_11">
     <!-- Cantidad -->
     <g style="fill: #262626" transform="translate(21.036997 188.468481) rotate(-90) scale(0.2 -0.2)">
      <defs>
       <path id="CMR17-43" d="M 3974 4289 
C 3974 4403 3968 4410 3930 4410 
C 3904 4410 3898 4403 3853 4327 
L 3571 3792 
C 3258 4187 2874 4416 2381 4416 
C 1286 4416 294 3456 294 2148 
C 294 826 1286 -128 2387 -128 
C 3366 -128 3974 730 3974 1461 
C 3974 1524 3974 1550 3917 1550 
C 3866 1550 3866 1531 3859 1474 
C 3808 585 3168 38 2477 38 
C 1824 38 781 495 781 2147 
C 781 3805 1843 4250 2464 4250 
C 3187 4250 3712 3628 3834 2745 
C 3846 2668 3846 2655 3904 2655 
C 3974 2655 3974 2668 3974 2783 
L 3974 4289 
z
" transform="scale(0.015625)"/>
       <path id="CMR17-61" d="M 2304 1653 
C 2304 2072 2304 2294 2035 2543 
C 1798 2752 1523 2816 1306 2816 
C 800 2816 435 2407 435 1971 
C 435 1728 627 1728 666 1728 
C 749 1728 896 1778 896 1954 
C 896 2112 774 2181 666 2181 
C 640 2181 608 2174 589 2168 
C 723 2592 1069 2714 1293 2714 
C 1613 2714 1965 2429 1965 1885 
L 1965 1600 
C 1587 1600 1133 1549 774 1357 
C 371 1133 256 813 256 570 
C 256 77 832 -64 1171 -64 
C 1523 -64 1850 139 1990 511 
C 2003 233 2182 -18 2464 -18 
C 2598 -18 2938 70 2938 567 
L 2938 920 
L 2822 920 
L 2822 562 
C 2822 178 2650 128 2566 128 
C 2304 128 2304 458 2304 738 
L 2304 1653 
z
M 1965 870 
C 1965 317 1568 38 1216 38 
C 896 38 646 275 646 570 
C 646 761 730 1100 1101 1305 
C 1408 1478 1760 1504 1965 1504 
L 1965 870 
z
" transform="scale(0.015625)"/>
       <path id="CMR17-6e" d="M 2656 1933 
C 2656 2259 2592 2790 1837 2790 
C 1331 2790 1069 2400 973 2144 
L 966 2144 
L 966 2790 
L 211 2720 
L 211 2554 
C 589 2554 646 2515 646 2208 
L 646 428 
C 646 184 621 153 211 153 
L 211 -13 
C 365 0 646 0 813 0 
C 979 0 1267 0 1421 -13 
L 1421 153 
C 1011 153 986 178 986 428 
L 986 1658 
C 986 2247 1344 2688 1792 2688 
C 2266 2688 2317 2266 2317 1958 
L 2317 428 
C 2317 184 2291 153 1882 153 
L 1882 -13 
C 2035 0 2317 0 2483 0 
C 2650 0 2938 0 3091 -13 
L 3091 153 
C 2682 153 2656 178 2656 428 
L 2656 1933 
z
" transform="scale(0.015625)"/>
       <path id="CMR17-74" d="M 966 2560 
L 1862 2560 
L 1862 2725 
L 966 2725 
L 966 3904 
L 851 3904 
C 838 3245 614 2668 70 2668 
L 70 2560 
L 627 2560 
L 627 771 
C 627 650 627 -64 1370 -64 
C 1747 -64 1965 306 1965 777 
L 1965 1140 
L 1850 1140 
L 1850 783 
C 1850 344 1677 51 1408 51 
C 1222 51 966 178 966 758 
L 966 2560 
z
" transform="scale(0.015625)"/>
       <path id="CMR17-69" d="M 992 3909 
C 992 4049 877 4170 730 4170 
C 589 4170 467 4056 467 3909 
C 467 3769 582 3648 730 3648 
C 870 3648 992 3763 992 3909 
z
M 243 2706 
L 243 2541 
C 602 2541 653 2502 653 2197 
L 653 427 
C 653 184 627 153 218 153 
L 218 -13 
C 371 0 646 0 806 0 
C 960 0 1222 0 1370 -13 
L 1370 153 
C 992 153 979 191 979 420 
L 979 2776 
L 243 2706 
z
" transform="scale(0.015625)"/>
       <path id="CMR17-64" d="M 1869 4326 
L 1869 4160 
C 2246 4160 2304 4122 2304 3820 
L 2304 2345 
C 2278 2377 2016 2790 1498 2790 
C 845 2790 211 2208 211 1364 
C 211 525 806 -64 1434 -64 
C 1978 -64 2259 337 2291 380 
L 2291 -63 
L 3066 -63 
L 3066 128 
C 2688 128 2630 166 2630 473 
L 2630 4396 
L 1869 4326 
z
M 2291 755 
C 2291 563 2176 390 2029 262 
C 1811 70 1594 38 1472 38 
C 1286 38 621 134 621 1356 
C 621 2612 1363 2688 1530 2688 
C 1824 2688 2061 2522 2208 2291 
C 2291 2157 2291 2138 2291 2023 
L 2291 755 
z
" transform="scale(0.015625)"/>
      </defs>
      <use xlink:href="#CMR17-43" transform="scale(0.996264)"/>
      <use xlink:href="#CMR17-61" transform="translate(66.509881 0) scale(0.996264)"/>
      <use xlink:href="#CMR17-6e" transform="translate(112.200358 0) scale(0.996264)"/>
      <use xlink:href="#CMR17-74" transform="translate(160.493274 0) scale(0.996264)"/>
      <use xlink:href="#CMR17-69" transform="translate(195.774041 0) scale(0.996264)"/>
      <use xlink:href="#CMR17-64" transform="translate(220.6451 0) scale(0.996264)"/>
      <use xlink:href="#CMR17-61" transform="translate(271.54047 0) scale(0.996264)"/>
      <use xlink:href="#CMR17-64" transform="translate(317.230947 0) scale(0.996264)"/>
     </g>
    </g>
   </g>
   <g id="line2d_10">
    <path d="M 89.794072 264.53077 
L 105.059972 264.09089 
L 120.325872 263.222195 
L 135.591771 261.49864 
L 150.857671 258.09856 
L 166.123571 251.626236 
L 181.389471 240.142321 
L 196.65537 222.738007 
L 211.92127 216.85634 
L 227.18717 256.309991 
L 242.453069 261.199853 
L 257.718969 179.58134 
L 272.984869 38.709036 
L 288.250768 38.365985 
L 303.516668 38.365985 
L 318.782568 38.365985 
L 334.048468 38.365985 
L 349.314367 38.365985 
L 364.580267 38.365985 
L 379.846167 38.365985 
L 395.112066 38.365985 
L 410.375277 38.365985 
" clip-path="url(#pe45c1d37ea)" style="fill: none; stroke: #ffb482; stroke-width: 1.2; stroke-linecap: round"/>
   </g>
   <g id="LineCollection_1">
    <path d="M 89.794072 264.53077 
L 89.794072 264.53077 
" clip-path="url(#pe45c1d37ea)" style="fill: none; stroke: #ffb482; stroke-width: 1.2; stroke-linecap: round"/>
    <path d="M 105.059972 264.095039 
L 105.059972 264.088123 
" clip-path="url(#pe45c1d37ea)" style="fill: none; stroke: #ffb482; stroke-width: 1.2; stroke-linecap: round"/>
    <path d="M 120.325872 263.230495 
L 120.325872 263.213896 
" clip-path="url(#pe45c1d37ea)" style="fill: none; stroke: #ffb482; stroke-width: 1.2; stroke-linecap: round"/>
    <path d="M 135.591771 261.519389 
L 135.591771 261.477891 
" clip-path="url(#pe45c1d37ea)" style="fill: none; stroke: #ffb482; stroke-width: 1.2; stroke-linecap: round"/>
    <path d="M 150.857671 258.128992 
L 150.857671 258.066745 
" clip-path="url(#pe45c1d37ea)" style="fill: none; stroke: #ffb482; stroke-width: 1.2; stroke-linecap: round"/>
    <path d="M 166.123571 251.695434 
L 166.123571 251.562536 
" clip-path="url(#pe45c1d37ea)" style="fill: none; stroke: #ffb482; stroke-width: 1.2; stroke-linecap: round"/>
    <path d="M 181.389471 240.244718 
L 181.389471 240.034426 
" clip-path="url(#pe45c1d37ea)" style="fill: none; stroke: #ffb482; stroke-width: 1.2; stroke-linecap: round"/>
    <path d="M 196.65537 223.035514 
L 196.65537 222.464051 
" clip-path="url(#pe45c1d37ea)" style="fill: none; stroke: #ffb482; stroke-width: 1.2; stroke-linecap: round"/>
    <path d="M 211.92127 217.669738 
L 211.92127 216.01666 
" clip-path="url(#pe45c1d37ea)" style="fill: none; stroke: #ffb482; stroke-width: 1.2; stroke-linecap: round"/>
    <path d="M 227.18717 256.855034 
L 227.18717 255.796694 
" clip-path="url(#pe45c1d37ea)" style="fill: none; stroke: #ffb482; stroke-width: 1.2; stroke-linecap: round"/>
    <path d="M 242.453069 262.198679 
L 242.453069 260.101467 
" clip-path="url(#pe45c1d37ea)" style="fill: none; stroke: #ffb482; stroke-width: 1.2; stroke-linecap: round"/>
    <path d="M 257.718969 203.733872 
L 257.718969 155.86568 
" clip-path="url(#pe45c1d37ea)" style="fill: none; stroke: #ffb482; stroke-width: 1.2; stroke-linecap: round"/>
    <path d="M 272.984869 38.923512 
L 272.984869 38.529211 
" clip-path="url(#pe45c1d37ea)" style="fill: none; stroke: #ffb482; stroke-width: 1.2; stroke-linecap: round"/>
    <path d="M 288.250768 38.365985 
L 288.250768 38.365985 
" clip-path="url(#pe45c1d37ea)" style="fill: none; stroke: #ffb482; stroke-width: 1.2; stroke-linecap: round"/>
    <path d="M 303.516668 38.365985 
L 303.516668 38.365985 
" clip-path="url(#pe45c1d37ea)" style="fill: none; stroke: #ffb482; stroke-width: 1.2; stroke-linecap: round"/>
    <path d="M 318.782568 38.365985 
L 318.782568 38.365985 
" clip-path="url(#pe45c1d37ea)" style="fill: none; stroke: #ffb482; stroke-width: 1.2; stroke-linecap: round"/>
    <path d="M 334.048468 38.365985 
L 334.048468 38.365985 
" clip-path="url(#pe45c1d37ea)" style="fill: none; stroke: #ffb482; stroke-width: 1.2; stroke-linecap: round"/>
    <path d="M 349.314367 38.365985 
L 349.314367 38.365985 
" clip-path="url(#pe45c1d37ea)" style="fill: none; stroke: #ffb482; stroke-width: 1.2; stroke-linecap: round"/>
    <path d="M 364.580267 38.365985 
L 364.580267 38.365985 
" clip-path="url(#pe45c1d37ea)" style="fill: none; stroke: #ffb482; stroke-width: 1.2; stroke-linecap: round"/>
    <path d="M 379.846167 38.365985 
L 379.846167 38.365985 
" clip-path="url(#pe45c1d37ea)" style="fill: none; stroke: #ffb482; stroke-width: 1.2; stroke-linecap: round"/>
    <path d="M 395.112066 38.365985 
L 395.112066 38.365985 
" clip-path="url(#pe45c1d37ea)" style="fill: none; stroke: #ffb482; stroke-width: 1.2; stroke-linecap: round"/>
    <path d="M 410.375277 38.365985 
L 410.375277 38.365985 
" clip-path="url(#pe45c1d37ea)" style="fill: none; stroke: #ffb482; stroke-width: 1.2; stroke-linecap: round"/>
   </g>
   <g id="line2d_11">
    <path d="M 89.794072 38.780966 
L 105.059972 39.223613 
L 120.325872 40.108906 
L 135.591771 41.879493 
L 150.857671 45.420666 
L 166.123571 52.503013 
L 181.389471 66.667707 
L 196.65537 94.997094 
L 211.92127 151.61852 
L 227.18717 228.278007 
L 242.453069 260.577382 
L 257.718969 264.866905 
L 272.984869 264.945751 
L 288.250768 264.945751 
L 303.516668 264.945751 
L 318.782568 264.945751 
L 334.048468 264.945751 
L 349.314367 264.945751 
L 364.580267 264.945751 
L 379.846167 264.945751 
L 395.112066 264.945751 
L 410.375277 264.945751 
" clip-path="url(#pe45c1d37ea)" style="fill: none; stroke-dasharray: 4.8,1.8; stroke-dashoffset: 0; stroke: #ffb482; stroke-width: 1.2"/>
   </g>
   <g id="LineCollection_2">
    <path d="M 89.794072 38.780966 
L 89.794072 38.780966 
" clip-path="url(#pe45c1d37ea)" style="fill: none; stroke: #ffb482; stroke-width: 1.2; stroke-linecap: round"/>
    <path d="M 105.059972 39.223613 
L 105.059972 39.223613 
" clip-path="url(#pe45c1d37ea)" style="fill: none; stroke: #ffb482; stroke-width: 1.2; stroke-linecap: round"/>
    <path d="M 120.325872 40.108906 
L 120.325872 40.108906 
" clip-path="url(#pe45c1d37ea)" style="fill: none; stroke: #ffb482; stroke-width: 1.2; stroke-linecap: round"/>
    <path d="M 135.591771 41.879493 
L 135.591771 41.879493 
" clip-path="url(#pe45c1d37ea)" style="fill: none; stroke: #ffb482; stroke-width: 1.2; stroke-linecap: round"/>
    <path d="M 150.857671 45.420666 
L 150.857671 45.420666 
" clip-path="url(#pe45c1d37ea)" style="fill: none; stroke: #ffb482; stroke-width: 1.2; stroke-linecap: round"/>
    <path d="M 166.123571 52.503013 
L 166.123571 52.503013 
" clip-path="url(#pe45c1d37ea)" style="fill: none; stroke: #ffb482; stroke-width: 1.2; stroke-linecap: round"/>
    <path d="M 181.389471 66.667707 
L 181.389471 66.667707 
" clip-path="url(#pe45c1d37ea)" style="fill: none; stroke: #ffb482; stroke-width: 1.2; stroke-linecap: round"/>
    <path d="M 196.65537 94.997094 
L 196.65537 94.997094 
" clip-path="url(#pe45c1d37ea)" style="fill: none; stroke: #ffb482; stroke-width: 1.2; stroke-linecap: round"/>
    <path d="M 211.92127 151.633736 
L 211.92127 151.599154 
" clip-path="url(#pe45c1d37ea)" style="fill: none; stroke: #ffb482; stroke-width: 1.2; stroke-linecap: round"/>
    <path d="M 227.18717 228.507768 
L 227.18717 228.055301 
" clip-path="url(#pe45c1d37ea)" style="fill: none; stroke: #ffb482; stroke-width: 1.2; stroke-linecap: round"/>
    <path d="M 242.453069 260.724008 
L 242.453069 260.396139 
" clip-path="url(#pe45c1d37ea)" style="fill: none; stroke: #ffb482; stroke-width: 1.2; stroke-linecap: round"/>
    <path d="M 257.718969 264.88627 
L 257.718969 264.846155 
" clip-path="url(#pe45c1d37ea)" style="fill: none; stroke: #ffb482; stroke-width: 1.2; stroke-linecap: round"/>
    <path d="M 272.984869 264.945751 
L 272.984869 264.945751 
" clip-path="url(#pe45c1d37ea)" style="fill: none; stroke: #ffb482; stroke-width: 1.2; stroke-linecap: round"/>
    <path d="M 288.250768 264.945751 
L 288.250768 264.945751 
" clip-path="url(#pe45c1d37ea)" style="fill: none; stroke: #ffb482; stroke-width: 1.2; stroke-linecap: round"/>
    <path d="M 303.516668 264.945751 
L 303.516668 264.945751 
" clip-path="url(#pe45c1d37ea)" style="fill: none; stroke: #ffb482; stroke-width: 1.2; stroke-linecap: round"/>
    <path d="M 318.782568 264.945751 
L 318.782568 264.945751 
" clip-path="url(#pe45c1d37ea)" style="fill: none; stroke: #ffb482; stroke-width: 1.2; stroke-linecap: round"/>
    <path d="M 334.048468 264.945751 
L 334.048468 264.945751 
" clip-path="url(#pe45c1d37ea)" style="fill: none; stroke: #ffb482; stroke-width: 1.2; stroke-linecap: round"/>
    <path d="M 349.314367 264.945751 
L 349.314367 264.945751 
" clip-path="url(#pe45c1d37ea)" style="fill: none; stroke: #ffb482; stroke-width: 1.2; stroke-linecap: round"/>
    <path d="M 364.580267 264.945751 
L 364.580267 264.945751 
" clip-path="url(#pe45c1d37ea)" style="fill: none; stroke: #ffb482; stroke-width: 1.2; stroke-linecap: round"/>
    <path d="M 379.846167 264.945751 
L 379.846167 264.945751 
" clip-path="url(#pe45c1d37ea)" style="fill: none; stroke: #ffb482; stroke-width: 1.2; stroke-linecap: round"/>
    <path d="M 395.112066 264.945751 
L 395.112066 264.945751 
" clip-path="url(#pe45c1d37ea)" style="fill: none; stroke: #ffb482; stroke-width: 1.2; stroke-linecap: round"/>
    <path d="M 410.375277 264.945751 
L 410.375277 264.945751 
" clip-path="url(#pe45c1d37ea)" style="fill: none; stroke: #ffb482; stroke-width: 1.2; stroke-linecap: round"/>
   </g>
   <g id="line2d_12">
    <path d="M 89.794072 264.53077 
L 105.059972 264.09089 
L 120.325872 263.222195 
L 135.591771 261.49864 
L 150.857671 258.09856 
L 166.123571 251.638685 
L 181.389471 240.255749 
L 196.65537 223.699381 
L 211.92127 220.935605 
L 227.18717 257.50237 
L 242.453069 264.734111 
L 257.718969 264.918086 
L 272.984869 264.912552 
L 288.250768 264.912552 
L 303.516668 264.912552 
L 318.782568 264.912552 
L 334.048468 264.912552 
L 349.314367 264.912552 
L 364.580267 264.912552 
L 379.846167 264.912552 
L 395.112066 264.912552 
L 410.375277 264.912552 
" clip-path="url(#pe45c1d37ea)" style="fill: none; stroke: #1f77b4; stroke-width: 1.2; stroke-linecap: round"/>
   </g>
   <g id="LineCollection_3">
    <path d="M 89.794072 264.53077 
L 89.794072 264.53077 
" clip-path="url(#pe45c1d37ea)" style="fill: none; stroke: #1f77b4; stroke-width: 1.2; stroke-linecap: round"/>
    <path d="M 105.059972 264.095039 
L 105.059972 264.088123 
" clip-path="url(#pe45c1d37ea)" style="fill: none; stroke: #1f77b4; stroke-width: 1.2; stroke-linecap: round"/>
    <path d="M 120.325872 263.230495 
L 120.325872 263.213896 
" clip-path="url(#pe45c1d37ea)" style="fill: none; stroke: #1f77b4; stroke-width: 1.2; stroke-linecap: round"/>
    <path d="M 135.591771 261.518006 
L 135.591771 261.479274 
" clip-path="url(#pe45c1d37ea)" style="fill: none; stroke: #1f77b4; stroke-width: 1.2; stroke-linecap: round"/>
    <path d="M 150.857671 258.127609 
L 150.857671 258.07086 
" clip-path="url(#pe45c1d37ea)" style="fill: none; stroke: #1f77b4; stroke-width: 1.2; stroke-linecap: round"/>
    <path d="M 166.123571 251.713417 
L 166.123571 251.572254 
" clip-path="url(#pe45c1d37ea)" style="fill: none; stroke: #1f77b4; stroke-width: 1.2; stroke-linecap: round"/>
    <path d="M 181.389471 240.356763 
L 181.389471 240.146471 
" clip-path="url(#pe45c1d37ea)" style="fill: none; stroke: #1f77b4; stroke-width: 1.2; stroke-linecap: round"/>
    <path d="M 196.65537 223.985718 
L 196.65537 223.411487 
" clip-path="url(#pe45c1d37ea)" style="fill: none; stroke: #1f77b4; stroke-width: 1.2; stroke-linecap: round"/>
    <path d="M 211.92127 221.609397 
L 211.92127 220.196835 
" clip-path="url(#pe45c1d37ea)" style="fill: none; stroke: #1f77b4; stroke-width: 1.2; stroke-linecap: round"/>
    <path d="M 227.18717 257.741884 
L 227.18717 257.283675 
" clip-path="url(#pe45c1d37ea)" style="fill: none; stroke: #1f77b4; stroke-width: 1.2; stroke-linecap: round"/>
    <path d="M 242.453069 264.77841 
L 242.453069 264.691229 
" clip-path="url(#pe45c1d37ea)" style="fill: none; stroke: #1f77b4; stroke-width: 1.2; stroke-linecap: round"/>
    <path d="M 257.718969 264.931918 
L 257.718969 264.90287 
" clip-path="url(#pe45c1d37ea)" style="fill: none; stroke: #1f77b4; stroke-width: 1.2; stroke-linecap: round"/>
    <path d="M 272.984869 264.930535 
L 272.984869 264.891803 
" clip-path="url(#pe45c1d37ea)" style="fill: none; stroke: #1f77b4; stroke-width: 1.2; stroke-linecap: round"/>
    <path d="M 288.250768 264.930535 
L 288.250768 264.89042 
" clip-path="url(#pe45c1d37ea)" style="fill: none; stroke: #1f77b4; stroke-width: 1.2; stroke-linecap: round"/>
    <path d="M 303.516668 264.930535 
L 303.516668 264.893187 
" clip-path="url(#pe45c1d37ea)" style="fill: none; stroke: #1f77b4; stroke-width: 1.2; stroke-linecap: round"/>
    <path d="M 318.782568 264.929152 
L 318.782568 264.89042 
" clip-path="url(#pe45c1d37ea)" style="fill: none; stroke: #1f77b4; stroke-width: 1.2; stroke-linecap: round"/>
    <path d="M 334.048468 264.930535 
L 334.048468 264.891803 
" clip-path="url(#pe45c1d37ea)" style="fill: none; stroke: #1f77b4; stroke-width: 1.2; stroke-linecap: round"/>
    <path d="M 349.314367 264.929152 
L 349.314367 264.89042 
" clip-path="url(#pe45c1d37ea)" style="fill: none; stroke: #1f77b4; stroke-width: 1.2; stroke-linecap: round"/>
    <path d="M 364.580267 264.930535 
L 364.580267 264.893187 
" clip-path="url(#pe45c1d37ea)" style="fill: none; stroke: #1f77b4; stroke-width: 1.2; stroke-linecap: round"/>
    <path d="M 379.846167 264.930535 
L 379.846167 264.89042 
" clip-path="url(#pe45c1d37ea)" style="fill: none; stroke: #1f77b4; stroke-width: 1.2; stroke-linecap: round"/>
    <path d="M 395.112066 264.930535 
L 395.112066 264.893187 
" clip-path="url(#pe45c1d37ea)" style="fill: none; stroke: #1f77b4; stroke-width: 1.2; stroke-linecap: round"/>
    <path d="M 410.375277 264.929152 
L 410.375277 264.89042 
" clip-path="url(#pe45c1d37ea)" style="fill: none; stroke: #1f77b4; stroke-width: 1.2; stroke-linecap: round"/>
   </g>
   <g id="line2d_13"/>
   <g id="line2d_14"/>
   <g id="line2d_15"/>
   <g id="line2d_16"/>
   <g id="line2d_17">
    <path d="M 283.677711 276.274739 
L 283.677711 27.036997 
" clip-path="url(#pe45c1d37ea)" style="fill: none; stroke-dasharray: 1.2,1.98; stroke-dashoffset: 0; stroke: #000000; stroke-width: 1.2"/>
   </g>
   <g id="line2d_18"/>
   <g id="line2d_19"/>
   <g id="line2d_20"/>
   <g id="patch_3">
    <path d="M 73.765012 276.274739 
L 73.765012 27.036997 
" style="fill: none; stroke: #ffffff; stroke-linejoin: miter; stroke-linecap: square"/>
   </g>
   <g id="patch_4">
    <path d="M 73.765012 276.274739 
L 426.404338 276.274739 
" style="fill: none; stroke: #ffffff; stroke-linejoin: miter; stroke-linecap: square"/>
   </g>
   <g id="text_12">
    <!-- union_strategy = QU -->
    <g style="fill: #262626" transform="translate(165.024515 21.036997) scale(0.2 -0.2)">
     <defs>
      <path id="CMR17-75" d="M 1882 2693 
L 1882 2528 
C 2259 2528 2317 2489 2317 2186 
L 2317 1032 
C 2317 500 2029 38 1555 38 
C 1030 38 986 348 986 678 
L 986 2763 
L 211 2693 
L 211 2528 
C 467 2528 640 2528 646 2274 
L 646 1058 
C 646 633 646 361 813 183 
C 896 101 1056 -64 1517 -64 
C 2061 -64 2272 377 2323 506 
L 2330 506 
L 2330 -63 
L 3091 -63 
L 3091 128 
C 2714 128 2656 166 2656 473 
L 2656 2763 
L 1882 2693 
z
" transform="scale(0.015625)"/>
      <path id="CMR17-6f" d="M 2758 1356 
C 2758 2176 2163 2816 1466 2816 
C 768 2816 173 2176 173 1356 
C 173 551 768 -64 1466 -64 
C 2163 -64 2758 551 2758 1356 
z
M 1466 51 
C 1165 51 909 230 762 480 
C 602 767 582 1126 582 1408 
C 582 1677 595 2010 762 2298 
C 890 2509 1139 2714 1466 2714 
C 1754 2714 1997 2554 2150 2330 
C 2349 2029 2349 1607 2349 1408 
C 2349 1158 2336 775 2163 467 
C 1984 173 1709 51 1466 51 
z
" transform="scale(0.015625)"/>
      <path id="CMR17-73" d="M 1978 2697 
C 1978 2813 1971 2819 1933 2819 
C 1907 2819 1901 2813 1824 2717 
C 1805 2691 1747 2626 1728 2601 
C 1523 2819 1235 2819 1126 2819 
C 416 2819 160 2447 160 2076 
C 160 1498 813 1365 998 1325 
C 1402 1243 1542 1217 1677 1101 
C 1760 1025 1901 884 1901 654 
C 1901 384 1747 38 1158 38 
C 602 38 403 460 288 1021 
C 269 1110 269 1117 218 1117 
C 166 1117 160 1110 160 983 
L 160 63 
C 160 -51 166 -58 205 -58 
C 237 -58 243 -51 275 0 
C 314 57 410 211 448 276 
C 576 103 800 -64 1158 -64 
C 1792 -64 2131 283 2131 784 
C 2131 1112 1958 1285 1875 1362 
C 1683 1561 1459 1606 1190 1657 
C 838 1735 390 1825 390 2217 
C 390 2383 480 2737 1126 2737 
C 1811 2737 1850 2094 1862 1888 
C 1869 1856 1901 1849 1920 1849 
C 1978 1849 1978 1869 1978 1978 
L 1978 2697 
z
" transform="scale(0.015625)"/>
      <path id="CMR17-72" d="M 960 1497 
C 960 2112 1222 2688 1702 2688 
C 1747 2688 1792 2682 1837 2662 
C 1837 2662 1696 2617 1696 2452 
C 1696 2298 1818 2234 1914 2234 
C 1990 2234 2131 2279 2131 2458 
C 2131 2663 1926 2790 1709 2790 
C 1222 2790 1011 2317 947 2093 
L 941 2093 
L 941 2790 
L 198 2720 
L 198 2554 
C 576 2554 634 2515 634 2208 
L 634 428 
C 634 184 608 153 198 153 
L 198 -13 
C 352 0 646 0 813 0 
C 998 0 1325 0 1498 -13 
L 1498 153 
C 1037 153 960 153 960 440 
L 960 1497 
z
" transform="scale(0.015625)"/>
      <path id="CMR17-65" d="M 2438 1472 
C 2464 1498 2464 1511 2464 1576 
C 2464 2238 2118 2816 1389 2816 
C 710 2816 173 2169 173 1383 
C 173 551 781 -64 1459 -64 
C 2176 -64 2458 607 2458 740 
C 2458 784 2419 784 2406 784 
C 2362 784 2355 771 2330 696 
C 2189 265 1837 51 1504 51 
C 1229 51 954 203 781 480 
C 582 803 582 1176 582 1472 
L 2438 1472 
z
M 589 1568 
C 634 2505 1126 2714 1382 2714 
C 1818 2714 2112 2297 2118 1568 
L 589 1568 
z
" transform="scale(0.015625)"/>
      <path id="CMR17-67" d="M 710 1164 
C 832 1068 1043 960 1299 960 
C 1805 960 2240 1357 2240 1888 
C 2240 2054 2189 2310 1997 2509 
C 2176 2692 2438 2752 2586 2752 
C 2611 2752 2650 2752 2682 2734 
C 2656 2728 2598 2703 2598 2605 
C 2598 2527 2656 2471 2739 2471 
C 2835 2471 2886 2533 2886 2614 
C 2886 2731 2790 2854 2586 2854 
C 2330 2854 2106 2738 1926 2580 
C 1734 2753 1504 2816 1299 2816 
C 794 2816 358 2419 358 1888 
C 358 1522 570 1292 634 1228 
C 442 1004 442 743 442 711 
C 442 545 506 302 723 168 
C 390 85 128 -169 128 -486 
C 128 -943 736 -1280 1466 -1280 
C 2170 -1280 2803 -956 2803 -479 
C 2803 384 1856 384 1363 384 
C 1216 384 954 384 922 391 
C 723 423 589 602 589 826 
C 589 883 589 1024 710 1164 
z
M 1299 1068 
C 736 1068 736 1760 736 1889 
C 736 2016 736 2708 1299 2708 
C 1862 2708 1862 2016 1862 1889 
C 1862 1760 1862 1068 1299 1068 
z
M 1466 -1171 
C 826 -1171 384 -835 384 -486 
C 384 -289 493 -105 634 -4 
C 794 104 858 104 1293 104 
C 1818 104 2547 104 2547 -486 
C 2547 -835 2106 -1171 1466 -1171 
z
" transform="scale(0.015625)"/>
      <path id="CMR17-79" d="M 2496 2197 
C 2656 2586 2944 2586 3034 2586 
L 3034 2752 
C 2912 2752 2752 2752 2630 2752 
C 2496 2752 2285 2752 2157 2758 
L 2157 2592 
C 2400 2573 2406 2394 2406 2343 
C 2406 2280 2394 2248 2362 2171 
L 1664 449 
L 902 2306 
C 870 2382 870 2426 870 2433 
C 870 2573 1018 2586 1171 2586 
L 1171 2758 
C 1018 2752 742 2752 582 2752 
C 410 2752 205 2752 64 2758 
L 64 2586 
C 410 2586 448 2554 531 2350 
L 1485 15 
C 1197 -738 1030 -1178 627 -1178 
C 557 -1178 397 -1159 282 -1044 
C 429 -1031 493 -942 493 -833 
C 493 -725 416 -629 288 -629 
C 147 -629 77 -725 77 -840 
C 77 -1095 339 -1280 627 -1280 
C 998 -1280 1229 -922 1357 -604 
L 2496 2197 
z
" transform="scale(0.015625)"/>
      <path id="CMR17-3d" d="M 4115 2017 
C 4211 2017 4307 2017 4307 2125 
C 4307 2240 4198 2240 4090 2240 
L 512 2240 
C 403 2240 294 2240 294 2125 
C 294 2017 390 2017 486 2017 
L 4115 2017 
z
M 4090 896 
C 4198 896 4307 896 4307 1011 
C 4307 1119 4211 1119 4115 1119 
L 486 1119 
C 390 1119 294 1119 294 1011 
C 294 896 403 896 512 896 
L 4090 896 
z
" transform="scale(0.015625)"/>
      <path id="CMR17-51" d="M 3027 83 
C 3789 408 4307 1236 4307 2193 
C 4307 3499 3366 4480 2304 4480 
C 1216 4480 294 3488 294 2199 
C 294 928 1216 -64 2304 -64 
C 2451 -64 2656 -45 2899 38 
C 3008 -747 3078 -1216 3629 -1216 
C 4307 -1216 4339 -213 4339 -33 
C 4339 32 4339 76 4294 76 
C 4262 76 4256 31 4256 18 
C 4211 -603 3866 -732 3661 -732 
C 3283 -732 3149 -394 3027 83 
z
M 1958 100 
C 1293 310 768 1017 768 2199 
C 768 3711 1606 4365 2298 4365 
C 3014 4365 3834 3686 3834 2198 
C 3834 1124 3405 527 2976 254 
C 2880 579 2726 960 2310 960 
C 2003 960 1830 692 1830 450 
C 1830 304 1888 183 1958 100 
z
M 2874 192 
C 2618 57 2413 57 2304 57 
C 2016 57 1933 315 1933 454 
C 1933 650 2067 858 2310 858 
C 2720 858 2822 493 2874 192 
z
" transform="scale(0.015625)"/>
      <path id="CMR17-55" d="M 3456 1433 
C 3456 579 2899 38 2291 38 
C 1965 38 1670 210 1491 477 
C 1286 783 1261 1178 1261 1401 
L 1261 3874 
C 1261 4160 1331 4160 1773 4160 
L 1773 4320 
C 1587 4320 1248 4320 1050 4320 
C 851 4320 512 4320 326 4320 
L 326 4160 
C 768 4160 838 4160 838 3874 
L 838 1433 
C 838 516 1536 -128 2278 -128 
C 3110 -128 3590 719 3590 1344 
L 3590 3766 
C 3590 4122 3917 4160 4102 4160 
L 4102 4326 
C 3955 4320 3686 4320 3526 4320 
C 3366 4320 3091 4320 2944 4326 
L 2944 4160 
C 3456 4160 3456 3861 3456 3702 
L 3456 1433 
z
" transform="scale(0.015625)"/>
     </defs>
     <use xlink:href="#CMR17-75" transform="scale(0.996264)"/>
     <use xlink:href="#CMR17-6e" transform="translate(50.89537 0) scale(0.996264)"/>
     <use xlink:href="#CMR17-69" transform="translate(101.79074 0) scale(0.996264)"/>
     <use xlink:href="#CMR17-6f" transform="translate(126.661798 0) scale(0.996264)"/>
     <use xlink:href="#CMR17-6e" transform="translate(172.352275 0) scale(0.996264)"/>
     <use xlink:href="#CMR17-73" transform="translate(256.144864 0) scale(0.996264)"/>
     <use xlink:href="#CMR17-74" transform="translate(291.946202 0) scale(0.996264)"/>
     <use xlink:href="#CMR17-72" transform="translate(327.22697 0) scale(0.996264)"/>
     <use xlink:href="#CMR17-61" transform="translate(362.507738 0) scale(0.996264)"/>
     <use xlink:href="#CMR17-74" transform="translate(408.198215 0) scale(0.996264)"/>
     <use xlink:href="#CMR17-65" transform="translate(443.478983 0) scale(0.996264)"/>
     <use xlink:href="#CMR17-67" transform="translate(483.964643 0) scale(0.996264)"/>
     <use xlink:href="#CMR17-79" transform="translate(529.65512 0) scale(0.996264)"/>
     <use xlink:href="#CMR17-3d" transform="translate(608.024002 0) scale(0.996264)"/>
     <use xlink:href="#CMR17-51" transform="translate(709.814757 0) scale(0.996264)"/>
     <use xlink:href="#CMR17-55" transform="translate(781.529546 0) scale(0.996264)"/>
     <path d="M 228.730274 0 
L 256.144864 0 
L 256.144864 0.3985 
L 228.730274 0.3985 
L 228.730274 0 
z
"/>
    </g>
   </g>
  </g>
  <g id="axes_2">
   <g id="patch_5">
    <path d="M 448.004338 276.274739 
L 800.643663 276.274739 
L 800.643663 27.036997 
L 448.004338 27.036997 
z
" style="fill: #eaeaf2"/>
   </g>
   <g id="matplotlib.axis_3">
    <g id="xtick_5">
     <g id="line2d_21">
      <path d="M 509.831097 276.274739 
L 509.831097 27.036997 
" clip-path="url(#p3602950bda)" style="fill: none; stroke: #ffffff; stroke-width: 0.8; stroke-linecap: round"/>
     </g>
     <g id="text_13">
      <!-- $\mathdefault{2^{7}}$ -->
      <g style="fill: #262626" transform="translate(501.84782 298.411736) scale(0.2 -0.2)">
       <use xlink:href="#CMR17-32" transform="scale(0.996264)"/>
       <use xlink:href="#CMR17-37" transform="translate(45.690477 36.153639) scale(0.697382)"/>
      </g>
     </g>
    </g>
    <g id="xtick_6">
     <g id="line2d_22">
      <path d="M 586.160596 276.274739 
L 586.160596 27.036997 
" clip-path="url(#p3602950bda)" style="fill: none; stroke: #ffffff; stroke-width: 0.8; stroke-linecap: round"/>
     </g>
     <g id="text_14">
      <!-- $\mathdefault{2^{12}}$ -->
      <g style="fill: #262626" transform="translate(574.76309 298.411736) scale(0.2 -0.2)">
       <use xlink:href="#CMR17-32" transform="scale(0.996264)"/>
       <use xlink:href="#CMR17-31" transform="translate(45.690477 36.153639) scale(0.697382)"/>
       <use xlink:href="#CMR17-32" transform="translate(77.673659 36.153639) scale(0.697382)"/>
      </g>
     </g>
    </g>
    <g id="xtick_7">
     <g id="line2d_23">
      <path d="M 662.490094 276.274739 
L 662.490094 27.036997 
" clip-path="url(#p3602950bda)" style="fill: none; stroke: #ffffff; stroke-width: 0.8; stroke-linecap: round"/>
     </g>
     <g id="text_15">
      <!-- $\mathdefault{2^{17}}$ -->
      <g style="fill: #262626" transform="translate(651.092588 298.411736) scale(0.2 -0.2)">
       <use xlink:href="#CMR17-32" transform="scale(0.996264)"/>
       <use xlink:href="#CMR17-31" transform="translate(45.690477 36.153639) scale(0.697382)"/>
       <use xlink:href="#CMR17-37" transform="translate(77.673659 36.153639) scale(0.697382)"/>
      </g>
     </g>
    </g>
    <g id="xtick_8">
     <g id="line2d_24">
      <path d="M 738.819593 276.274739 
L 738.819593 27.036997 
" clip-path="url(#p3602950bda)" style="fill: none; stroke: #ffffff; stroke-width: 0.8; stroke-linecap: round"/>
     </g>
     <g id="text_16">
      <!-- $\mathdefault{2^{22}}$ -->
      <g style="fill: #262626" transform="translate(727.422087 298.411736) scale(0.2 -0.2)">
       <use xlink:href="#CMR17-32" transform="scale(0.996264)"/>
       <use xlink:href="#CMR17-32" transform="translate(45.690477 36.153639) scale(0.697382)"/>
       <use xlink:href="#CMR17-32" transform="translate(77.673659 36.153639) scale(0.697382)"/>
      </g>
     </g>
    </g>
    <g id="text_17">
     <!-- N -->
     <g style="fill: #262626" transform="translate(617.416759 320.124366) scale(0.2 -0.2)">
      <use xlink:href="#CMR17-4e" transform="scale(0.996264)"/>
     </g>
    </g>
   </g>
   <g id="matplotlib.axis_4">
    <g id="ytick_6">
     <g id="line2d_25">
      <path d="M 448.004338 264.973416 
L 800.643663 264.973416 
" clip-path="url(#p3602950bda)" style="fill: none; stroke: #ffffff; stroke-width: 0.8; stroke-linecap: round"/>
     </g>
    </g>
    <g id="ytick_7">
     <g id="line2d_26">
      <path d="M 448.004338 209.642582 
L 800.643663 209.642582 
" clip-path="url(#p3602950bda)" style="fill: none; stroke: #ffffff; stroke-width: 0.8; stroke-linecap: round"/>
     </g>
    </g>
    <g id="ytick_8">
     <g id="line2d_27">
      <path d="M 448.004338 154.311748 
L 800.643663 154.311748 
" clip-path="url(#p3602950bda)" style="fill: none; stroke: #ffffff; stroke-width: 0.8; stroke-linecap: round"/>
     </g>
    </g>
    <g id="ytick_9">
     <g id="line2d_28">
      <path d="M 448.004338 98.980914 
L 800.643663 98.980914 
" clip-path="url(#p3602950bda)" style="fill: none; stroke: #ffffff; stroke-width: 0.8; stroke-linecap: round"/>
     </g>
    </g>
    <g id="ytick_10">
     <g id="line2d_29">
      <path d="M 448.004338 43.65008 
L 800.643663 43.65008 
" clip-path="url(#p3602950bda)" style="fill: none; stroke: #ffffff; stroke-width: 0.8; stroke-linecap: round"/>
     </g>
    </g>
   </g>
   <g id="line2d_30">
    <path d="M 464.033398 264.53077 
L 479.299298 264.088123 
L 494.565197 263.20283 
L 509.831097 261.436393 
L 525.096997 257.903519 
L 540.362896 250.877886 
L 555.628796 237.097742 
L 570.894696 211.966477 
L 586.160596 186.277754 
L 601.426495 136.444038 
L 616.692395 53.104736 
L 631.958295 38.641256 
L 647.224194 38.365985 
L 662.490094 38.365985 
L 677.755994 38.365985 
L 693.021893 38.365985 
L 708.287793 38.365985 
L 723.553693 38.365985 
L 738.819593 38.365985 
L 754.085492 38.365985 
L 769.351392 38.365985 
L 784.614603 38.365985 
" clip-path="url(#p3602950bda)" style="fill: none; stroke: #ffb482; stroke-width: 1.2; stroke-linecap: round"/>
   </g>
   <g id="LineCollection_4">
    <path d="M 464.033398 264.53077 
L 464.033398 264.53077 
" clip-path="url(#p3602950bda)" style="fill: none; stroke: #ffb482; stroke-width: 1.2; stroke-linecap: round"/>
    <path d="M 479.299298 264.088123 
L 479.299298 264.088123 
" clip-path="url(#p3602950bda)" style="fill: none; stroke: #ffb482; stroke-width: 1.2; stroke-linecap: round"/>
    <path d="M 494.565197 263.20283 
L 494.565197 263.20283 
" clip-path="url(#p3602950bda)" style="fill: none; stroke: #ffb482; stroke-width: 1.2; stroke-linecap: round"/>
    <path d="M 509.831097 261.440543 
L 509.831097 261.432243 
" clip-path="url(#p3602950bda)" style="fill: none; stroke: #ffb482; stroke-width: 1.2; stroke-linecap: round"/>
    <path d="M 525.096997 257.911819 
L 525.096997 257.896603 
" clip-path="url(#p3602950bda)" style="fill: none; stroke: #ffb482; stroke-width: 1.2; stroke-linecap: round"/>
    <path d="M 540.362896 250.894486 
L 540.362896 250.86267 
" clip-path="url(#p3602950bda)" style="fill: none; stroke: #ffb482; stroke-width: 1.2; stroke-linecap: round"/>
    <path d="M 555.628796 237.137857 
L 555.628796 237.050711 
" clip-path="url(#p3602950bda)" style="fill: none; stroke: #ffb482; stroke-width: 1.2; stroke-linecap: round"/>
    <path d="M 570.894696 212.13119 
L 570.894696 211.796266 
" clip-path="url(#p3602950bda)" style="fill: none; stroke: #ffb482; stroke-width: 1.2; stroke-linecap: round"/>
    <path d="M 586.160596 187.347092 
L 586.160596 185.264716 
" clip-path="url(#p3602950bda)" style="fill: none; stroke: #ffb482; stroke-width: 1.2; stroke-linecap: round"/>
    <path d="M 601.426495 136.955918 
L 601.426495 135.847814 
" clip-path="url(#p3602950bda)" style="fill: none; stroke: #ffb482; stroke-width: 1.2; stroke-linecap: round"/>
    <path d="M 616.692395 53.342693 
L 616.692395 52.861177 
" clip-path="url(#p3602950bda)" style="fill: none; stroke: #ffb482; stroke-width: 1.2; stroke-linecap: round"/>
    <path d="M 631.958295 38.675838 
L 631.958295 38.613591 
" clip-path="url(#p3602950bda)" style="fill: none; stroke: #ffb482; stroke-width: 1.2; stroke-linecap: round"/>
    <path d="M 647.224194 38.365985 
L 647.224194 38.365985 
" clip-path="url(#p3602950bda)" style="fill: none; stroke: #ffb482; stroke-width: 1.2; stroke-linecap: round"/>
    <path d="M 662.490094 38.365985 
L 662.490094 38.365985 
" clip-path="url(#p3602950bda)" style="fill: none; stroke: #ffb482; stroke-width: 1.2; stroke-linecap: round"/>
    <path d="M 677.755994 38.365985 
L 677.755994 38.365985 
" clip-path="url(#p3602950bda)" style="fill: none; stroke: #ffb482; stroke-width: 1.2; stroke-linecap: round"/>
    <path d="M 693.021893 38.365985 
L 693.021893 38.365985 
" clip-path="url(#p3602950bda)" style="fill: none; stroke: #ffb482; stroke-width: 1.2; stroke-linecap: round"/>
    <path d="M 708.287793 38.365985 
L 708.287793 38.365985 
" clip-path="url(#p3602950bda)" style="fill: none; stroke: #ffb482; stroke-width: 1.2; stroke-linecap: round"/>
    <path d="M 723.553693 38.365985 
L 723.553693 38.365985 
" clip-path="url(#p3602950bda)" style="fill: none; stroke: #ffb482; stroke-width: 1.2; stroke-linecap: round"/>
    <path d="M 738.819593 38.365985 
L 738.819593 38.365985 
" clip-path="url(#p3602950bda)" style="fill: none; stroke: #ffb482; stroke-width: 1.2; stroke-linecap: round"/>
    <path d="M 754.085492 38.365985 
L 754.085492 38.365985 
" clip-path="url(#p3602950bda)" style="fill: none; stroke: #ffb482; stroke-width: 1.2; stroke-linecap: round"/>
    <path d="M 769.351392 38.365985 
L 769.351392 38.365985 
" clip-path="url(#p3602950bda)" style="fill: none; stroke: #ffb482; stroke-width: 1.2; stroke-linecap: round"/>
    <path d="M 784.614603 38.365985 
L 784.614603 38.365985 
" clip-path="url(#p3602950bda)" style="fill: none; stroke: #ffb482; stroke-width: 1.2; stroke-linecap: round"/>
   </g>
   <g id="line2d_31">
    <path d="M 464.033398 38.780966 
L 479.299298 39.223613 
L 494.565197 40.108906 
L 509.831097 41.879493 
L 525.096997 45.420666 
L 540.362896 52.503013 
L 555.628796 66.667707 
L 570.894696 94.997094 
L 586.160596 151.61852 
L 601.426495 228.278007 
L 616.692395 260.577382 
L 631.958295 264.866905 
L 647.224194 264.945751 
L 662.490094 264.945751 
L 677.755994 264.945751 
L 693.021893 264.945751 
L 708.287793 264.945751 
L 723.553693 264.945751 
L 738.819593 264.945751 
L 754.085492 264.945751 
L 769.351392 264.945751 
L 784.614603 264.945751 
" clip-path="url(#p3602950bda)" style="fill: none; stroke-dasharray: 4.8,1.8; stroke-dashoffset: 0; stroke: #ffb482; stroke-width: 1.2"/>
   </g>
   <g id="LineCollection_5">
    <path d="M 464.033398 38.780966 
L 464.033398 38.780966 
" clip-path="url(#p3602950bda)" style="fill: none; stroke: #ffb482; stroke-width: 1.2; stroke-linecap: round"/>
    <path d="M 479.299298 39.223613 
L 479.299298 39.223613 
" clip-path="url(#p3602950bda)" style="fill: none; stroke: #ffb482; stroke-width: 1.2; stroke-linecap: round"/>
    <path d="M 494.565197 40.108906 
L 494.565197 40.108906 
" clip-path="url(#p3602950bda)" style="fill: none; stroke: #ffb482; stroke-width: 1.2; stroke-linecap: round"/>
    <path d="M 509.831097 41.879493 
L 509.831097 41.879493 
" clip-path="url(#p3602950bda)" style="fill: none; stroke: #ffb482; stroke-width: 1.2; stroke-linecap: round"/>
    <path d="M 525.096997 45.420666 
L 525.096997 45.420666 
" clip-path="url(#p3602950bda)" style="fill: none; stroke: #ffb482; stroke-width: 1.2; stroke-linecap: round"/>
    <path d="M 540.362896 52.503013 
L 540.362896 52.503013 
" clip-path="url(#p3602950bda)" style="fill: none; stroke: #ffb482; stroke-width: 1.2; stroke-linecap: round"/>
    <path d="M 555.628796 66.667707 
L 555.628796 66.667707 
" clip-path="url(#p3602950bda)" style="fill: none; stroke: #ffb482; stroke-width: 1.2; stroke-linecap: round"/>
    <path d="M 570.894696 94.997094 
L 570.894696 94.997094 
" clip-path="url(#p3602950bda)" style="fill: none; stroke: #ffb482; stroke-width: 1.2; stroke-linecap: round"/>
    <path d="M 586.160596 151.633736 
L 586.160596 151.60192 
" clip-path="url(#p3602950bda)" style="fill: none; stroke: #ffb482; stroke-width: 1.2; stroke-linecap: round"/>
    <path d="M 601.426495 228.500714 
L 601.426495 228.055266 
" clip-path="url(#p3602950bda)" style="fill: none; stroke: #ffb482; stroke-width: 1.2; stroke-linecap: round"/>
    <path d="M 616.692395 260.725392 
L 616.692395 260.411355 
" clip-path="url(#p3602950bda)" style="fill: none; stroke: #ffb482; stroke-width: 1.2; stroke-linecap: round"/>
    <path d="M 631.958295 264.886305 
L 631.958295 264.848922 
" clip-path="url(#p3602950bda)" style="fill: none; stroke: #ffb482; stroke-width: 1.2; stroke-linecap: round"/>
    <path d="M 647.224194 264.945751 
L 647.224194 264.945751 
" clip-path="url(#p3602950bda)" style="fill: none; stroke: #ffb482; stroke-width: 1.2; stroke-linecap: round"/>
    <path d="M 662.490094 264.945751 
L 662.490094 264.945751 
" clip-path="url(#p3602950bda)" style="fill: none; stroke: #ffb482; stroke-width: 1.2; stroke-linecap: round"/>
    <path d="M 677.755994 264.945751 
L 677.755994 264.945751 
" clip-path="url(#p3602950bda)" style="fill: none; stroke: #ffb482; stroke-width: 1.2; stroke-linecap: round"/>
    <path d="M 693.021893 264.945751 
L 693.021893 264.945751 
" clip-path="url(#p3602950bda)" style="fill: none; stroke: #ffb482; stroke-width: 1.2; stroke-linecap: round"/>
    <path d="M 708.287793 264.945751 
L 708.287793 264.945751 
" clip-path="url(#p3602950bda)" style="fill: none; stroke: #ffb482; stroke-width: 1.2; stroke-linecap: round"/>
    <path d="M 723.553693 264.945751 
L 723.553693 264.945751 
" clip-path="url(#p3602950bda)" style="fill: none; stroke: #ffb482; stroke-width: 1.2; stroke-linecap: round"/>
    <path d="M 738.819593 264.945751 
L 738.819593 264.945751 
" clip-path="url(#p3602950bda)" style="fill: none; stroke: #ffb482; stroke-width: 1.2; stroke-linecap: round"/>
    <path d="M 754.085492 264.945751 
L 754.085492 264.945751 
" clip-path="url(#p3602950bda)" style="fill: none; stroke: #ffb482; stroke-width: 1.2; stroke-linecap: round"/>
    <path d="M 769.351392 264.945751 
L 769.351392 264.945751 
" clip-path="url(#p3602950bda)" style="fill: none; stroke: #ffb482; stroke-width: 1.2; stroke-linecap: round"/>
    <path d="M 784.614603 264.945751 
L 784.614603 264.945751 
" clip-path="url(#p3602950bda)" style="fill: none; stroke: #ffb482; stroke-width: 1.2; stroke-linecap: round"/>
   </g>
   <g id="line2d_32">
    <path d="M 464.033398 264.53077 
L 479.299298 264.088123 
L 494.565197 263.20283 
L 509.831097 261.436393 
L 525.096997 257.903519 
L 540.362896 250.87927 
L 555.628796 237.129557 
L 570.894696 212.41189 
L 586.160596 192.12069 
L 601.426495 209.177803 
L 616.692395 187.530998 
L 631.958295 183.453115 
L 647.224194 183.374269 
L 662.490094 183.374269 
L 677.755994 183.374269 
L 693.021893 183.374269 
L 708.287793 183.374269 
L 723.553693 183.374269 
L 738.819593 183.374269 
L 754.085492 183.374269 
L 769.351392 183.374269 
L 784.614603 183.374269 
" clip-path="url(#p3602950bda)" style="fill: none; stroke: #1f77b4; stroke-width: 1.2; stroke-linecap: round"/>
   </g>
   <g id="LineCollection_6">
    <path d="M 464.033398 264.53077 
L 464.033398 264.53077 
" clip-path="url(#p3602950bda)" style="fill: none; stroke: #1f77b4; stroke-width: 1.2; stroke-linecap: round"/>
    <path d="M 479.299298 264.088123 
L 479.299298 264.088123 
" clip-path="url(#p3602950bda)" style="fill: none; stroke: #1f77b4; stroke-width: 1.2; stroke-linecap: round"/>
    <path d="M 494.565197 263.20283 
L 494.565197 263.20283 
" clip-path="url(#p3602950bda)" style="fill: none; stroke: #1f77b4; stroke-width: 1.2; stroke-linecap: round"/>
    <path d="M 509.831097 261.440543 
L 509.831097 261.432243 
" clip-path="url(#p3602950bda)" style="fill: none; stroke: #1f77b4; stroke-width: 1.2; stroke-linecap: round"/>
    <path d="M 525.096997 257.911819 
L 525.096997 257.895219 
" clip-path="url(#p3602950bda)" style="fill: none; stroke: #1f77b4; stroke-width: 1.2; stroke-linecap: round"/>
    <path d="M 540.362896 250.894486 
L 540.362896 250.864054 
" clip-path="url(#p3602950bda)" style="fill: none; stroke: #1f77b4; stroke-width: 1.2; stroke-linecap: round"/>
    <path d="M 555.628796 237.171055 
L 555.628796 237.082526 
" clip-path="url(#p3602950bda)" style="fill: none; stroke: #1f77b4; stroke-width: 1.2; stroke-linecap: round"/>
    <path d="M 570.894696 212.600015 
L 570.894696 212.222382 
" clip-path="url(#p3602950bda)" style="fill: none; stroke: #1f77b4; stroke-width: 1.2; stroke-linecap: round"/>
    <path d="M 586.160596 193.242592 
L 586.160596 191.019157 
" clip-path="url(#p3602950bda)" style="fill: none; stroke: #1f77b4; stroke-width: 1.2; stroke-linecap: round"/>
    <path d="M 601.426495 209.888804 
L 601.426495 208.42807 
" clip-path="url(#p3602950bda)" style="fill: none; stroke: #1f77b4; stroke-width: 1.2; stroke-linecap: round"/>
    <path d="M 616.692395 188.318355 
L 616.692395 186.688551 
" clip-path="url(#p3602950bda)" style="fill: none; stroke: #1f77b4; stroke-width: 1.2; stroke-linecap: round"/>
    <path d="M 631.958295 184.217476 
L 631.958295 182.711405 
" clip-path="url(#p3602950bda)" style="fill: none; stroke: #1f77b4; stroke-width: 1.2; stroke-linecap: round"/>
    <path d="M 647.224194 184.236046 
L 647.224194 182.513321 
" clip-path="url(#p3602950bda)" style="fill: none; stroke: #1f77b4; stroke-width: 1.2; stroke-linecap: round"/>
    <path d="M 662.490094 184.145062 
L 662.490094 182.517782 
" clip-path="url(#p3602950bda)" style="fill: none; stroke: #1f77b4; stroke-width: 1.2; stroke-linecap: round"/>
    <path d="M 677.755994 184.166987 
L 677.755994 182.566404 
" clip-path="url(#p3602950bda)" style="fill: none; stroke: #1f77b4; stroke-width: 1.2; stroke-linecap: round"/>
    <path d="M 693.021893 184.13818 
L 693.021893 182.535937 
" clip-path="url(#p3602950bda)" style="fill: none; stroke: #1f77b4; stroke-width: 1.2; stroke-linecap: round"/>
    <path d="M 708.287793 184.157373 
L 708.287793 182.495235 
" clip-path="url(#p3602950bda)" style="fill: none; stroke: #1f77b4; stroke-width: 1.2; stroke-linecap: round"/>
    <path d="M 723.553693 184.217026 
L 723.553693 182.567787 
" clip-path="url(#p3602950bda)" style="fill: none; stroke: #1f77b4; stroke-width: 1.2; stroke-linecap: round"/>
    <path d="M 738.819593 184.168681 
L 738.819593 182.551188 
" clip-path="url(#p3602950bda)" style="fill: none; stroke: #1f77b4; stroke-width: 1.2; stroke-linecap: round"/>
    <path d="M 754.085492 184.129569 
L 754.085492 182.58992 
" clip-path="url(#p3602950bda)" style="fill: none; stroke: #1f77b4; stroke-width: 1.2; stroke-linecap: round"/>
    <path d="M 769.351392 184.176739 
L 769.351392 182.49565 
" clip-path="url(#p3602950bda)" style="fill: none; stroke: #1f77b4; stroke-width: 1.2; stroke-linecap: round"/>
    <path d="M 784.614603 184.163148 
L 784.614603 182.522105 
" clip-path="url(#p3602950bda)" style="fill: none; stroke: #1f77b4; stroke-width: 1.2; stroke-linecap: round"/>
   </g>
   <g id="line2d_33">
    <path d="M 657.917037 276.274739 
L 657.917037 27.036997 
" clip-path="url(#p3602950bda)" style="fill: none; stroke-dasharray: 1.2,1.98; stroke-dashoffset: 0; stroke: #000000; stroke-width: 1.2"/>
   </g>
   <g id="line2d_34"/>
   <g id="line2d_35"/>
   <g id="line2d_36"/>
   <g id="patch_6">
    <path d="M 448.004338 276.274739 
L 448.004338 27.036997 
" style="fill: none; stroke: #ffffff; stroke-linejoin: miter; stroke-linecap: square"/>
   </g>
   <g id="patch_7">
    <path d="M 448.004338 276.274739 
L 800.643663 276.274739 
" style="fill: none; stroke: #ffffff; stroke-linejoin: miter; stroke-linecap: square"/>
   </g>
   <g id="text_18">
    <!-- union_strategy = UW -->
    <g style="fill: #262626" transform="translate(536.925655 21.036997) scale(0.2 -0.2)">
     <defs>
      <path id="CMR17-57" d="M 5523 3764 
C 5581 3936 5677 4160 6048 4160 
L 6048 4326 
C 5939 4326 5715 4326 5600 4326 
C 5440 4326 5158 4326 5005 4332 
L 5005 4160 
C 5293 4160 5414 4000 5414 3847 
C 5414 3802 5408 3777 5382 3707 
L 4390 555 
L 3347 3873 
C 3328 3937 3322 3963 3322 3988 
C 3322 4160 3603 4160 3725 4160 
L 3725 4326 
C 3539 4326 3219 4326 3021 4326 
C 2861 4326 2573 4326 2426 4332 
L 2426 4160 
C 2720 4160 2797 4141 2861 4027 
C 2886 3969 2989 3638 2989 3619 
C 2989 3593 2976 3555 2970 3536 
L 2029 561 
L 986 3867 
C 954 3957 954 3969 954 3982 
C 954 4160 1235 4160 1363 4160 
L 1363 4326 
C 1178 4326 858 4326 659 4326 
C 493 4326 211 4326 58 4332 
L 58 4160 
C 442 4160 467 4122 531 3918 
L 1779 -20 
C 1811 -115 1811 -128 1869 -128 
C 1920 -128 1939 -115 1965 -26 
L 3053 3433 
L 4141 -26 
C 4166 -115 4186 -128 4237 -128 
C 4294 -128 4294 -115 4326 -20 
L 5523 3764 
z
" transform="scale(0.015625)"/>
     </defs>
     <use xlink:href="#CMR17-75" transform="scale(0.996264)"/>
     <use xlink:href="#CMR17-6e" transform="translate(50.89537 0) scale(0.996264)"/>
     <use xlink:href="#CMR17-69" transform="translate(101.79074 0) scale(0.996264)"/>
     <use xlink:href="#CMR17-6f" transform="translate(126.661798 0) scale(0.996264)"/>
     <use xlink:href="#CMR17-6e" transform="translate(172.352275 0) scale(0.996264)"/>
     <use xlink:href="#CMR17-73" transform="translate(256.144864 0) scale(0.996264)"/>
     <use xlink:href="#CMR17-74" transform="translate(291.946202 0) scale(0.996264)"/>
     <use xlink:href="#CMR17-72" transform="translate(327.22697 0) scale(0.996264)"/>
     <use xlink:href="#CMR17-61" transform="translate(362.507738 0) scale(0.996264)"/>
     <use xlink:href="#CMR17-74" transform="translate(408.198215 0) scale(0.996264)"/>
     <use xlink:href="#CMR17-65" transform="translate(443.478983 0) scale(0.996264)"/>
     <use xlink:href="#CMR17-67" transform="translate(483.964643 0) scale(0.996264)"/>
     <use xlink:href="#CMR17-79" transform="translate(529.65512 0) scale(0.996264)"/>
     <use xlink:href="#CMR17-3d" transform="translate(608.024002 0) scale(0.996264)"/>
     <use xlink:href="#CMR17-55" transform="translate(709.814757 0) scale(0.996264)"/>
     <use xlink:href="#CMR17-57" transform="translate(778.887187 0) scale(0.996264)"/>
     <path d="M 228.730274 0 
L 256.144864 0 
L 256.144864 0.3985 
L 228.730274 0.3985 
L 228.730274 0 
z
"/>
    </g>
   </g>
  </g>
  <g id="axes_3">
   <g id="patch_8">
    <path d="M 822.243663 276.274739 
L 1174.882989 276.274739 
L 1174.882989 27.036997 
L 822.243663 27.036997 
z
" style="fill: #eaeaf2"/>
   </g>
   <g id="matplotlib.axis_5">
    <g id="xtick_9">
     <g id="line2d_37">
      <path d="M 884.070423 276.274739 
L 884.070423 27.036997 
" clip-path="url(#pf6dc248ddd)" style="fill: none; stroke: #ffffff; stroke-width: 0.8; stroke-linecap: round"/>
     </g>
     <g id="text_19">
      <!-- $\mathdefault{2^{7}}$ -->
      <g style="fill: #262626" transform="translate(876.087146 298.411736) scale(0.2 -0.2)">
       <use xlink:href="#CMR17-32" transform="scale(0.996264)"/>
       <use xlink:href="#CMR17-37" transform="translate(45.690477 36.153639) scale(0.697382)"/>
      </g>
     </g>
    </g>
    <g id="xtick_10">
     <g id="line2d_38">
      <path d="M 960.399921 276.274739 
L 960.399921 27.036997 
" clip-path="url(#pf6dc248ddd)" style="fill: none; stroke: #ffffff; stroke-width: 0.8; stroke-linecap: round"/>
     </g>
     <g id="text_20">
      <!-- $\mathdefault{2^{12}}$ -->
      <g style="fill: #262626" transform="translate(949.002415 298.411736) scale(0.2 -0.2)">
       <use xlink:href="#CMR17-32" transform="scale(0.996264)"/>
       <use xlink:href="#CMR17-31" transform="translate(45.690477 36.153639) scale(0.697382)"/>
       <use xlink:href="#CMR17-32" transform="translate(77.673659 36.153639) scale(0.697382)"/>
      </g>
     </g>
    </g>
    <g id="xtick_11">
     <g id="line2d_39">
      <path d="M 1036.72942 276.274739 
L 1036.72942 27.036997 
" clip-path="url(#pf6dc248ddd)" style="fill: none; stroke: #ffffff; stroke-width: 0.8; stroke-linecap: round"/>
     </g>
     <g id="text_21">
      <!-- $\mathdefault{2^{17}}$ -->
      <g style="fill: #262626" transform="translate(1025.331914 298.411736) scale(0.2 -0.2)">
       <use xlink:href="#CMR17-32" transform="scale(0.996264)"/>
       <use xlink:href="#CMR17-31" transform="translate(45.690477 36.153639) scale(0.697382)"/>
       <use xlink:href="#CMR17-37" transform="translate(77.673659 36.153639) scale(0.697382)"/>
      </g>
     </g>
    </g>
    <g id="xtick_12">
     <g id="line2d_40">
      <path d="M 1113.058918 276.274739 
L 1113.058918 27.036997 
" clip-path="url(#pf6dc248ddd)" style="fill: none; stroke: #ffffff; stroke-width: 0.8; stroke-linecap: round"/>
     </g>
     <g id="text_22">
      <!-- $\mathdefault{2^{22}}$ -->
      <g style="fill: #262626" transform="translate(1101.661412 298.411736) scale(0.2 -0.2)">
       <use xlink:href="#CMR17-32" transform="scale(0.996264)"/>
       <use xlink:href="#CMR17-32" transform="translate(45.690477 36.153639) scale(0.697382)"/>
       <use xlink:href="#CMR17-32" transform="translate(77.673659 36.153639) scale(0.697382)"/>
      </g>
     </g>
    </g>
    <g id="text_23">
     <!-- N -->
     <g style="fill: #262626" transform="translate(991.656085 320.124366) scale(0.2 -0.2)">
      <use xlink:href="#CMR17-4e" transform="scale(0.996264)"/>
     </g>
    </g>
   </g>
   <g id="matplotlib.axis_6">
    <g id="ytick_11">
     <g id="line2d_41">
      <path d="M 822.243663 264.973416 
L 1174.882989 264.973416 
" clip-path="url(#pf6dc248ddd)" style="fill: none; stroke: #ffffff; stroke-width: 0.8; stroke-linecap: round"/>
     </g>
    </g>
    <g id="ytick_12">
     <g id="line2d_42">
      <path d="M 822.243663 209.642582 
L 1174.882989 209.642582 
" clip-path="url(#pf6dc248ddd)" style="fill: none; stroke: #ffffff; stroke-width: 0.8; stroke-linecap: round"/>
     </g>
    </g>
    <g id="ytick_13">
     <g id="line2d_43">
      <path d="M 822.243663 154.311748 
L 1174.882989 154.311748 
" clip-path="url(#pf6dc248ddd)" style="fill: none; stroke: #ffffff; stroke-width: 0.8; stroke-linecap: round"/>
     </g>
    </g>
    <g id="ytick_14">
     <g id="line2d_44">
      <path d="M 822.243663 98.980914 
L 1174.882989 98.980914 
" clip-path="url(#pf6dc248ddd)" style="fill: none; stroke: #ffffff; stroke-width: 0.8; stroke-linecap: round"/>
     </g>
    </g>
    <g id="ytick_15">
     <g id="line2d_45">
      <path d="M 822.243663 43.65008 
L 1174.882989 43.65008 
" clip-path="url(#pf6dc248ddd)" style="fill: none; stroke: #ffffff; stroke-width: 0.8; stroke-linecap: round"/>
     </g>
    </g>
   </g>
   <g id="line2d_46">
    <path d="M 838.272724 264.53077 
L 853.538623 264.088123 
L 868.804523 263.20283 
L 884.070423 261.436393 
L 899.336322 257.903519 
L 914.602222 250.882036 
L 929.868122 237.200104 
L 945.134022 212.833788 
L 960.399921 190.73327 
L 975.665821 136.488303 
L 990.931721 53.064621 
L 1006.19762 38.638489 
L 1021.46352 38.365985 
L 1036.72942 38.365985 
L 1051.995319 38.365985 
L 1067.261219 38.365985 
L 1082.527119 38.365985 
L 1097.793019 38.365985 
L 1113.058918 38.365985 
L 1128.324818 38.365985 
L 1143.590718 38.365985 
L 1158.853929 38.365985 
" clip-path="url(#pf6dc248ddd)" style="fill: none; stroke: #ffb482; stroke-width: 1.2; stroke-linecap: round"/>
   </g>
   <g id="LineCollection_7">
    <path d="M 838.272724 264.53077 
L 838.272724 264.53077 
" clip-path="url(#pf6dc248ddd)" style="fill: none; stroke: #ffb482; stroke-width: 1.2; stroke-linecap: round"/>
    <path d="M 853.538623 264.088123 
L 853.538623 264.088123 
" clip-path="url(#pf6dc248ddd)" style="fill: none; stroke: #ffb482; stroke-width: 1.2; stroke-linecap: round"/>
    <path d="M 868.804523 263.20283 
L 868.804523 263.20283 
" clip-path="url(#pf6dc248ddd)" style="fill: none; stroke: #ffb482; stroke-width: 1.2; stroke-linecap: round"/>
    <path d="M 884.070423 261.440543 
L 884.070423 261.432243 
" clip-path="url(#pf6dc248ddd)" style="fill: none; stroke: #ffb482; stroke-width: 1.2; stroke-linecap: round"/>
    <path d="M 899.336322 257.911819 
L 899.336322 257.895219 
" clip-path="url(#pf6dc248ddd)" style="fill: none; stroke: #ffb482; stroke-width: 1.2; stroke-linecap: round"/>
    <path d="M 914.602222 250.901402 
L 914.602222 250.865437 
" clip-path="url(#pf6dc248ddd)" style="fill: none; stroke: #ffb482; stroke-width: 1.2; stroke-linecap: round"/>
    <path d="M 929.868122 237.252668 
L 929.868122 237.144773 
" clip-path="url(#pf6dc248ddd)" style="fill: none; stroke: #ffb482; stroke-width: 1.2; stroke-linecap: round"/>
    <path d="M 945.134022 213.021913 
L 945.134022 212.62073 
" clip-path="url(#pf6dc248ddd)" style="fill: none; stroke: #ffb482; stroke-width: 1.2; stroke-linecap: round"/>
    <path d="M 960.399921 191.898018 
L 960.399921 189.611437 
" clip-path="url(#pf6dc248ddd)" style="fill: none; stroke: #ffb482; stroke-width: 1.2; stroke-linecap: round"/>
    <path d="M 975.665821 137.018165 
L 975.665821 135.936274 
" clip-path="url(#pf6dc248ddd)" style="fill: none; stroke: #ffb482; stroke-width: 1.2; stroke-linecap: round"/>
    <path d="M 990.931721 53.313644 
L 990.931721 52.800347 
" clip-path="url(#pf6dc248ddd)" style="fill: none; stroke: #ffb482; stroke-width: 1.2; stroke-linecap: round"/>
    <path d="M 1006.19762 38.670305 
L 1006.19762 38.608023 
" clip-path="url(#pf6dc248ddd)" style="fill: none; stroke: #ffb482; stroke-width: 1.2; stroke-linecap: round"/>
    <path d="M 1021.46352 38.365985 
L 1021.46352 38.365985 
" clip-path="url(#pf6dc248ddd)" style="fill: none; stroke: #ffb482; stroke-width: 1.2; stroke-linecap: round"/>
    <path d="M 1036.72942 38.365985 
L 1036.72942 38.365985 
" clip-path="url(#pf6dc248ddd)" style="fill: none; stroke: #ffb482; stroke-width: 1.2; stroke-linecap: round"/>
    <path d="M 1051.995319 38.365985 
L 1051.995319 38.365985 
" clip-path="url(#pf6dc248ddd)" style="fill: none; stroke: #ffb482; stroke-width: 1.2; stroke-linecap: round"/>
    <path d="M 1067.261219 38.365985 
L 1067.261219 38.365985 
" clip-path="url(#pf6dc248ddd)" style="fill: none; stroke: #ffb482; stroke-width: 1.2; stroke-linecap: round"/>
    <path d="M 1082.527119 38.365985 
L 1082.527119 38.365985 
" clip-path="url(#pf6dc248ddd)" style="fill: none; stroke: #ffb482; stroke-width: 1.2; stroke-linecap: round"/>
    <path d="M 1097.793019 38.365985 
L 1097.793019 38.365985 
" clip-path="url(#pf6dc248ddd)" style="fill: none; stroke: #ffb482; stroke-width: 1.2; stroke-linecap: round"/>
    <path d="M 1113.058918 38.365985 
L 1113.058918 38.365985 
" clip-path="url(#pf6dc248ddd)" style="fill: none; stroke: #ffb482; stroke-width: 1.2; stroke-linecap: round"/>
    <path d="M 1128.324818 38.365985 
L 1128.324818 38.365985 
" clip-path="url(#pf6dc248ddd)" style="fill: none; stroke: #ffb482; stroke-width: 1.2; stroke-linecap: round"/>
    <path d="M 1143.590718 38.365985 
L 1143.590718 38.365985 
" clip-path="url(#pf6dc248ddd)" style="fill: none; stroke: #ffb482; stroke-width: 1.2; stroke-linecap: round"/>
    <path d="M 1158.853929 38.365985 
L 1158.853929 38.365985 
" clip-path="url(#pf6dc248ddd)" style="fill: none; stroke: #ffb482; stroke-width: 1.2; stroke-linecap: round"/>
   </g>
   <g id="line2d_47">
    <path d="M 838.272724 38.780966 
L 853.538623 39.223613 
L 868.804523 40.108906 
L 884.070423 41.879493 
L 899.336322 45.420666 
L 914.602222 52.503013 
L 929.868122 66.667707 
L 945.134022 94.997094 
L 960.399921 151.61852 
L 975.665821 228.278007 
L 990.931721 260.577382 
L 1006.19762 264.866905 
L 1021.46352 264.945751 
L 1036.72942 264.945751 
L 1051.995319 264.945751 
L 1067.261219 264.945751 
L 1082.527119 264.945751 
L 1097.793019 264.945751 
L 1113.058918 264.945751 
L 1128.324818 264.945751 
L 1143.590718 264.945751 
L 1158.853929 264.945751 
" clip-path="url(#pf6dc248ddd)" style="fill: none; stroke-dasharray: 4.8,1.8; stroke-dashoffset: 0; stroke: #ffb482; stroke-width: 1.2"/>
   </g>
   <g id="LineCollection_8">
    <path d="M 838.272724 38.780966 
L 838.272724 38.780966 
" clip-path="url(#pf6dc248ddd)" style="fill: none; stroke: #ffb482; stroke-width: 1.2; stroke-linecap: round"/>
    <path d="M 853.538623 39.223613 
L 853.538623 39.223613 
" clip-path="url(#pf6dc248ddd)" style="fill: none; stroke: #ffb482; stroke-width: 1.2; stroke-linecap: round"/>
    <path d="M 868.804523 40.108906 
L 868.804523 40.108906 
" clip-path="url(#pf6dc248ddd)" style="fill: none; stroke: #ffb482; stroke-width: 1.2; stroke-linecap: round"/>
    <path d="M 884.070423 41.879493 
L 884.070423 41.879493 
" clip-path="url(#pf6dc248ddd)" style="fill: none; stroke: #ffb482; stroke-width: 1.2; stroke-linecap: round"/>
    <path d="M 899.336322 45.420666 
L 899.336322 45.420666 
" clip-path="url(#pf6dc248ddd)" style="fill: none; stroke: #ffb482; stroke-width: 1.2; stroke-linecap: round"/>
    <path d="M 914.602222 52.503013 
L 914.602222 52.503013 
" clip-path="url(#pf6dc248ddd)" style="fill: none; stroke: #ffb482; stroke-width: 1.2; stroke-linecap: round"/>
    <path d="M 929.868122 66.667707 
L 929.868122 66.667707 
" clip-path="url(#pf6dc248ddd)" style="fill: none; stroke: #ffb482; stroke-width: 1.2; stroke-linecap: round"/>
    <path d="M 945.134022 94.997094 
L 945.134022 94.997094 
" clip-path="url(#pf6dc248ddd)" style="fill: none; stroke: #ffb482; stroke-width: 1.2; stroke-linecap: round"/>
    <path d="M 960.399921 151.633736 
L 960.399921 151.601886 
" clip-path="url(#pf6dc248ddd)" style="fill: none; stroke: #ffb482; stroke-width: 1.2; stroke-linecap: round"/>
    <path d="M 975.665821 228.5105 
L 975.665821 228.055197 
" clip-path="url(#pf6dc248ddd)" style="fill: none; stroke: #ffb482; stroke-width: 1.2; stroke-linecap: round"/>
    <path d="M 990.931721 260.728193 
L 990.931721 260.412738 
" clip-path="url(#pf6dc248ddd)" style="fill: none; stroke: #ffb482; stroke-width: 1.2; stroke-linecap: round"/>
    <path d="M 1006.19762 264.88627 
L 1006.19762 264.847504 
" clip-path="url(#pf6dc248ddd)" style="fill: none; stroke: #ffb482; stroke-width: 1.2; stroke-linecap: round"/>
    <path d="M 1021.46352 264.945751 
L 1021.46352 264.945751 
" clip-path="url(#pf6dc248ddd)" style="fill: none; stroke: #ffb482; stroke-width: 1.2; stroke-linecap: round"/>
    <path d="M 1036.72942 264.945751 
L 1036.72942 264.945751 
" clip-path="url(#pf6dc248ddd)" style="fill: none; stroke: #ffb482; stroke-width: 1.2; stroke-linecap: round"/>
    <path d="M 1051.995319 264.945751 
L 1051.995319 264.945751 
" clip-path="url(#pf6dc248ddd)" style="fill: none; stroke: #ffb482; stroke-width: 1.2; stroke-linecap: round"/>
    <path d="M 1067.261219 264.945751 
L 1067.261219 264.945751 
" clip-path="url(#pf6dc248ddd)" style="fill: none; stroke: #ffb482; stroke-width: 1.2; stroke-linecap: round"/>
    <path d="M 1082.527119 264.945751 
L 1082.527119 264.945751 
" clip-path="url(#pf6dc248ddd)" style="fill: none; stroke: #ffb482; stroke-width: 1.2; stroke-linecap: round"/>
    <path d="M 1097.793019 264.945751 
L 1097.793019 264.945751 
" clip-path="url(#pf6dc248ddd)" style="fill: none; stroke: #ffb482; stroke-width: 1.2; stroke-linecap: round"/>
    <path d="M 1113.058918 264.945751 
L 1113.058918 264.945751 
" clip-path="url(#pf6dc248ddd)" style="fill: none; stroke: #ffb482; stroke-width: 1.2; stroke-linecap: round"/>
    <path d="M 1128.324818 264.945751 
L 1128.324818 264.945751 
" clip-path="url(#pf6dc248ddd)" style="fill: none; stroke: #ffb482; stroke-width: 1.2; stroke-linecap: round"/>
    <path d="M 1143.590718 264.945751 
L 1143.590718 264.945751 
" clip-path="url(#pf6dc248ddd)" style="fill: none; stroke: #ffb482; stroke-width: 1.2; stroke-linecap: round"/>
    <path d="M 1158.853929 264.945751 
L 1158.853929 264.945751 
" clip-path="url(#pf6dc248ddd)" style="fill: none; stroke: #ffb482; stroke-width: 1.2; stroke-linecap: round"/>
   </g>
   <g id="line2d_48">
    <path d="M 838.272724 264.53077 
L 853.538623 264.088123 
L 868.804523 263.20283 
L 884.070423 261.436393 
L 899.336322 257.903519 
L 914.602222 250.883419 
L 929.868122 237.236069 
L 945.134022 213.399546 
L 960.399921 197.088016 
L 975.665821 210.092145 
L 990.931721 188.316695 
L 1006.19762 184.238813 
L 1021.46352 184.159967 
L 1036.72942 184.159967 
L 1051.995319 184.159967 
L 1067.261219 184.159967 
L 1082.527119 184.159967 
L 1097.793019 184.159967 
L 1113.058918 184.159967 
L 1128.324818 184.159967 
L 1143.590718 184.159967 
L 1158.853929 184.159967 
" clip-path="url(#pf6dc248ddd)" style="fill: none; stroke: #1f77b4; stroke-width: 1.2; stroke-linecap: round"/>
   </g>
   <g id="LineCollection_9">
    <path d="M 838.272724 264.53077 
L 838.272724 264.53077 
" clip-path="url(#pf6dc248ddd)" style="fill: none; stroke: #1f77b4; stroke-width: 1.2; stroke-linecap: round"/>
    <path d="M 853.538623 264.088123 
L 853.538623 264.088123 
" clip-path="url(#pf6dc248ddd)" style="fill: none; stroke: #1f77b4; stroke-width: 1.2; stroke-linecap: round"/>
    <path d="M 868.804523 263.20283 
L 868.804523 263.20283 
" clip-path="url(#pf6dc248ddd)" style="fill: none; stroke: #1f77b4; stroke-width: 1.2; stroke-linecap: round"/>
    <path d="M 884.070423 261.440543 
L 884.070423 261.432243 
" clip-path="url(#pf6dc248ddd)" style="fill: none; stroke: #1f77b4; stroke-width: 1.2; stroke-linecap: round"/>
    <path d="M 899.336322 257.911819 
L 899.336322 257.895219 
" clip-path="url(#pf6dc248ddd)" style="fill: none; stroke: #1f77b4; stroke-width: 1.2; stroke-linecap: round"/>
    <path d="M 914.602222 250.900019 
L 914.602222 250.865437 
" clip-path="url(#pf6dc248ddd)" style="fill: none; stroke: #1f77b4; stroke-width: 1.2; stroke-linecap: round"/>
    <path d="M 929.868122 237.2914 
L 929.868122 237.184888 
" clip-path="url(#pf6dc248ddd)" style="fill: none; stroke: #1f77b4; stroke-width: 1.2; stroke-linecap: round"/>
    <path d="M 945.134022 213.611186 
L 945.134022 213.158788 
" clip-path="url(#pf6dc248ddd)" style="fill: none; stroke: #1f77b4; stroke-width: 1.2; stroke-linecap: round"/>
    <path d="M 960.399921 198.237791 
L 960.399921 195.982713 
" clip-path="url(#pf6dc248ddd)" style="fill: none; stroke: #1f77b4; stroke-width: 1.2; stroke-linecap: round"/>
    <path d="M 975.665821 210.796368 
L 975.665821 209.397225 
" clip-path="url(#pf6dc248ddd)" style="fill: none; stroke: #1f77b4; stroke-width: 1.2; stroke-linecap: round"/>
    <path d="M 990.931721 189.081679 
L 990.931721 187.449143 
" clip-path="url(#pf6dc248ddd)" style="fill: none; stroke: #1f77b4; stroke-width: 1.2; stroke-linecap: round"/>
    <path d="M 1006.19762 185.037099 
L 1006.19762 183.313266 
" clip-path="url(#pf6dc248ddd)" style="fill: none; stroke: #1f77b4; stroke-width: 1.2; stroke-linecap: round"/>
    <path d="M 1021.46352 185.005283 
L 1021.46352 183.284425 
" clip-path="url(#pf6dc248ddd)" style="fill: none; stroke: #1f77b4; stroke-width: 1.2; stroke-linecap: round"/>
    <path d="M 1036.72942 185.009295 
L 1036.72942 183.210904 
" clip-path="url(#pf6dc248ddd)" style="fill: none; stroke: #1f77b4; stroke-width: 1.2; stroke-linecap: round"/>
    <path d="M 1051.995319 184.970667 
L 1051.995319 183.312955 
" clip-path="url(#pf6dc248ddd)" style="fill: none; stroke: #1f77b4; stroke-width: 1.2; stroke-linecap: round"/>
    <path d="M 1067.261219 185.02873 
L 1067.261219 183.259907 
" clip-path="url(#pf6dc248ddd)" style="fill: none; stroke: #1f77b4; stroke-width: 1.2; stroke-linecap: round"/>
    <path d="M 1082.527119 184.929134 
L 1082.527119 183.286915 
" clip-path="url(#pf6dc248ddd)" style="fill: none; stroke: #1f77b4; stroke-width: 1.2; stroke-linecap: round"/>
    <path d="M 1097.793019 185.002413 
L 1097.793019 183.273221 
" clip-path="url(#pf6dc248ddd)" style="fill: none; stroke: #1f77b4; stroke-width: 1.2; stroke-linecap: round"/>
    <path d="M 1113.058918 184.934633 
L 1113.058918 183.241094 
" clip-path="url(#pf6dc248ddd)" style="fill: none; stroke: #1f77b4; stroke-width: 1.2; stroke-linecap: round"/>
    <path d="M 1128.324818 184.997468 
L 1128.324818 183.269106 
" clip-path="url(#pf6dc248ddd)" style="fill: none; stroke: #1f77b4; stroke-width: 1.2; stroke-linecap: round"/>
    <path d="M 1143.590718 184.985779 
L 1143.590718 183.292552 
" clip-path="url(#pf6dc248ddd)" style="fill: none; stroke: #1f77b4; stroke-width: 1.2; stroke-linecap: round"/>
    <path d="M 1158.853929 184.979001 
L 1158.853929 183.234489 
" clip-path="url(#pf6dc248ddd)" style="fill: none; stroke: #1f77b4; stroke-width: 1.2; stroke-linecap: round"/>
   </g>
   <g id="line2d_49">
    <path d="M 1032.156363 276.274739 
L 1032.156363 27.036997 
" clip-path="url(#pf6dc248ddd)" style="fill: none; stroke-dasharray: 1.2,1.98; stroke-dashoffset: 0; stroke: #000000; stroke-width: 1.2"/>
   </g>
   <g id="line2d_50"/>
   <g id="line2d_51"/>
   <g id="line2d_52"/>
   <g id="patch_9">
    <path d="M 822.243663 276.274739 
L 822.243663 27.036997 
" style="fill: none; stroke: #ffffff; stroke-linejoin: miter; stroke-linecap: square"/>
   </g>
   <g id="patch_10">
    <path d="M 822.243663 276.274739 
L 1174.882989 276.274739 
" style="fill: none; stroke: #ffffff; stroke-linejoin: miter; stroke-linecap: square"/>
   </g>
   <g id="text_24">
    <!-- union_strategy = UR -->
    <g style="fill: #262626" transform="translate(913.89554 21.036997) scale(0.2 -0.2)">
     <defs>
      <path id="CMR17-52" d="M 2509 2146 
C 3117 2268 3629 2676 3629 3186 
C 3629 3785 2950 4326 2054 4326 
L 333 4326 
L 333 4160 
C 774 4160 845 4160 845 3873 
L 845 415 
C 845 128 774 128 333 128 
L 333 -26 
C 518 -26 851 -26 1050 -26 
C 1248 -26 1581 -26 1766 -26 
L 1766 128 
C 1325 128 1254 128 1254 417 
L 1254 2112 
L 2003 2112 
C 2368 2112 2573 1964 2662 1881 
C 2918 1632 2918 1459 2918 1024 
C 2918 595 2918 377 3110 160 
C 3354 -102 3680 -128 3821 -128 
C 4294 -128 4365 396 4365 503 
C 4365 540 4365 585 4307 585 
C 4256 585 4250 547 4250 522 
C 4218 112 4032 -26 3834 -26 
C 3482 -26 3443 375 3405 764 
C 3386 898 3373 993 3360 1133 
C 3322 1452 3270 1917 2509 2146 
z
M 1984 2214 
L 1254 2214 
L 1254 3913 
C 1254 4129 1267 4160 1523 4160 
L 1990 4160 
C 2522 4160 3142 3977 3142 3190 
C 3142 2372 2464 2214 1984 2214 
z
" transform="scale(0.015625)"/>
     </defs>
     <use xlink:href="#CMR17-75" transform="scale(0.996264)"/>
     <use xlink:href="#CMR17-6e" transform="translate(50.89537 0) scale(0.996264)"/>
     <use xlink:href="#CMR17-69" transform="translate(101.79074 0) scale(0.996264)"/>
     <use xlink:href="#CMR17-6f" transform="translate(126.661798 0) scale(0.996264)"/>
     <use xlink:href="#CMR17-6e" transform="translate(172.352275 0) scale(0.996264)"/>
     <use xlink:href="#CMR17-73" transform="translate(256.144864 0) scale(0.996264)"/>
     <use xlink:href="#CMR17-74" transform="translate(291.946202 0) scale(0.996264)"/>
     <use xlink:href="#CMR17-72" transform="translate(327.22697 0) scale(0.996264)"/>
     <use xlink:href="#CMR17-61" transform="translate(362.507738 0) scale(0.996264)"/>
     <use xlink:href="#CMR17-74" transform="translate(408.198215 0) scale(0.996264)"/>
     <use xlink:href="#CMR17-65" transform="translate(443.478983 0) scale(0.996264)"/>
     <use xlink:href="#CMR17-67" transform="translate(483.964643 0) scale(0.996264)"/>
     <use xlink:href="#CMR17-79" transform="translate(529.65512 0) scale(0.996264)"/>
     <use xlink:href="#CMR17-3d" transform="translate(608.024002 0) scale(0.996264)"/>
     <use xlink:href="#CMR17-55" transform="translate(709.814757 0) scale(0.996264)"/>
     <use xlink:href="#CMR17-52" transform="translate(778.887187 0) scale(0.996264)"/>
     <path d="M 228.730274 0 
L 256.144864 0 
L 256.144864 0.3985 
L 228.730274 0.3985 
L 228.730274 0 
z
"/>
    </g>
   </g>
  </g>
  <g id="legend_1">
   <g id="text_25">
    <!-- compress_strategy -->
    <g style="fill: #262626" transform="translate(1085.24751 60.4) scale(0.13 -0.13)">
     <defs>
      <path id="CMR17-63" d="M 2234 2240 
C 2112 2240 1933 2240 1933 2017 
C 1933 1838 2080 1787 2163 1787 
C 2208 1787 2394 1807 2394 2024 
C 2394 2467 1958 2803 1466 2803 
C 787 2803 211 2178 211 1363 
C 211 516 813 -64 1466 -64 
C 2259 -64 2458 677 2458 748 
C 2458 774 2451 793 2406 793 
C 2362 793 2355 787 2330 703 
C 2163 180 1798 51 1523 51 
C 1114 51 621 427 621 1369 
C 621 2338 1094 2688 1472 2688 
C 1722 2688 2093 2573 2234 2240 
z
" transform="scale(0.015625)"/>
      <path id="CMR17-6d" d="M 4326 1933 
C 4326 2252 4269 2790 3507 2790 
C 3072 2790 2771 2496 2656 2151 
L 2650 2151 
C 2573 2676 2195 2790 1837 2790 
C 1331 2790 1069 2400 973 2144 
L 966 2144 
L 966 2790 
L 211 2720 
L 211 2554 
C 589 2554 646 2515 646 2208 
L 646 428 
C 646 184 621 153 211 153 
L 211 -13 
C 365 0 646 0 813 0 
C 979 0 1267 0 1421 -13 
L 1421 153 
C 1011 153 986 178 986 428 
L 986 1658 
C 986 2247 1344 2688 1792 2688 
C 2266 2688 2317 2266 2317 1958 
L 2317 428 
C 2317 184 2291 153 1882 153 
L 1882 -13 
C 2035 0 2317 0 2483 0 
C 2650 0 2938 0 3091 -13 
L 3091 153 
C 2682 153 2656 178 2656 428 
L 2656 1658 
C 2656 2247 3014 2688 3462 2688 
C 3936 2688 3987 2266 3987 1958 
L 3987 428 
C 3987 184 3962 153 3552 153 
L 3552 -13 
C 3706 0 3987 0 4154 0 
C 4320 0 4608 0 4762 -13 
L 4762 153 
C 4352 153 4326 178 4326 428 
L 4326 1933 
z
" transform="scale(0.015625)"/>
      <path id="CMR17-70" d="M 1408 -1063 
C 998 -1063 973 -1037 973 -789 
L 973 402 
C 1158 134 1427 -38 1766 -38 
C 2406 -38 3053 523 3053 1388 
C 3053 2191 2496 2802 1837 2802 
C 1453 2802 1139 2592 960 2338 
L 960 2802 
L 198 2732 
L 198 2567 
C 576 2567 634 2528 634 2223 
L 634 -789 
C 634 -1031 608 -1063 198 -1063 
L 198 -1228 
C 352 -1216 634 -1216 800 -1216 
C 966 -1216 1254 -1216 1408 -1228 
L 1408 -1063 
z
M 973 2012 
C 973 2102 973 2235 1222 2471 
C 1254 2497 1472 2688 1792 2688 
C 2259 2688 2643 2108 2643 1382 
C 2643 656 2234 64 1728 64 
C 1498 64 1248 172 1056 472 
C 973 612 973 650 973 752 
L 973 2012 
z
" transform="scale(0.015625)"/>
     </defs>
     <use xlink:href="#CMR17-63" transform="scale(0.996264)"/>
     <use xlink:href="#CMR17-6f" transform="translate(40.48566 0) scale(0.996264)"/>
     <use xlink:href="#CMR17-6d" transform="translate(86.176138 0) scale(0.996264)"/>
     <use xlink:href="#CMR17-70" transform="translate(163.095727 0) scale(0.996264)"/>
     <use xlink:href="#CMR17-72" transform="translate(213.991097 0) scale(0.996264)"/>
     <use xlink:href="#CMR17-65" transform="translate(249.271865 0) scale(0.996264)"/>
     <use xlink:href="#CMR17-73" transform="translate(289.757525 0) scale(0.996264)"/>
     <use xlink:href="#CMR17-73" transform="translate(325.558863 0) scale(0.996264)"/>
     <use xlink:href="#CMR17-73" transform="translate(394.25742 0) scale(0.996264)"/>
     <use xlink:href="#CMR17-74" transform="translate(430.058758 0) scale(0.996264)"/>
     <use xlink:href="#CMR17-72" transform="translate(465.339526 0) scale(0.996264)"/>
     <use xlink:href="#CMR17-61" transform="translate(500.620294 0) scale(0.996264)"/>
     <use xlink:href="#CMR17-74" transform="translate(546.310771 0) scale(0.996264)"/>
     <use xlink:href="#CMR17-65" transform="translate(581.591538 0) scale(0.996264)"/>
     <use xlink:href="#CMR17-67" transform="translate(622.077199 0) scale(0.996264)"/>
     <use xlink:href="#CMR17-79" transform="translate(667.767676 0) scale(0.996264)"/>
     <path d="M 366.84283 0 
L 394.25742 0 
L 394.25742 0.3985 
L 366.84283 0.3985 
L 366.84283 0 
z
"/>
    </g>
   </g>
   <g id="line2d_53">
    <path d="M 1048.84751 73.968312 
L 1061.84751 73.968312 
L 1074.84751 73.968312 
" style="fill: none; stroke: #ffb482; stroke-width: 1.2; stroke-linecap: round"/>
   </g>
   <g id="text_26">
    <!-- FC -->
    <g style="fill: #262626" transform="translate(1085.24751 78.518312) scale(0.13 -0.13)">
     <defs>
      <path id="CMR17-46" d="M 3482 4325 
L 326 4325 
L 326 4160 
C 768 4160 838 4160 838 3874 
L 838 446 
C 838 160 768 160 326 160 
L 326 0 
C 512 0 870 0 1069 0 
C 1331 0 1638 0 1901 0 
L 1901 160 
L 1760 160 
C 1274 160 1261 223 1261 452 
L 1261 2075 
L 1837 2075 
C 2432 2075 2490 1865 2490 1332 
L 2605 1332 
L 2605 2987 
L 2490 2987 
C 2490 2450 2432 2240 1837 2240 
L 1261 2240 
L 1261 3911 
C 1261 4128 1274 4160 1530 4160 
L 2355 4160 
C 3322 4160 3430 3765 3520 2916 
L 3635 2916 
L 3482 4325 
z
" transform="scale(0.015625)"/>
     </defs>
     <use xlink:href="#CMR17-46" transform="scale(0.996264)"/>
     <use xlink:href="#CMR17-43" transform="translate(57.381393 0) scale(0.996264)"/>
    </g>
   </g>
   <g id="line2d_54">
    <path d="M 1048.84751 92.086624 
L 1061.84751 92.086624 
L 1074.84751 92.086624 
" style="fill: none; stroke: #1f77b4; stroke-width: 1.2; stroke-linecap: round"/>
   </g>
   <g id="text_27">
    <!-- NC -->
    <g style="fill: #262626" transform="translate(1085.24751 96.636624) scale(0.13 -0.13)">
     <use xlink:href="#CMR17-4e" transform="scale(0.996264)"/>
     <use xlink:href="#CMR17-43" transform="translate(69.07243 0) scale(0.996264)"/>
    </g>
   </g>
   <g id="text_28">
    <!-- cnt_type -->
    <g style="fill: #262626" transform="translate(1085.24751 114.754936) scale(0.13 -0.13)">
     <use xlink:href="#CMR17-63" transform="scale(0.996264)"/>
     <use xlink:href="#CMR17-6e" transform="translate(40.48566 0) scale(0.996264)"/>
     <use xlink:href="#CMR17-74" transform="translate(88.778576 0) scale(0.996264)"/>
     <use xlink:href="#CMR17-74" transform="translate(156.956564 0) scale(0.996264)"/>
     <use xlink:href="#CMR17-79" transform="translate(189.634878 0) scale(0.996264)"/>
     <use xlink:href="#CMR17-70" transform="translate(237.927793 0) scale(0.996264)"/>
     <use xlink:href="#CMR17-65" transform="translate(291.425602 0) scale(0.996264)"/>
     <path d="M 129.541973 0 
L 156.956564 0 
L 156.956564 0.3985 
L 129.541973 0.3985 
L 129.541973 0 
z
"/>
    </g>
   </g>
   <g id="line2d_55">
    <path d="M 1048.84751 128.323248 
L 1061.84751 128.323248 
L 1074.84751 128.323248 
" style="fill: none; stroke: #333333; stroke-width: 1.2; stroke-linecap: round"/>
   </g>
   <g id="text_29">
    <!-- Roots' children -->
    <g style="fill: #262626" transform="translate(1085.24751 132.873248) scale(0.13 -0.13)">
     <defs>
      <path id="CMR17-27" d="M 1024 4025 
C 1037 3955 1043 3929 1043 3820 
C 1043 3415 883 3042 634 2778 
C 608 2752 595 2733 595 2707 
C 595 2681 621 2656 646 2656 
C 691 2656 1146 3105 1146 3811 
C 1146 3952 1133 4426 800 4426 
C 659 4426 538 4331 538 4165 
C 538 3999 659 3904 800 3904 
C 858 3904 966 3923 1024 4025 
z
" transform="scale(0.015625)"/>
      <path id="CMR17-68" d="M 2656 1933 
C 2656 2259 2592 2790 1837 2790 
C 1312 2790 1056 2368 979 2157 
L 973 2157 
L 973 4396 
L 211 4326 
L 211 4160 
C 589 4160 646 4122 646 3817 
L 646 426 
C 646 184 621 153 211 153 
L 211 -13 
C 365 0 646 0 813 0 
C 979 0 1267 0 1421 -13 
L 1421 153 
C 1011 153 986 178 986 428 
L 986 1658 
C 986 2247 1344 2688 1792 2688 
C 2266 2688 2317 2266 2317 1958 
L 2317 428 
C 2317 184 2291 153 1882 153 
L 1882 -13 
C 2035 0 2317 0 2483 0 
C 2650 0 2938 0 3091 -13 
L 3091 153 
C 2682 153 2656 178 2656 428 
L 2656 1933 
z
" transform="scale(0.015625)"/>
      <path id="CMR17-6c" d="M 979 4396 
L 218 4326 
L 218 4160 
C 595 4160 653 4122 653 3817 
L 653 426 
C 653 184 627 153 218 153 
L 218 -13 
C 371 0 653 0 813 0 
C 979 0 1261 0 1414 -13 
L 1414 153 
C 1005 153 979 178 979 426 
L 979 4396 
z
" transform="scale(0.015625)"/>
     </defs>
     <use xlink:href="#CMR17-52" transform="scale(0.996264)"/>
     <use xlink:href="#CMR17-6f" transform="translate(67.791102 0) scale(0.996264)"/>
     <use xlink:href="#CMR17-6f" transform="translate(116.084018 0) scale(0.996264)"/>
     <use xlink:href="#CMR17-74" transform="translate(161.774495 0) scale(0.996264)"/>
     <use xlink:href="#CMR17-73" transform="translate(197.055263 0) scale(0.996264)"/>
     <use xlink:href="#CMR17-27" transform="translate(232.8566 0) scale(0.996264)"/>
     <use xlink:href="#CMR17-63" transform="translate(287.803625 0) scale(0.996264)"/>
     <use xlink:href="#CMR17-68" transform="translate(325.686832 0) scale(0.996264)"/>
     <use xlink:href="#CMR17-69" transform="translate(376.582202 0) scale(0.996264)"/>
     <use xlink:href="#CMR17-6c" transform="translate(401.45326 0) scale(0.996264)"/>
     <use xlink:href="#CMR17-64" transform="translate(426.324318 0) scale(0.996264)"/>
     <use xlink:href="#CMR17-72" transform="translate(477.219688 0) scale(0.996264)"/>
     <use xlink:href="#CMR17-65" transform="translate(512.500456 0) scale(0.996264)"/>
     <use xlink:href="#CMR17-6e" transform="translate(552.986117 0) scale(0.996264)"/>
    </g>
   </g>
   <g id="line2d_56">
    <path d="M 1048.84751 146.44156 
L 1061.84751 146.44156 
L 1074.84751 146.44156 
" style="fill: none; stroke-dasharray: 4.8,1.8; stroke-dashoffset: 0; stroke: #333333; stroke-width: 1.2"/>
   </g>
   <g id="text_30">
    <!-- Disjoint sets -->
    <g style="fill: #262626" transform="translate(1085.24751 150.99156) scale(0.13 -0.13)">
     <defs>
      <path id="CMR17-44" d="M 333 4352 
L 333 4186 
C 774 4186 845 4186 845 3900 
L 845 452 
C 845 166 774 166 333 166 
L 333 0 
L 2368 0 
C 3398 0 4224 943 4224 2141 
C 4224 3346 3411 4352 2368 4352 
L 333 4352 
z
M 1523 166 
C 1267 166 1254 197 1254 414 
L 1254 3938 
C 1254 4155 1267 4186 1523 4186 
L 2240 4186 
C 2771 4186 3750 3874 3750 2141 
C 3750 1242 3488 879 3366 707 
C 3213 510 2848 166 2240 166 
L 1523 166 
z
" transform="scale(0.015625)"/>
      <path id="CMR17-6a" d="M 1165 3963 
C 1165 4103 1050 4224 902 4224 
C 762 4224 640 4110 640 3963 
C 640 3823 755 3702 902 3702 
C 1043 3702 1165 3817 1165 3963 
z
M 365 2754 
L 365 2588 
C 787 2588 838 2543 838 2235 
L 838 -359 
C 838 -678 781 -1178 403 -1178 
C 358 -1178 186 -1178 45 -1082 
C 90 -1075 250 -1031 250 -851 
C 250 -729 166 -621 19 -621 
C -122 -621 -211 -717 -211 -858 
C -211 -1114 70 -1280 397 -1280 
C 838 -1280 1165 -877 1165 -332 
L 1165 2825 
L 365 2754 
z
" transform="scale(0.015625)"/>
     </defs>
     <use xlink:href="#CMR17-44" transform="scale(0.996264)"/>
     <use xlink:href="#CMR17-69" transform="translate(70.393556 0) scale(0.996264)"/>
     <use xlink:href="#CMR17-73" transform="translate(95.264614 0) scale(0.996264)"/>
     <use xlink:href="#CMR17-6a" transform="translate(131.065952 0) scale(0.996264)"/>
     <use xlink:href="#CMR17-6f" transform="translate(158.539464 0) scale(0.996264)"/>
     <use xlink:href="#CMR17-69" transform="translate(204.229942 0) scale(0.996264)"/>
     <use xlink:href="#CMR17-6e" transform="translate(229.101 0) scale(0.996264)"/>
     <use xlink:href="#CMR17-74" transform="translate(277.393916 0) scale(0.996264)"/>
     <use xlink:href="#CMR17-73" transform="translate(342.75065 0) scale(0.996264)"/>
     <use xlink:href="#CMR17-65" transform="translate(378.551988 0) scale(0.996264)"/>
     <use xlink:href="#CMR17-74" transform="translate(419.037648 0) scale(0.996264)"/>
     <use xlink:href="#CMR17-73" transform="translate(454.318416 0) scale(0.996264)"/>
    </g>
   </g>
  </g>
 </g>
 <defs>
  <clipPath id="pe45c1d37ea">
   <rect x="73.765012" y="27.036997" width="352.639326" height="249.237742"/>
  </clipPath>
  <clipPath id="p3602950bda">
   <rect x="448.004338" y="27.036997" width="352.639326" height="249.237742"/>
  </clipPath>
  <clipPath id="pf6dc248ddd">
   <rect x="822.243663" y="27.036997" width="352.639326" height="249.237742"/>
  </clipPath>
 </defs>
</svg>
